<svg width="336" height="103" viewBox="0 0 336 103" fill="none" xmlns="http://www.w3.org/2000/svg">
<path d="M32.3589 42.8099C23.9406 48.8969 12.7162 43.6553 8.1563 40.2737L-19.2031 137.737L341.205 148.607C343.485 104.283 345.098 13.9693 333.313 7.30262C318.581 -1.03071 311.215 14.549 308.584 19.2591C305.953 23.9693 297.009 27.5925 289.643 26.1432C282.277 24.6939 266.492 42.8099 255.443 47.1577C244.394 51.5055 229.136 27.5925 222.296 23.607C215.457 19.6215 209.669 28.3171 207.038 27.5925C204.408 26.8678 193.359 4.04175 185.466 4.40407C177.574 4.76639 170.734 26.1432 164.947 23.607C159.159 21.0708 152.846 40.2737 133.378 52.9548C113.911 65.6359 106.019 4.76641 95.496 1.86786C84.9731 -1.0307 81.8163 11.6505 71.2934 23.607C60.7706 35.5635 56.0353 26.5055 52.8784 23.607C49.7216 20.7084 42.8817 35.2012 32.3589 42.8099Z" fill="url(#paint0_linear_2568_195)" stroke="#0052DE" stroke-width="2.89855" stroke-linecap="round" stroke-linejoin="round"/>
<path d="M32.3589 42.8099C23.9406 48.8969 12.7162 43.6553 8.1563 40.2737L-19.2031 137.737L341.205 148.607C343.485 104.283 345.098 13.9693 333.313 7.30262C318.581 -1.03071 311.215 14.549 308.584 19.2591C305.953 23.9693 297.009 27.5925 289.643 26.1432C282.277 24.6939 266.492 42.8099 255.443 47.1577C244.394 51.5055 229.136 27.5925 222.296 23.607C215.457 19.6215 209.669 28.3171 207.038 27.5925C204.408 26.8678 193.359 4.04175 185.466 4.40407C177.574 4.76639 170.734 26.1432 164.947 23.607C159.159 21.0708 152.846 40.2737 133.378 52.9548C113.911 65.6359 106.019 4.76641 95.496 1.86786C84.9731 -1.0307 81.8163 11.6505 71.2934 23.607C60.7706 35.5635 56.0353 26.5055 52.8784 23.607C49.7216 20.7084 42.8817 35.2012 32.3589 42.8099Z" stroke="#0052DE" stroke-width="2.89855" stroke-linecap="round" stroke-linejoin="round"/>
<defs>
<linearGradient id="paint0_linear_2568_195" x1="162.316" y1="-12.6812" x2="162.316" y2="119.259" gradientUnits="userSpaceOnUse">
<stop stop-color="#E9E3FF"/>
<stop offset="0.72165" stop-color="#E7F0FF" stop-opacity="0"/>
</linearGradient>
</defs>
</svg>
