<svg width="125" height="48" viewBox="0 0 125 48" fill="none" xmlns="http://www.w3.org/2000/svg">
<path d="M41.0997 0.578166L40.6718 1.15634L39.2727 1.1679C37.0178 1.17946 34.0344 1.44542 32.8897 1.74607C31.4211 2.12766 28.1487 4.4519 23.5117 8.39502C22.8758 8.92694 22.5404 9.13508 22.2976 9.13508C21.6732 9.13508 13.9373 10.2799 11.7286 10.6961C6.9414 11.5981 6.32854 11.8062 5.53067 12.6966L5.05657 13.2401L5.43816 13.2632C5.65786 13.2748 7.13798 13.3442 8.72216 13.4135C10.3179 13.4829 11.7402 13.5754 11.9021 13.6101C12.1681 13.6911 12.1449 13.7026 11.7286 13.7836C11.4743 13.8298 10.4335 13.8761 9.41597 13.8876C8.39839 13.8992 6.9414 13.9339 6.18978 13.9801L4.81374 14.0495L4.53621 14.8011C4.21244 15.6568 4.03899 17.7151 4.24713 18.1083C4.36276 18.3164 4.5709 18.3511 6.31698 18.4783C8.39839 18.6286 10.1445 18.6402 11.9021 18.513C12.5034 18.4783 13.2319 18.4667 13.5094 18.5014L14.0182 18.5592L13.4516 19.1605C13.0353 19.6 12.7694 19.7734 12.434 19.8428C11.9137 19.9353 8.64122 19.8428 6.58294 19.6693C5.78506 19.6 4.74436 19.519 4.27026 19.4728C3.79616 19.4381 3.35675 19.3687 3.29893 19.3109C3.24111 19.2531 3.31049 19.0218 3.46082 18.7674L3.72678 18.328L3.42613 18.6055C2.90578 19.0796 2.73232 19.8543 2.8017 21.3807C2.83639 22.1208 2.95203 22.9996 3.0561 23.3349C3.26424 24.0056 3.83085 24.7457 4.15462 24.7457C4.27026 24.7457 4.58247 24.8266 4.85999 24.9307C5.13751 25.0232 5.75037 25.1851 6.22447 25.2776C6.80264 25.3932 7.13798 25.5204 7.24205 25.6707C7.33456 25.7979 7.60052 25.9136 7.91273 25.9714C8.5834 26.0639 8.66435 26.2027 8.1093 26.2836C7.87804 26.3183 5.97008 26.6305 3.8771 26.989C0.26932 27.6018 -0.748258 27.81 0.523715 27.6943C0.835927 27.6596 3.46082 27.5787 6.35167 27.5209C16.0187 27.3012 19.7536 27.2202 26.0673 27.0583C28.5534 27.0005 32.9706 26.8965 35.8961 26.8271C38.8217 26.7577 44.3374 26.6305 48.1534 26.538C51.9693 26.4455 57.3809 26.3183 60.1793 26.2489C62.9776 26.1795 67.4295 26.0755 70.066 26.0176C72.7024 25.9598 77.4666 25.8558 80.6465 25.7864C83.8264 25.717 88.4865 25.6129 90.9957 25.5551C93.505 25.4857 98.061 25.3817 101.114 25.3238C112.319 25.0926 124.541 24.7688 124.611 24.6994C124.634 24.6763 124.483 24.6185 124.275 24.5722C124.067 24.526 122.934 24.2138 121.754 23.8784C120.575 23.5315 117.927 22.7799 115.857 22.2017C113.787 21.612 111.602 20.9876 111 20.8025C110.249 20.5713 109.312 20.3978 108.086 20.2706C106.329 20.0856 105.993 19.9931 106.491 19.8312C106.826 19.7272 107.647 18.7558 107.959 18.0736C108.11 17.7498 108.283 17.1485 108.352 16.7554C108.688 14.6739 107.242 12.396 105.172 11.7484C104.166 11.4246 102.825 11.5171 101.865 11.9797C99.9574 12.8816 98.9514 14.859 99.3676 16.871C99.5874 17.9001 99.8996 18.513 100.628 19.2762L101.206 19.889L96.9393 19.8312C94.592 19.7965 91.6086 19.7503 90.3019 19.7156C88.9953 19.6809 84.3584 19.6578 79.9874 19.6578H72.0433L72.6099 19.1259C74.4485 17.4145 74.356 14.3849 72.4365 12.6157C71.5114 11.7715 70.7482 11.5056 69.3144 11.5056C68.2621 11.5056 68.0887 11.5403 67.4064 11.864C64.5618 13.217 63.9143 16.871 66.1229 19.0796L66.701 19.6578H60.4106H54.1316L54.0854 19.0449C54.0507 18.7211 53.9235 17.5301 53.7847 16.42C53.646 15.3099 53.4263 13.3788 53.2991 12.1416C53.1719 10.9043 52.825 8.08281 52.5243 5.8742C52.0155 2.12766 51.9693 1.8617 51.738 1.80389C51.368 1.71138 48.7778 1.48011 48.72 1.53793C48.6968 1.56106 48.72 2.38206 48.7893 3.36494C48.9628 5.94358 49.09 22.3174 48.9397 22.3174C48.8587 22.3174 48.7893 21.5889 48.7431 20.3747C48.6968 19.3109 48.5581 16.8826 48.4424 14.9746C48.3152 13.0666 48.188 11.0083 48.1534 10.4071C48.1187 9.80576 48.0608 8.99632 48.0262 8.61473C47.9915 8.23313 47.9452 7.60871 47.9221 7.22712C47.8874 6.84553 47.8411 6.30205 47.8065 6.01296C47.7833 5.72388 47.7255 4.94913 47.6908 4.27845C47.6099 3.00648 47.4364 1.49167 47.3439 1.41073C47.2398 1.30666 45.436 1.1679 43.9905 1.15634C43.1695 1.15634 42.4295 1.11008 42.3485 1.06383C42.2445 0.994449 42.2676 0.855689 42.4295 0.48566L42.6492 -3.10339e-06H42.0826C41.5507 -3.10339e-06 41.5044 0.0231228 41.0997 0.578166ZM39.5386 2.75209C39.5386 2.8099 39.3767 2.99492 39.1802 3.19149C38.4632 3.86217 36.0118 6.76458 34.8554 8.29095L34.4045 8.90381H29.571C26.9114 8.90381 24.7375 8.88068 24.7375 8.85756C24.7375 8.77661 26.0441 7.55089 26.5067 7.20399C26.7379 7.03054 27.3508 6.53332 27.8827 6.11703C29.1894 5.07633 31.2361 3.68872 32.1034 3.24931C32.6815 2.96023 33.0516 2.86772 33.9535 2.78678C35.4336 2.65958 39.5386 2.63645 39.5386 2.75209ZM39.3189 5.51574C39.0183 5.94358 38.1973 6.83396 38.3938 6.53331C38.6482 6.16329 39.4345 5.20352 39.5039 5.20352C39.5271 5.20352 39.4461 5.34228 39.3189 5.51574ZM40.3365 7.50464C40.4174 7.56246 40.5562 7.87467 40.6487 8.21001C40.9147 9.22759 40.6256 9.38947 38.4632 9.48198C37.596 9.51667 36.879 9.52824 36.879 9.50511C36.879 9.48198 37.0062 9.29697 37.1566 9.10039C37.3069 8.89225 37.4919 8.54535 37.5613 8.31408C37.7 7.88623 37.9429 7.59715 38.2666 7.48151C38.5442 7.37744 40.163 7.40057 40.3365 7.50464ZM45.8638 8.52222C45.8407 8.70723 45.8175 8.58004 45.8175 8.26782C45.8175 7.94405 45.8407 7.80529 45.8638 7.94405C45.8869 8.09437 45.8869 8.34877 45.8638 8.52222ZM45.4475 9.40104L45.0544 9.77107L45.3781 9.33166C45.5516 9.08883 45.725 8.92694 45.7597 8.96163C45.7944 8.99632 45.6557 9.1929 45.4475 9.40104ZM43.528 9.93295C42.8342 10.0486 38.151 10.0602 38.5557 9.94452C38.7523 9.89826 40.0474 9.85201 41.4466 9.86357C42.8458 9.86357 43.7824 9.89826 43.528 9.93295ZM20.8059 11.1009C20.5862 11.1587 19.7999 11.309 19.0714 11.4478C16.0649 12.0028 14.7351 12.4885 14.1223 13.2632C13.521 14.0264 12.7578 15.4024 12.3068 16.5357C11.5899 18.3049 11.4858 18.1777 12.1102 16.3044C12.5381 14.9977 12.9775 14.0842 13.4978 13.3788C14.2726 12.3381 14.6773 12.13 16.7009 11.6906C18.5279 11.309 22.2051 10.7771 20.8059 11.1009ZM32.589 11.1471C32.5659 11.1702 32.2884 11.2165 31.9646 11.2512C30.8429 11.3668 26.7958 12.0259 25.8013 12.2572C23.5696 12.7544 22.6561 13.1129 22.6561 13.4714C22.6561 13.6679 21.4997 15.4834 21.2338 15.7031C21.1413 15.784 20.4937 15.9228 19.8115 16.0153C18.366 16.2119 13.9835 16.3853 13.9835 16.2466C13.9835 16.2003 14.1685 15.7956 14.3998 15.3446C15.4058 13.3673 15.718 13.2285 20.5168 12.4885C22.6098 12.1647 29.8138 11.2743 31.0395 11.1818C31.9993 11.1124 32.6468 11.1009 32.589 11.1471ZM70.5863 12.9973C71.5692 13.4135 72.3671 14.4196 72.5521 15.5065C72.6678 16.1309 72.4134 17.1485 71.9971 17.7729C71.7196 18.1777 71.4305 18.4205 70.8986 18.698C69.2219 19.5653 67.3486 18.9408 66.516 17.2526C65.2556 14.6739 67.9152 11.8872 70.5863 12.9973ZM46.361 13.1707C46.361 13.4829 46.3263 13.506 45.7597 13.5754C45.0775 13.6564 36.694 13.6795 36.775 13.5986C36.7981 13.5639 38.1279 13.4829 39.7121 13.4135C41.3078 13.3442 42.973 13.2401 43.4124 13.1707C44.8115 12.951 45.4822 12.8701 45.9332 12.8469C46.3263 12.8354 46.361 12.8585 46.361 13.1707ZM105.172 13.1591C105.832 13.4945 106.618 14.408 106.884 15.1365C107.416 16.6282 106.595 18.3858 105.057 19.0218C104.826 19.1143 104.294 19.1952 103.866 19.1952C102.883 19.1952 102.108 18.8599 101.484 18.1545C100.859 17.4723 100.663 16.9751 100.674 16.0037C100.674 15.3331 100.732 15.0902 101.01 14.5814C101.414 13.8298 102.097 13.2285 102.79 13.0088C103.484 12.7775 104.571 12.8585 105.172 13.1591ZM31.1436 17.3451C32.3462 17.6457 33.3291 18.1892 34.1385 18.9987C35.3758 20.2359 36.0812 21.7045 36.2431 23.4159L36.324 24.2253L42.0016 24.1559C52.9406 24.0172 101.518 23.9015 107.589 24.0056L113.718 24.0981L110.538 24.1791C108.792 24.2253 99.1595 24.3178 89.1456 24.3988C79.1317 24.4681 66.5623 24.5722 61.22 24.63C55.8777 24.6879 45.2394 24.7919 37.5728 24.8613C29.9063 24.9191 23.292 25.0001 22.8526 25.0348C22.3785 25.0579 22.101 25.0348 22.1357 24.9654C22.182 24.9076 22.3323 24.8613 22.4826 24.8613C22.9914 24.8613 23.1186 24.7457 23.1186 24.2831C23.1186 24.0403 23.188 23.4621 23.2805 22.988C23.8355 20.0972 25.5932 18.0389 28.0446 17.4145C29.4206 17.0676 30.0104 17.056 31.1436 17.3451ZM20.6903 17.9001C20.6903 17.9695 20.6325 18.0389 20.5515 18.062C20.4821 18.0852 20.3203 18.4667 20.2162 18.9177L20.008 19.7156L20.0312 18.9871L20.0543 18.2702H18.3545C16.5737 18.2702 16.0534 18.1083 17.4294 17.9811C17.8572 17.9464 18.3082 17.9001 18.4354 17.8886C19.3489 17.7961 20.6903 17.8076 20.6903 17.9001Z" fill="black" fill-opacity="0.8"/>
<path d="M69.1406 13.9685C69.1406 14.6161 69.1753 14.7895 69.3372 14.8473C69.6263 14.963 69.6957 14.8127 69.7304 13.9917C69.765 13.2516 69.7535 13.24 69.4528 13.2053L69.1406 13.1707V13.9685Z" fill="black" fill-opacity="0.8"/>
<path d="M67.2452 14.1651C67.1874 14.3386 67.4765 14.6508 68.2743 15.2868C68.7947 15.6915 68.6444 15.784 67.5805 15.7493C66.6323 15.7146 66.5977 15.7146 66.5977 15.969C66.5977 16.2119 66.6208 16.2234 67.5805 16.1425C68.4247 16.0731 68.5634 16.0847 68.5634 16.235C68.5634 16.3391 68.6213 16.42 68.6791 16.42C68.7484 16.42 68.7947 16.4778 68.7947 16.5472C68.7947 16.6166 68.6906 16.6513 68.575 16.6166C68.4131 16.5819 68.205 16.7091 67.8696 17.0676C67.6037 17.3451 67.3377 17.5763 67.2568 17.5763C67.1758 17.5763 67.199 17.6457 67.3146 17.7614C67.488 17.9348 67.5227 17.9233 67.8234 17.611C68.5172 16.9172 68.76 16.79 69.4769 16.7785C70.1476 16.7669 70.1592 16.7785 70.7374 17.3913C71.1883 17.8654 71.3618 17.9811 71.4543 17.8654C71.6277 17.6573 70.3789 16.5125 70.1014 16.6166C69.9048 16.6975 69.9048 16.686 70.1014 16.4894C70.2054 16.3853 70.2979 16.1194 70.2979 15.8997C70.2979 15.5874 70.4136 15.4024 70.9339 14.9052C71.3386 14.5236 71.5352 14.2577 71.4658 14.1883C71.3155 14.0379 70.1476 15.0093 70.2286 15.2174C70.2633 15.3099 70.2401 15.3793 70.1823 15.3793C70.1129 15.3793 70.0667 15.2984 70.0667 15.2059C70.0667 14.9399 68.9335 14.963 68.7253 15.229C68.575 15.4256 68.575 15.4256 68.5634 15.2059C68.5634 15.0671 68.3322 14.8127 68.0431 14.5814C67.754 14.3733 67.5227 14.1536 67.5227 14.0958C67.5227 13.9223 67.3262 13.9801 67.2452 14.1651ZM69.8585 15.3446C70.2979 15.7493 69.9857 16.6513 69.3844 16.6513C68.9566 16.6513 68.7947 16.4547 68.7947 15.9459C68.7947 15.229 69.3729 14.9052 69.8585 15.3446Z" fill="black" fill-opacity="0.8"/>
<path d="M70.4121 15.9458C70.4121 16.1193 70.7359 16.1887 71.4644 16.1887C71.9963 16.1887 72.1466 16.154 72.1466 16.0152C72.1466 15.8764 71.9732 15.8418 71.2794 15.8418C70.8053 15.8418 70.4121 15.888 70.4121 15.9458Z" fill="black" fill-opacity="0.8"/>
<path d="M69.1981 17.7383C69.1056 18.5824 69.1518 18.7328 69.4871 18.6518C69.7415 18.5824 69.7762 18.2471 69.649 17.4261C69.5334 16.7323 69.2906 16.8942 69.1981 17.7383Z" fill="black" fill-opacity="0.8"/>
<path d="M103.484 14.1651C103.484 14.7433 103.53 14.9283 103.692 15.0208C103.854 15.1249 103.843 15.1364 103.577 15.148C103.368 15.148 103.253 15.2058 103.253 15.3099C103.253 15.4024 103.195 15.518 103.114 15.5643C103.033 15.6221 103.01 15.5874 103.056 15.4602C103.102 15.333 102.929 15.1133 102.501 14.7548C101.923 14.2576 101.565 14.0842 101.657 14.327C101.68 14.3848 101.992 14.7548 102.362 15.1364L103.045 15.8418L103.392 15.5527C103.819 15.1943 104.166 15.2174 104.398 15.6221C104.606 15.9921 104.49 16.4547 104.155 16.6281L103.889 16.7669L104.155 16.7322C104.351 16.7206 104.629 16.8941 105.126 17.3913C105.635 17.9001 105.843 18.0388 105.912 17.9232C106.016 17.7613 104.941 16.6628 104.675 16.6512C104.502 16.6512 104.479 16.4662 104.64 16.3622C104.872 16.2234 104.756 15.7262 104.398 15.3214C104.051 14.9283 104.039 14.8936 104.12 14.1651L104.201 13.4135H103.843H103.484V14.1651Z" fill="black" fill-opacity="0.8"/>
<path d="M105.219 14.8012C104.803 15.1828 104.629 15.414 104.698 15.4834C104.779 15.5528 105.022 15.3909 105.427 15.0093C106.225 14.2461 106.051 14.0727 105.219 14.8012Z" fill="black" fill-opacity="0.8"/>
<path d="M101.055 16.0038C101.055 16.131 101.274 16.1772 101.991 16.2119C102.512 16.235 102.951 16.2119 102.986 16.1541C103.113 15.9344 102.812 15.8419 101.968 15.8419C101.251 15.8419 101.055 15.8766 101.055 16.0038Z" fill="black" fill-opacity="0.8"/>
<path d="M104.931 15.969C104.816 16.154 104.885 16.1772 105.776 16.2581C106.573 16.3391 106.608 16.3275 106.608 16.0847C106.608 15.865 106.55 15.8418 105.81 15.8418C105.359 15.8418 104.966 15.8996 104.931 15.969Z" fill="black" fill-opacity="0.8"/>
<path d="M102.341 16.9057C101.67 17.4954 101.485 17.8076 101.786 17.8076C101.855 17.8076 102.179 17.5879 102.491 17.322C102.804 17.0445 103.116 16.8248 103.185 16.8132C103.255 16.8132 103.382 16.7901 103.474 16.7901C103.602 16.7669 103.59 16.7207 103.428 16.5357C103.312 16.4085 103.174 16.3044 103.116 16.3044C103.07 16.3044 102.711 16.5819 102.341 16.9057ZM103.324 16.7323C103.243 16.8132 103.023 16.6513 103.023 16.5125C103.023 16.4432 103.093 16.4432 103.197 16.5357C103.301 16.6166 103.347 16.7091 103.324 16.7323Z" fill="black" fill-opacity="0.8"/>
<path d="M103.552 17.5995C103.425 18.6865 103.436 18.7327 103.841 18.7327C104.119 18.7327 104.188 18.698 104.13 18.5477C104.096 18.4436 104.061 18.062 104.061 17.6804C104.061 17.0907 104.026 16.9982 103.841 16.9982C103.668 16.9982 103.622 17.1138 103.552 17.5995Z" fill="black" fill-opacity="0.8"/>
<path d="M28.2201 17.9927C25.7224 18.6634 23.8145 21.0917 23.8145 23.6125V24.3988H24.728H25.6299L25.6877 23.4853C25.7802 21.9011 26.6706 20.5713 28.0698 19.9122C28.6364 19.6462 28.8792 19.6 29.8274 19.6C30.7756 19.6 31.0185 19.6462 31.5735 19.9006C32.487 20.3285 33.123 20.9529 33.5277 21.797C33.8399 22.4561 33.9093 22.7337 34.0365 23.8784L34.0712 24.2253H34.9269H35.7826L35.8173 23.8669C35.8751 23.2887 35.5397 21.9474 35.135 21.1148C33.9209 18.6171 30.9259 17.2642 28.2201 17.9927Z" fill="black" fill-opacity="0.8"/>
<path d="M29.3613 21.161V22.2018L29.766 22.1671C30.1708 22.1439 30.1708 22.1439 30.1708 21.5658C30.1708 21.242 30.2055 20.791 30.2401 20.5482L30.3211 20.1203H29.8354H29.3613V21.161Z" fill="black" fill-opacity="0.8"/>
<path d="M27.0724 21.2998C26.9914 21.3807 26.9336 21.4732 26.9336 21.5079C26.9336 21.5542 27.2458 21.8317 27.6274 22.1324C28.0206 22.433 28.3675 22.7683 28.4137 22.8724C28.4831 23.0574 28.5409 23.0227 28.8416 22.6874C29.1653 22.3058 29.1653 22.2942 28.9109 22.3752C28.7028 22.433 28.5525 22.3752 28.2171 22.063C27.2921 21.2073 27.2227 21.1495 27.0724 21.2998Z" fill="black" fill-opacity="0.8"/>
<path d="M31.702 21.8779C31.1701 22.3867 31.0082 22.618 31.1007 22.7105C31.1933 22.803 31.2511 22.803 31.3089 22.6989C31.3551 22.6296 31.6905 22.3405 32.0489 22.0629C32.6156 21.6235 32.6965 21.5195 32.5693 21.3576C32.4421 21.1841 32.3496 21.2535 31.702 21.8779Z" fill="black" fill-opacity="0.8"/>
<path d="M29.2216 22.7683C28.9325 23.0227 28.8516 23.1962 28.8516 23.52C28.8516 23.7512 28.8978 23.9825 28.9672 24.0403C29.025 24.0981 29.395 24.1906 29.7766 24.2253C30.4126 24.3063 30.5167 24.2831 30.7364 24.0634C31.1064 23.6934 31.0602 23.1037 30.6208 22.7337C30.1467 22.3405 29.6957 22.3405 29.2216 22.7683Z" fill="black" fill-opacity="0.8"/>
<path d="M27.3007 23.6818C26.4913 23.7049 26.3409 23.7396 26.3756 23.9015C26.4103 24.0518 26.5722 24.0865 27.451 24.0634C28.0176 24.0518 28.5149 24.0172 28.538 23.9825C28.5727 23.9593 28.5149 23.8668 28.4224 23.7859C28.3183 23.6934 27.9367 23.6587 27.3007 23.6818Z" fill="black" fill-opacity="0.8"/>
<path d="M31.2932 23.7512C31.1892 24.0172 31.3163 24.0519 32.3917 24.0519C33.3284 24.0519 33.4093 24.0287 33.4093 23.8206C33.4093 23.6009 33.3284 23.5893 32.3802 23.5893C31.6054 23.5893 31.3395 23.624 31.2932 23.7512Z" fill="black" fill-opacity="0.8"/>
<path d="M85.2119 3.46902C81.9857 3.67716 79.2105 4.56754 73.8451 7.09992C73.0935 7.45839 72.3303 7.74747 72.1221 7.74747C71.4746 7.74747 67.624 8.21001 65.7854 8.51066C63.5999 8.86912 61.1832 9.47042 60.2812 9.87514C59.6568 10.1527 59.5643 10.2452 59.1942 10.939C58.9745 11.3668 58.6392 11.8525 58.4542 12.0375C58.0495 12.4307 57.8876 13.2401 57.9917 14.3617C58.0495 14.9515 58.1073 15.1481 58.2461 15.1481C58.4658 15.1481 59.1942 15.599 59.1942 15.7378C59.1942 15.7956 59.0092 15.8419 58.7895 15.8419C58.3501 15.8419 58.3039 15.9344 58.5467 16.3969C58.8242 16.9404 59.1017 17.0791 60.1193 17.2179C60.6628 17.2988 61.3682 17.4029 61.6804 17.4607C62.0042 17.5185 62.6055 17.5879 63.0449 17.6342L63.8196 17.7036V16.6744C63.8196 14.6393 64.2821 13.3904 65.4616 12.2109C66.5486 11.1356 67.7512 10.6383 69.3122 10.6383C71.4977 10.6383 73.3016 11.7484 74.2845 13.7026C74.7586 14.6508 74.9205 15.4024 74.9205 16.7207V17.692H77.6147C79.0833 17.692 82.4598 17.7383 85.0963 17.7961C87.7327 17.8539 91.7568 17.9233 94.0232 17.9464L98.1629 17.9811L98.2092 16.7669C98.2438 16.0962 98.3479 15.2406 98.452 14.8705C99.088 12.4653 101.308 10.754 103.76 10.754C104.835 10.754 105.633 10.9852 106.593 11.5518C108.454 12.6504 109.379 14.4774 109.379 17.0329V18.1892L110.339 18.1198C111.426 18.0273 114.028 17.7267 114.479 17.6342C114.652 17.5879 114.976 17.3798 115.207 17.1485C115.751 16.605 116.063 15.599 116.156 14.1189L116.225 13.0088L115.786 12.3613L115.346 11.7022L114.525 11.6328C112.166 11.4246 112.386 11.4825 111.322 10.6961C110.409 10.0255 110.27 9.95608 109.483 9.85201C108.79 9.75951 109.194 9.73638 111.669 9.75951L114.699 9.77107L114.629 9.42417C114.525 8.9385 114.386 8.69567 114.155 8.62629C113.97 8.56848 113.947 8.40659 113.982 7.06523C114.016 5.86264 113.993 5.57356 113.854 5.51574C113.635 5.43479 110.212 6.57957 109.148 7.09992C108.686 7.33119 108.177 7.51621 108.038 7.51621C107.587 7.51621 105.251 6.86866 103.251 6.18642C100.88 5.38854 98.1282 4.56754 96.7984 4.27846C93.3063 3.49214 89.236 3.21462 85.2119 3.46902ZM90.5426 4.50972C91.3289 4.5791 92.1152 4.67161 92.2771 4.71786L92.5778 4.79881L92.2771 6.1286L91.9765 7.45839L91.167 7.48152C85.0847 7.66653 82.3673 7.75904 81.1994 7.81686L79.7771 7.8978V7.37745C79.7771 6.8224 79.6268 6.59114 79.2683 6.59114C78.8983 6.59114 79.1758 6.40612 80.124 6.01296C82.4598 5.01851 83.6624 4.67161 85.1541 4.52129C86.6458 4.38253 88.8891 4.37096 90.5426 4.50972ZM80.124 5.12258C79.5805 5.40011 78.5745 5.95515 77.8691 6.35987C75.3368 7.83998 75.2789 7.86311 74.4579 7.86311C73.7873 7.86311 73.7294 7.85155 73.8913 7.67809C74.2035 7.37745 80.5981 4.62536 80.9913 4.63692C81.0606 4.63692 80.6675 4.85663 80.124 5.12258ZM98.3364 5.20353C99.724 5.5273 103.355 6.70677 104.292 7.14618C105.02 7.48152 106.014 7.72435 107.737 7.99031C108.2 8.05969 108.57 8.12907 108.547 8.15219C108.524 8.17532 107.529 8.09438 106.315 7.99031C105.113 7.88624 104.222 7.7706 104.349 7.73591C104.477 7.70122 103.968 7.62028 103.216 7.53933C101.956 7.40057 101.805 7.36588 101.112 6.93804C100.106 6.32518 98.9839 5.77013 97.9316 5.37698C97.0759 5.0532 96.6481 4.82193 97.0759 4.91444C97.1916 4.94913 97.7697 5.07633 98.3364 5.20353ZM95.0986 5.34229C96.3821 5.75857 98.3595 6.88022 98.4867 7.25025C98.5098 7.35432 97.8854 7.40057 95.9427 7.4237C94.5204 7.44683 93.3525 7.44683 93.3294 7.44683C93.3063 7.43526 93.3988 6.97273 93.526 6.41768C93.6647 5.86264 93.7688 5.31916 93.7688 5.19196C93.7688 4.93757 93.9076 4.94913 95.0986 5.34229ZM77.2331 7.86311C77.2331 7.92093 77.1522 7.97874 77.0481 7.97874C76.9556 7.97874 76.9094 7.92093 76.9441 7.86311C76.9788 7.79373 77.0597 7.74747 77.1291 7.74747C77.1869 7.74747 77.2331 7.79373 77.2331 7.86311ZM103.112 7.82842C102.996 7.85155 102.788 7.85155 102.649 7.82842C102.499 7.80529 102.592 7.78216 102.846 7.78216C103.1 7.7706 103.216 7.79373 103.112 7.82842ZM103.794 7.81686C103.76 7.85155 103.656 7.86311 103.575 7.82842C103.482 7.79373 103.517 7.75904 103.644 7.75904C103.771 7.74748 103.841 7.78217 103.794 7.81686ZM99.2383 8.63786C99.088 8.66098 98.8567 8.66098 98.7179 8.63786C98.5676 8.61473 98.6833 8.5916 98.9723 8.5916C99.2614 8.5916 99.3771 8.61473 99.2383 8.63786ZM91.2249 9.48199C91.3174 9.5398 91.3636 9.60918 91.3405 9.63231C91.2364 9.72482 88.7965 9.78263 88.7965 9.69013C88.7965 9.43573 90.8664 9.25072 91.2249 9.48199ZM64.5134 9.95608C64.0624 10.0833 63.3918 10.4186 62.8367 10.8002C62.062 11.3206 61.7613 11.4593 60.975 11.6097C60.4547 11.7137 59.8765 11.7947 59.6683 11.7947H59.2983L59.7609 11.1124C60.1887 10.4996 60.2696 10.4302 60.8941 10.2567C61.4722 10.1064 62.5245 9.93296 63.8774 9.78263C64.074 9.77107 64.4556 9.74794 64.7447 9.73638H65.265L64.5134 9.95608Z" fill="black" fill-opacity="0.8"/>
<path d="M54.1669 15.4372C54.271 16.6282 54.5716 19.2415 54.6179 19.2762C54.641 19.2993 55.6354 19.2993 56.8265 19.2878L58.9888 19.2531L57.2774 17.5764C55.5661 15.8997 54.9879 15.3447 54.3981 14.8012L54.0859 14.5121L54.1669 15.4372Z" fill="black" fill-opacity="0.8"/>
<path d="M19.2987 44.6463C16.6622 44.7041 13.7482 44.7851 12.8232 44.8313L11.1465 44.9123L13.2857 44.9932C16.9282 45.1435 29.0004 45.3285 34.5161 45.3285H39.7659V44.9238V44.5191L31.9375 44.5422C27.6243 44.5422 21.9351 44.6001 19.2987 44.6463Z" fill="black" fill-opacity="0.8"/>
<path d="M80.7051 44.947V45.3633L91.725 45.2823C102.745 45.2014 105.451 45.1667 110.539 45.0164C113.129 44.9354 113.198 44.9238 111.984 44.8545C110.018 44.7273 95.194 44.5307 87.5622 44.5191H80.7051V44.947Z" fill="black" fill-opacity="0.8"/>
<g clip-path="url(#clip0_1331_827)">
<path d="M16.9398 29.6436C14.0866 29.6436 11.7012 31.9823 11.7012 34.851C11.7012 35.5681 12.2781 36.1451 12.9953 36.1451H20.8531C21.5703 36.1451 22.1472 35.5681 22.1472 34.851C22.1472 31.9823 19.8086 29.6436 16.9398 29.6436ZM16.9398 32.2005C17.9307 32.2005 18.7972 32.7544 19.2469 33.5726H14.5938C15.0538 32.7544 15.9383 32.2005 16.9398 32.2005Z" fill="#181818"/>
<path d="M19.8817 36.9706C19.4448 36.7078 18.8976 36.7362 18.4803 37.0291C18.0428 37.3361 17.5103 37.517 16.9391 37.5171C16.3677 37.5171 15.8353 37.3361 15.3976 37.029C14.9804 36.7361 14.4332 36.7077 13.9963 36.9705C13.2061 37.4459 13.1676 38.5751 13.9202 39.1081C14.7782 39.7158 15.8227 40.0738 16.9389 40.074C18.0552 40.074 19.0996 39.716 19.9578 39.1082C20.7103 38.5752 20.6719 37.446 19.8817 36.9706Z" fill="#181818"/>
<path d="M19.5716 34.8511C19.5716 34.3871 19.4522 33.9516 19.2438 33.5726H14.5907C14.3776 33.9516 14.255 34.3871 14.255 34.8511C14.255 35.5682 13.6782 36.1452 12.9922 36.1452H20.85C20.1485 36.1452 19.5716 35.5682 19.5716 34.8511Z" fill="#888888"/>
<path d="M20.8523 33.5727H19.2461C19.4545 33.9516 19.5739 34.3871 19.5739 34.8511C19.5739 35.5682 20.1508 36.1452 20.8523 36.1452C21.5695 36.1452 22.1464 35.5682 22.1464 34.8511C22.1464 34.1495 21.5695 33.5727 20.8523 33.5727Z" fill="#5D5B5B"/>
<path d="M14.2581 34.8511C14.2581 34.3871 14.3806 33.9516 14.5938 33.5727H12.9953C12.2781 33.5727 11.7012 34.1495 11.7012 34.8511C11.7012 35.5682 12.2781 36.1452 12.9953 36.1452C13.6813 36.1452 14.2581 35.5682 14.2581 34.8511Z" fill="#5D5B5B"/>
<path d="M19.8817 36.9706C19.4448 36.7078 18.8976 36.7362 18.4803 37.0291C18.0428 37.3361 17.5103 37.517 16.9391 37.5171C16.3677 37.5171 15.8353 37.3361 15.3976 37.029C14.9804 36.7361 14.4332 36.7077 13.9963 36.9705C13.2061 37.4459 13.1676 38.5751 13.9202 39.1081C14.7782 39.7158 15.8227 40.0738 16.9389 40.074C18.0552 40.074 19.0996 39.716 19.9578 39.1082C20.7103 38.5752 20.6719 37.446 19.8817 36.9706Z" fill="#888888"/>
<path d="M32.387 29.7841C31.8869 29.7841 31.4491 30.0499 31.2147 30.4876L28.2363 36.1071L25.2746 30.4876C25.0401 30.0499 24.6024 29.7841 24.1022 29.7841C23.3674 29.7841 22.7734 30.3782 22.7734 31.0973C22.7734 31.3161 22.836 31.5349 22.9298 31.7069L27.0566 39.5228C27.0615 39.5319 27.0679 39.5401 27.073 39.5491C27.2055 39.7908 27.4144 39.9825 27.6678 40.0996C27.6804 40.1054 27.6928 40.1115 27.7055 40.1169C27.7452 40.1342 27.7863 40.1488 27.828 40.1621C27.8576 40.1714 27.8878 40.1791 27.9183 40.1865C27.9449 40.1928 27.9715 40.1991 27.9987 40.2038C28.0254 40.2086 28.0525 40.2124 28.0798 40.2156C28.1186 40.22 28.1577 40.2231 28.1975 40.2241C28.2081 40.2243 28.2182 40.2263 28.229 40.2263C28.2315 40.2263 28.234 40.2259 28.2365 40.2259C28.2392 40.2259 28.2419 40.2263 28.2446 40.2263C28.2628 40.2263 28.2803 40.2234 28.2984 40.2227C28.3235 40.2217 28.3483 40.22 28.373 40.2178C28.8186 40.1763 29.2016 39.9238 29.4014 39.5385L33.5595 31.7069C33.6533 31.5349 33.7158 31.3161 33.7158 31.0973C33.7158 30.3782 33.1218 29.7841 32.387 29.7841Z" fill="#181818"/>
<path d="M32.3831 29.784C31.8829 29.784 31.4452 30.0498 31.2107 30.4875L28.2324 36.107L29.3818 38.2878C29.4913 38.4754 29.5382 38.6786 29.5382 38.8975C29.5382 39.5824 29.0217 40.1447 28.3691 40.2177C28.8147 40.1762 29.1977 39.9237 29.3975 39.5384L33.5556 31.7068C33.6493 31.5348 33.7119 31.316 33.7119 31.0972C33.7119 30.3781 33.1178 29.784 32.3831 29.784Z" fill="#888888"/>
<path d="M29.5403 38.8975C29.5403 38.6786 29.4934 38.4755 29.3839 38.2878L28.2345 36.1071L27.0704 38.3035C26.9766 38.491 26.9141 38.6943 26.9141 38.9288C26.9141 39.1559 26.9711 39.3662 27.0712 39.549C27.2051 39.7842 27.4123 39.9801 27.6659 40.0995C27.6785 40.1053 27.6909 40.1114 27.7037 40.1168C27.7434 40.1341 27.7845 40.1487 27.8261 40.1621C27.8557 40.1714 27.886 40.179 27.9165 40.1864C27.943 40.1928 27.9697 40.199 27.9969 40.2038C28.0236 40.2085 28.0507 40.2124 28.078 40.2155C28.1167 40.22 28.1559 40.2231 28.1957 40.224C28.2087 40.2244 28.2215 40.2258 28.2347 40.2258C28.2555 40.2257 28.2759 40.2238 28.2966 40.2226C28.3216 40.2217 28.3464 40.22 28.3711 40.2178C29.0238 40.1447 29.5403 39.5825 29.5403 38.8975Z" fill="#5D5B5B"/>
<path d="M47.2019 38.2063L44.6628 32.6636C44.6566 32.6504 44.6495 32.6377 44.6432 32.6246C44.6298 32.5968 44.6155 32.5695 44.6018 32.5421C44.5755 32.4902 44.5493 32.4384 44.5214 32.3874C44.513 32.3722 44.504 32.3571 44.4956 32.342C44.0071 31.4691 43.2761 30.7507 42.3986 30.2751C42.398 30.2749 42.3976 30.2746 42.3972 30.2744C42.3285 30.2372 42.2587 30.2018 42.1883 30.1676C42.18 30.1635 42.1718 30.1594 42.1635 30.1554C42.0995 30.1247 42.0345 30.0957 41.9692 30.0675C41.9537 30.0608 41.9381 30.054 41.9224 30.0474C41.8628 30.0225 41.8024 29.9989 41.7418 29.9761C41.7194 29.9678 41.6972 29.9593 41.6748 29.9512C41.6498 29.9422 41.6253 29.9322 41.6001 29.9235C41.5879 29.9194 41.5759 29.9174 41.5637 29.9136C41.044 29.7395 40.4905 29.6437 39.9172 29.6437C37.0411 29.6437 34.6992 31.9857 34.6992 34.8618C34.6992 37.7789 37.0411 40.121 39.9172 40.121C41.6852 40.121 43.2715 39.2225 44.2238 37.8463L44.8757 39.2712C45.084 39.7263 45.5384 40.0182 46.0389 40.0182C46.9709 40.0182 47.5901 39.0535 47.2019 38.2063ZM39.9172 37.553C38.4587 37.553 37.2671 36.3615 37.2671 34.8618C37.2671 33.4031 38.4587 32.2116 39.9172 32.2116C40.2647 32.2116 40.5974 32.281 40.9039 32.4038C40.9266 32.4128 40.9494 32.4215 40.9718 32.4311C41.04 32.4607 41.1069 32.4924 41.1721 32.5273C41.1775 32.5301 41.183 32.5329 41.1884 32.5358C42.0174 32.9867 42.5879 33.8613 42.5879 34.8618C42.5879 36.3615 41.3758 37.553 39.9172 37.553Z" fill="#181818"/>
<path d="M47.2047 38.2064L44.6655 32.6637C44.6594 32.6505 44.6523 32.6378 44.6459 32.6247C44.9737 33.3032 45.1586 34.0617 45.1586 34.8619C45.1586 35.9728 44.8123 36.9997 44.2266 37.8464L44.8785 39.2713C45.0868 39.7264 45.5412 40.0183 46.0417 40.0183C46.9737 40.0183 47.5929 39.0536 47.2047 38.2064Z" fill="#888888"/>
<path d="M44.6459 32.6246C44.6325 32.5969 44.6182 32.5697 44.6045 32.5422C44.5782 32.4903 44.552 32.4384 44.5241 32.3875C44.5157 32.3722 44.5067 32.3573 44.4983 32.342C44.0097 31.4712 43.279 30.7515 42.4013 30.2752C42.4007 30.275 42.4003 30.2747 42.3999 30.2745C42.3312 30.2372 42.2614 30.2018 42.191 30.1676C42.1827 30.1636 42.1745 30.1595 42.1662 30.1555C42.1022 30.1247 42.0372 30.0957 41.9719 30.0676C41.9564 30.0609 41.9408 30.054 41.9251 30.0475C41.8655 30.0226 41.8051 29.999 41.7445 29.9762C41.7221 29.9678 41.6999 29.9594 41.6775 29.9513C41.6407 29.9381 41.6034 29.926 41.5664 29.9136C40.7518 29.6614 39.9199 30.2839 39.9199 31.1441C39.9199 31.6957 40.2749 32.179 40.7963 32.3594C40.8339 32.3724 40.8697 32.3893 40.9066 32.4039C40.9293 32.413 40.9522 32.4216 40.9745 32.4312C41.0428 32.4604 41.1093 32.4927 41.1748 32.5273C41.1802 32.5302 41.1857 32.5329 41.1911 32.5359C41.6899 32.8036 42.0999 33.2204 42.3441 33.732L44.2265 37.8463C44.8122 36.9997 45.1586 35.9728 45.1586 34.8618C45.1586 34.0617 44.9736 33.3031 44.6459 32.6246Z" fill="#5D5B5B"/>
<path d="M55.6053 31.1583C56.0893 31.6736 56.0893 32.4543 55.6053 32.9695C55.09 33.4536 54.3093 33.4536 53.794 32.9852C53.3256 32.4855 52.6386 32.2044 51.9203 32.2044C50.4682 32.2044 49.2659 33.3911 49.2659 34.8589C49.2659 36.311 50.4682 37.4977 51.9203 37.4977C52.6386 37.4977 53.3256 37.2167 53.794 36.717C54.3093 36.2486 55.09 36.2486 55.6053 36.7482C56.0893 37.2635 56.0893 38.0442 55.6053 38.5595L55.574 38.5751C54.6372 39.4963 53.3412 40.0741 51.9203 40.0741C49.0472 40.0741 46.7051 37.7319 46.7051 34.8589C46.7051 31.9858 49.0472 29.6437 51.9203 29.6437C53.3412 29.6437 54.6528 30.2058 55.6053 31.1583Z" fill="#181818"/>
<path d="M60.133 31.0333V34.8901C60.133 36.3579 61.3353 37.5445 62.7875 37.5445C64.2553 37.5445 65.4576 36.3579 65.4576 34.8901V31.0333C65.4576 30.3151 66.0353 29.7374 66.7536 29.7374C67.4562 29.7374 68.0339 30.3151 68.0339 31.0333V34.8901C68.0339 37.7788 65.645 40.1209 62.7875 40.1209C60.3673 40.1209 58.3061 38.4346 57.744 36.1861C57.6347 35.4678 57.5723 34.328 57.5723 33.5941V31.0333C57.5723 30.3151 58.1501 29.7374 58.8683 29.7374C59.5709 29.7374 60.133 30.3151 60.133 31.0333Z" fill="#181818"/>
<path d="M82.0808 38.2063L79.5417 32.6636C79.5355 32.6504 79.5284 32.6377 79.5221 32.6246C79.5087 32.5968 79.4944 32.5695 79.4807 32.5421C79.4544 32.4902 79.4282 32.4384 79.4003 32.3874C79.3919 32.3721 79.3829 32.3571 79.3745 32.342C78.886 31.4691 78.155 30.7506 77.2775 30.2751C77.2769 30.2749 77.2765 30.2746 77.2761 30.2744C77.2074 30.2372 77.1376 30.2018 77.0672 30.1676C77.0589 30.1635 77.0507 30.1594 77.0424 30.1554C76.9784 30.1247 76.9134 30.0957 76.8481 30.0675C76.8326 30.0608 76.817 30.054 76.8013 30.0474C76.7417 30.0225 76.6814 29.9989 76.6207 29.9761C76.5983 29.9678 76.5761 29.9593 76.5537 29.9512C76.5287 29.9422 76.5042 29.9322 76.479 29.9235C76.4668 29.9194 76.4548 29.9174 76.4426 29.9135C75.9229 29.7395 75.3694 29.6437 74.7961 29.6437C71.92 29.6437 69.5781 31.9857 69.5781 34.8617C69.5781 37.7789 71.92 40.1209 74.7961 40.1209C76.5641 40.1209 78.1504 39.2225 79.1027 37.8463L79.7546 39.2712C79.9629 39.7263 80.4173 40.0182 80.9178 40.0182C81.8498 40.0182 82.469 39.0535 82.0808 38.2063ZM74.7961 37.553C73.3376 37.553 72.146 36.3615 72.146 34.8617C72.146 33.4031 73.3376 32.2116 74.7961 32.2116C75.1436 32.2116 75.4763 32.281 75.7828 32.4038C75.8055 32.4128 75.8283 32.4215 75.8507 32.4311C75.9189 32.4607 75.9858 32.4924 76.051 32.5273C76.0564 32.5301 76.0619 32.5329 76.0673 32.5358C76.8963 32.9867 77.4668 33.8613 77.4668 34.8617C77.4668 36.3615 76.2547 37.553 74.7961 37.553Z" fill="#181818"/>
<path d="M82.0836 38.2063L79.5445 32.6637C79.5383 32.6505 79.5312 32.6378 79.5249 32.6246C79.8526 33.3031 80.0375 34.0617 80.0375 34.8618C80.0375 35.9728 79.6912 36.9997 79.1055 37.8463L79.7574 39.2713C79.9657 39.7264 80.4201 40.0183 80.9206 40.0183C81.8526 40.0183 82.4718 39.0536 82.0836 38.2063Z" fill="#888888"/>
<path d="M79.5228 32.6247C79.5095 32.597 79.4952 32.5698 79.4814 32.5422C79.4552 32.4903 79.4289 32.4385 79.4011 32.3875C79.3927 32.3723 79.3837 32.3574 79.3752 32.3421C78.8867 31.4712 78.156 30.7516 77.2782 30.2753C77.2777 30.2751 77.2773 30.2748 77.2768 30.2746C77.2081 30.2373 77.1383 30.2019 77.0679 30.1677C77.0597 30.1637 77.0514 30.1596 77.0432 30.1555C76.9791 30.1248 76.9142 30.0958 76.8489 30.0677C76.8333 30.061 76.8177 30.0541 76.8021 30.0475C76.7425 30.0226 76.6821 29.9991 76.6214 29.9763C76.5991 29.9679 76.5769 29.9594 76.5544 29.9514C76.5177 29.9382 76.4804 29.9261 76.4434 29.9137C75.6288 29.6615 74.7969 30.284 74.7969 31.1442C74.7969 31.6958 75.1519 32.1791 75.6733 32.3595C75.7108 32.3725 75.7466 32.3893 75.7836 32.404C75.8063 32.4131 75.8291 32.4216 75.8515 32.4313C75.9198 32.4605 75.9862 32.4928 76.0518 32.5274C76.0572 32.5303 76.0627 32.533 76.0681 32.536C76.5668 32.8037 76.9769 33.2205 77.2211 33.732L79.1034 37.8464C79.6892 36.9998 80.0355 35.9728 80.0355 34.8619C80.0355 34.0618 79.8505 33.3032 79.5228 32.6247Z" fill="#5D5B5B"/>
<path d="M87.0698 37.5516C87.0628 37.5516 87.0561 37.5507 87.0492 37.5507H87.0698C85.6101 37.5507 84.4176 36.3582 84.4176 34.8573V32.308H85.7745C86.4906 32.308 87.0637 31.7378 87.0693 31.023C87.0637 30.3083 86.4906 29.7381 85.7745 29.7381H84.4176V28.2372C84.4176 27.5211 83.8474 26.9481 83.1327 26.9425C82.4179 26.9481 81.8477 27.5211 81.8477 28.2372V34.8573C81.8477 37.7715 84.1831 40.1118 87.0543 40.1201C87.0595 40.12 87.0646 40.1192 87.0698 40.119C87.7726 40.0883 88.3325 39.5282 88.3435 38.8253C88.3325 38.1224 87.7726 37.5625 87.0698 37.5516Z" fill="#181818"/>
<path d="M84.4176 29.7382H83.1326C82.423 29.7382 81.8477 30.3135 81.8477 31.0231C81.8477 31.7328 82.423 32.308 83.1326 32.308H84.4176V29.7382Z" fill="#5D5B5B"/>
<path d="M85.7788 32.3081C86.4949 32.3081 87.068 31.7379 87.0736 31.0231C87.068 30.3084 86.4949 29.7382 85.7788 29.7382H84.4219V32.3081H85.7788Z" fill="#888888"/>
<path d="M89.377 34.8588C89.377 31.9857 91.766 29.6436 94.6234 29.6436C97.4964 29.6436 99.8386 31.9857 99.8386 34.8588C99.8386 37.7787 97.4964 40.1208 94.6234 40.1208C91.766 40.1208 89.377 37.7787 89.377 34.8588ZM94.6234 37.5445C96.0755 37.5445 97.2622 36.3578 97.2622 34.8588C97.2622 33.391 96.0756 32.2043 94.6234 32.2043C93.1556 32.2043 91.9377 33.391 91.9377 34.8588C91.9377 36.3578 93.1556 37.5445 94.6234 37.5445Z" fill="#181818"/>
<path d="M103.944 34.8589V38.7156C103.944 39.4339 103.381 40.0116 102.679 40.0116C101.96 40.0116 101.383 39.4339 101.383 38.7156V34.8589C101.383 31.9858 103.725 29.6437 106.598 29.6437C108.019 29.6437 109.331 30.2058 110.283 31.1583C110.767 31.6735 110.767 32.4543 110.283 32.9695C109.768 33.4536 108.987 33.4536 108.472 32.9851C108.003 32.4855 107.316 32.2044 106.598 32.2044C105.146 32.2044 103.944 33.3911 103.944 34.8589Z" fill="#181818"/>
</g>
<path d="M47 46.1519V44.7918C47 43.7786 47.826 42.9526 48.8392 42.9526C49.8469 42.9526 50.6894 43.7786 50.6894 44.7918V46.1519C50.6894 46.4052 50.4857 46.609 50.2379 46.609C49.9846 46.609 49.7808 46.4052 49.7808 46.1519V44.7918C49.7808 44.2742 49.3568 43.8557 48.8392 43.8557C48.3271 43.8557 47.9031 44.2742 47.9031 44.7918V46.1519C47.9031 46.4052 47.7048 46.609 47.457 46.609C47.2037 46.609 47 46.4052 47 46.1519Z" fill="url(#paint0_linear_1331_827)"/>
<path d="M51.4102 44.7918C51.4102 43.7786 52.2527 42.9526 53.2604 42.9526C54.2736 42.9526 55.0996 43.7786 55.0996 44.7918C55.0996 45.8215 54.2736 46.6475 53.2604 46.6475C52.2527 46.6475 51.4102 45.8215 51.4102 44.7918ZM53.2604 45.7389C53.7725 45.7389 54.191 45.3204 54.191 44.7918C54.191 44.2742 53.7725 43.8557 53.2604 43.8557C52.7428 43.8557 52.3132 44.2742 52.3132 44.7918C52.3132 45.3204 52.7428 45.7389 53.2604 45.7389Z" fill="url(#paint1_linear_1331_827)"/>
<path d="M55.8672 46.1519V44.7918C55.8672 43.7786 56.6932 42.9526 57.7064 42.9526C58.7141 42.9526 59.5566 43.7786 59.5566 44.7918V46.1519C59.5566 46.4052 59.3529 46.609 59.1051 46.609C58.8518 46.609 58.648 46.4052 58.648 46.1519V44.7918C58.648 44.2742 58.224 43.8557 57.7064 43.8557C57.1943 43.8557 56.7703 44.2742 56.7703 44.7918V46.1519C56.7703 46.4052 56.572 46.609 56.3242 46.609C56.0709 46.609 55.8672 46.4052 55.8672 46.1519Z" fill="url(#paint2_linear_1331_827)"/>
<path d="M60.6504 45.7059H61.1405C61.2231 45.7059 61.2892 45.6508 61.3112 45.5792L61.8013 43.7455C61.9335 43.2775 62.3189 42.9856 62.7925 42.9856L63.3376 42.9911C63.5909 42.9911 63.7892 43.1894 63.7947 43.4427C63.7892 43.696 63.5909 43.8942 63.3376 43.8942H62.8475C62.7649 43.8942 62.6989 43.9438 62.6768 44.0154L62.1867 45.8491C62.0546 46.3171 61.6691 46.609 61.1956 46.609L60.6504 46.6035C60.3971 46.6035 60.1989 46.4052 60.1934 46.1519C60.1989 45.8986 60.3971 45.7059 60.6504 45.7059Z" fill="url(#paint3_linear_1331_827)"/>
<path d="M66.285 45.7413C66.2826 45.7413 66.2802 45.741 66.2778 45.741H66.285C65.7702 45.741 65.3497 45.3205 65.3497 44.7912V43.8921H65.8282C66.0808 43.8921 66.2829 43.691 66.2848 43.4389C66.2829 43.1869 66.0808 42.9858 65.8282 42.9858H65.3497V42.4565C65.3497 42.2039 65.1486 42.0019 64.8965 41.9999C64.6445 42.0019 64.4434 42.2039 64.4434 42.4565V44.7912C64.4434 45.8189 65.267 46.6442 66.2796 46.6471C66.2814 46.6471 66.2832 46.6468 66.285 46.6467C66.5329 46.6359 66.7303 46.4384 66.7342 46.1905C66.7303 45.9426 66.5329 45.7452 66.285 45.7413Z" fill="url(#paint4_linear_1331_827)"/>
<path d="M65.3497 42.9858H64.8965C64.6462 42.9858 64.4434 43.1887 64.4434 43.439C64.4434 43.6893 64.6462 43.8921 64.8965 43.8921H65.3497V42.9858Z" fill="#606060"/>
<path d="M65.8282 43.8921C66.0807 43.8921 66.2828 43.691 66.2848 43.4389C66.2828 43.1869 66.0807 42.9858 65.8282 42.9858H65.3496V43.8921H65.8282Z" fill="#9D9D9D"/>
<path d="M67.3203 44.7918C67.3203 43.7786 68.1628 42.9526 69.1706 42.9526C70.1838 42.9526 71.0098 43.7786 71.0098 44.7918C71.0098 45.8215 70.1838 46.6475 69.1706 46.6475C68.1628 46.6475 67.3203 45.8215 67.3203 44.7918ZM69.1706 45.7389C69.6827 45.7389 70.1012 45.3204 70.1012 44.7918C70.1012 44.2742 69.6827 43.8557 69.1706 43.8557C68.6529 43.8557 68.2234 44.2742 68.2234 44.7918C68.2234 45.3204 68.6529 45.7389 69.1706 45.7389Z" fill="url(#paint5_linear_1331_827)"/>
<path d="M73.6295 46.6475C73.2856 46.6475 72.9609 46.5512 72.6824 46.3841V47.1376C72.6824 47.4112 72.4511 47.627 72.1758 47.5907C71.9453 47.5601 71.7793 47.352 71.7793 47.1194V44.8179C71.7793 44.8167 71.7794 44.8154 71.7794 44.8142C71.7794 44.8122 71.7793 44.8103 71.7793 44.8083C71.7793 43.7786 72.6218 42.9526 73.6295 42.9526C74.6428 42.9526 75.4687 43.7786 75.4687 44.8083C75.4687 45.8215 74.6428 46.6475 73.6295 46.6475ZM73.6295 43.8612C73.539 43.8612 73.4513 43.8747 73.368 43.8986C73.3502 43.9075 73.332 43.9159 73.313 43.9225C72.9726 44.0414 72.7186 44.3537 72.6861 44.7349C72.6851 44.7479 72.6846 44.7611 72.6841 44.7743C72.6835 44.787 72.6827 44.7996 72.6826 44.8125C72.6849 45.3281 73.1133 45.7444 73.6295 45.7444C74.1416 45.7444 74.5602 45.3259 74.5602 44.8083C74.5602 44.2797 74.1416 43.8612 73.6295 43.8612Z" fill="url(#paint6_linear_1331_827)"/>
<path d="M72.6824 46.3841V47.1376C72.6824 47.4112 72.4511 47.627 72.1758 47.5906C71.9453 47.5601 71.7793 47.352 71.7793 47.1194V44.8179C71.7793 44.8167 71.7794 44.8154 71.7794 44.8142C71.7816 45.4791 72.1465 46.0626 72.6824 46.3841Z" fill="#9D9D9D"/>
<path d="M73.0424 43.0548C73.3256 42.9608 73.6184 43.1691 73.6184 43.4675V43.5067C73.6184 43.677 73.5176 43.8242 73.3678 43.8985C72.9972 44.0051 72.7168 44.332 72.686 44.7347C72.6849 44.7478 72.6846 44.761 72.684 44.7742C72.6835 44.7856 72.6822 44.7967 72.6822 44.8082C72.6822 44.8096 72.6825 44.8109 72.6825 44.8123C72.6824 44.8142 72.6822 44.816 72.6822 44.8178V46.384C72.1463 46.0626 71.7815 45.479 71.7793 44.8141C71.7809 43.9903 72.311 43.2975 73.0424 43.0548Z" fill="#606060"/>
<defs>
<linearGradient id="paint0_linear_1331_827" x1="47" y1="44.1056" x2="64.792" y2="44.1056" gradientUnits="userSpaceOnUse">
<stop stop-color="#181818"/>
<stop offset="0.0238095" stop-color="#1B1B1B"/>
<stop offset="0.047619" stop-color="#1E1D1D"/>
<stop offset="0.0714286" stop-color="#212020"/>
<stop offset="0.0952381" stop-color="#232323"/>
<stop offset="0.119048" stop-color="#262526"/>
<stop offset="0.142857" stop-color="#292828"/>
<stop offset="0.166667" stop-color="#2C2B2B"/>
<stop offset="0.190476" stop-color="#2F2E2E"/>
<stop offset="0.214286" stop-color="#323131"/>
<stop offset="0.238095" stop-color="#363434"/>
<stop offset="0.261905" stop-color="#393737"/>
<stop offset="0.285714" stop-color="#3C393A"/>
<stop offset="0.309524" stop-color="#3F3C3D"/>
<stop offset="0.333333" stop-color="#423F40"/>
<stop offset="0.357143" stop-color="#454243"/>
<stop offset="0.380952" stop-color="#494546"/>
<stop offset="0.404762" stop-color="#4C4849"/>
<stop offset="0.428571" stop-color="#4F4C4C"/>
<stop offset="0.452381" stop-color="#534F4F"/>
<stop offset="0.47619" stop-color="#565252"/>
<stop offset="0.5" stop-color="#595555"/>
<stop offset="0.52381" stop-color="#5D5859"/>
<stop offset="0.547619" stop-color="#605B5C"/>
<stop offset="0.571429" stop-color="#645E5F"/>
<stop offset="0.595238" stop-color="#676262"/>
<stop offset="0.619048" stop-color="#6B6565"/>
<stop offset="0.642857" stop-color="#6E6869"/>
<stop offset="0.666667" stop-color="#726B6C"/>
<stop offset="0.690476" stop-color="#756F6F"/>
<stop offset="0.714286" stop-color="#797273"/>
<stop offset="0.738095" stop-color="#7C7576"/>
<stop offset="0.761905" stop-color="#807979"/>
<stop offset="0.785714" stop-color="#847C7D"/>
<stop offset="0.809524" stop-color="#877F80"/>
<stop offset="0.833333" stop-color="#8B8384"/>
<stop offset="0.857143" stop-color="#8F8687"/>
<stop offset="0.880952" stop-color="#928A8B"/>
<stop offset="0.904762" stop-color="#968D8E"/>
<stop offset="0.928571" stop-color="#9A9191"/>
<stop offset="0.952381" stop-color="#9D9495"/>
<stop offset="0.97619" stop-color="#A19898"/>
<stop offset="1" stop-color="#A59B9C"/>
</linearGradient>
<linearGradient id="paint1_linear_1331_827" x1="48.6536" y1="44.1056" x2="66.4456" y2="44.1056" gradientUnits="userSpaceOnUse">
<stop stop-color="#181818"/>
<stop offset="0.0238095" stop-color="#1B1B1B"/>
<stop offset="0.047619" stop-color="#1E1D1D"/>
<stop offset="0.0714286" stop-color="#212020"/>
<stop offset="0.0952381" stop-color="#232323"/>
<stop offset="0.119048" stop-color="#262526"/>
<stop offset="0.142857" stop-color="#292828"/>
<stop offset="0.166667" stop-color="#2C2B2B"/>
<stop offset="0.190476" stop-color="#2F2E2E"/>
<stop offset="0.214286" stop-color="#323131"/>
<stop offset="0.238095" stop-color="#363434"/>
<stop offset="0.261905" stop-color="#393737"/>
<stop offset="0.285714" stop-color="#3C393A"/>
<stop offset="0.309524" stop-color="#3F3C3D"/>
<stop offset="0.333333" stop-color="#423F40"/>
<stop offset="0.357143" stop-color="#454243"/>
<stop offset="0.380952" stop-color="#494546"/>
<stop offset="0.404762" stop-color="#4C4849"/>
<stop offset="0.428571" stop-color="#4F4C4C"/>
<stop offset="0.452381" stop-color="#534F4F"/>
<stop offset="0.47619" stop-color="#565252"/>
<stop offset="0.5" stop-color="#595555"/>
<stop offset="0.52381" stop-color="#5D5859"/>
<stop offset="0.547619" stop-color="#605B5C"/>
<stop offset="0.571429" stop-color="#645E5F"/>
<stop offset="0.595238" stop-color="#676262"/>
<stop offset="0.619048" stop-color="#6B6565"/>
<stop offset="0.642857" stop-color="#6E6869"/>
<stop offset="0.666667" stop-color="#726B6C"/>
<stop offset="0.690476" stop-color="#756F6F"/>
<stop offset="0.714286" stop-color="#797273"/>
<stop offset="0.738095" stop-color="#7C7576"/>
<stop offset="0.761905" stop-color="#807979"/>
<stop offset="0.785714" stop-color="#847C7D"/>
<stop offset="0.809524" stop-color="#877F80"/>
<stop offset="0.833333" stop-color="#8B8384"/>
<stop offset="0.857143" stop-color="#8F8687"/>
<stop offset="0.880952" stop-color="#928A8B"/>
<stop offset="0.904762" stop-color="#968D8E"/>
<stop offset="0.928571" stop-color="#9A9191"/>
<stop offset="0.952381" stop-color="#9D9495"/>
<stop offset="0.97619" stop-color="#A19898"/>
<stop offset="1" stop-color="#A59B9C"/>
</linearGradient>
<linearGradient id="paint2_linear_1331_827" x1="50.3266" y1="44.1056" x2="68.1186" y2="44.1056" gradientUnits="userSpaceOnUse">
<stop stop-color="#181818"/>
<stop offset="0.0238095" stop-color="#1B1B1B"/>
<stop offset="0.047619" stop-color="#1E1D1D"/>
<stop offset="0.0714286" stop-color="#212020"/>
<stop offset="0.0952381" stop-color="#232323"/>
<stop offset="0.119048" stop-color="#262526"/>
<stop offset="0.142857" stop-color="#292828"/>
<stop offset="0.166667" stop-color="#2C2B2B"/>
<stop offset="0.190476" stop-color="#2F2E2E"/>
<stop offset="0.214286" stop-color="#323131"/>
<stop offset="0.238095" stop-color="#363434"/>
<stop offset="0.261905" stop-color="#393737"/>
<stop offset="0.285714" stop-color="#3C393A"/>
<stop offset="0.309524" stop-color="#3F3C3D"/>
<stop offset="0.333333" stop-color="#423F40"/>
<stop offset="0.357143" stop-color="#454243"/>
<stop offset="0.380952" stop-color="#494546"/>
<stop offset="0.404762" stop-color="#4C4849"/>
<stop offset="0.428571" stop-color="#4F4C4C"/>
<stop offset="0.452381" stop-color="#534F4F"/>
<stop offset="0.47619" stop-color="#565252"/>
<stop offset="0.5" stop-color="#595555"/>
<stop offset="0.52381" stop-color="#5D5859"/>
<stop offset="0.547619" stop-color="#605B5C"/>
<stop offset="0.571429" stop-color="#645E5F"/>
<stop offset="0.595238" stop-color="#676262"/>
<stop offset="0.619048" stop-color="#6B6565"/>
<stop offset="0.642857" stop-color="#6E6869"/>
<stop offset="0.666667" stop-color="#726B6C"/>
<stop offset="0.690476" stop-color="#756F6F"/>
<stop offset="0.714286" stop-color="#797273"/>
<stop offset="0.738095" stop-color="#7C7576"/>
<stop offset="0.761905" stop-color="#807979"/>
<stop offset="0.785714" stop-color="#847C7D"/>
<stop offset="0.809524" stop-color="#877F80"/>
<stop offset="0.833333" stop-color="#8B8384"/>
<stop offset="0.857143" stop-color="#8F8687"/>
<stop offset="0.880952" stop-color="#928A8B"/>
<stop offset="0.904762" stop-color="#968D8E"/>
<stop offset="0.928571" stop-color="#9A9191"/>
<stop offset="0.952381" stop-color="#9D9495"/>
<stop offset="0.97619" stop-color="#A19898"/>
<stop offset="1" stop-color="#A59B9C"/>
</linearGradient>
<linearGradient id="paint3_linear_1331_827" x1="51.9479" y1="44.1179" x2="69.7399" y2="44.1179" gradientUnits="userSpaceOnUse">
<stop stop-color="#181818"/>
<stop offset="0.0238095" stop-color="#1B1B1B"/>
<stop offset="0.047619" stop-color="#1E1D1D"/>
<stop offset="0.0714286" stop-color="#212020"/>
<stop offset="0.0952381" stop-color="#232323"/>
<stop offset="0.119048" stop-color="#262526"/>
<stop offset="0.142857" stop-color="#292828"/>
<stop offset="0.166667" stop-color="#2C2B2B"/>
<stop offset="0.190476" stop-color="#2F2E2E"/>
<stop offset="0.214286" stop-color="#323131"/>
<stop offset="0.238095" stop-color="#363434"/>
<stop offset="0.261905" stop-color="#393737"/>
<stop offset="0.285714" stop-color="#3C393A"/>
<stop offset="0.309524" stop-color="#3F3C3D"/>
<stop offset="0.333333" stop-color="#423F40"/>
<stop offset="0.357143" stop-color="#454243"/>
<stop offset="0.380952" stop-color="#494546"/>
<stop offset="0.404762" stop-color="#4C4849"/>
<stop offset="0.428571" stop-color="#4F4C4C"/>
<stop offset="0.452381" stop-color="#534F4F"/>
<stop offset="0.47619" stop-color="#565252"/>
<stop offset="0.5" stop-color="#595555"/>
<stop offset="0.52381" stop-color="#5D5859"/>
<stop offset="0.547619" stop-color="#605B5C"/>
<stop offset="0.571429" stop-color="#645E5F"/>
<stop offset="0.595238" stop-color="#676262"/>
<stop offset="0.619048" stop-color="#6B6565"/>
<stop offset="0.642857" stop-color="#6E6869"/>
<stop offset="0.666667" stop-color="#726B6C"/>
<stop offset="0.690476" stop-color="#756F6F"/>
<stop offset="0.714286" stop-color="#797273"/>
<stop offset="0.738095" stop-color="#7C7576"/>
<stop offset="0.761905" stop-color="#807979"/>
<stop offset="0.785714" stop-color="#847C7D"/>
<stop offset="0.809524" stop-color="#877F80"/>
<stop offset="0.833333" stop-color="#8B8384"/>
<stop offset="0.857143" stop-color="#8F8687"/>
<stop offset="0.880952" stop-color="#928A8B"/>
<stop offset="0.904762" stop-color="#968D8E"/>
<stop offset="0.928571" stop-color="#9A9191"/>
<stop offset="0.952381" stop-color="#9D9495"/>
<stop offset="0.97619" stop-color="#A19898"/>
<stop offset="1" stop-color="#A59B9C"/>
</linearGradient>
<linearGradient id="paint4_linear_1331_827" x1="53.5412" y1="43.7482" x2="71.3331" y2="43.7482" gradientUnits="userSpaceOnUse">
<stop stop-color="#181818"/>
<stop offset="0.0238095" stop-color="#1B1B1B"/>
<stop offset="0.047619" stop-color="#1E1D1D"/>
<stop offset="0.0714286" stop-color="#212020"/>
<stop offset="0.0952381" stop-color="#232323"/>
<stop offset="0.119048" stop-color="#262526"/>
<stop offset="0.142857" stop-color="#292828"/>
<stop offset="0.166667" stop-color="#2C2B2B"/>
<stop offset="0.190476" stop-color="#2F2E2E"/>
<stop offset="0.214286" stop-color="#323131"/>
<stop offset="0.238095" stop-color="#363434"/>
<stop offset="0.261905" stop-color="#393737"/>
<stop offset="0.285714" stop-color="#3C393A"/>
<stop offset="0.309524" stop-color="#3F3C3D"/>
<stop offset="0.333333" stop-color="#423F40"/>
<stop offset="0.357143" stop-color="#454243"/>
<stop offset="0.380952" stop-color="#494546"/>
<stop offset="0.404762" stop-color="#4C4849"/>
<stop offset="0.428571" stop-color="#4F4C4C"/>
<stop offset="0.452381" stop-color="#534F4F"/>
<stop offset="0.47619" stop-color="#565252"/>
<stop offset="0.5" stop-color="#595555"/>
<stop offset="0.52381" stop-color="#5D5859"/>
<stop offset="0.547619" stop-color="#605B5C"/>
<stop offset="0.571429" stop-color="#645E5F"/>
<stop offset="0.595238" stop-color="#676262"/>
<stop offset="0.619048" stop-color="#6B6565"/>
<stop offset="0.642857" stop-color="#6E6869"/>
<stop offset="0.666667" stop-color="#726B6C"/>
<stop offset="0.690476" stop-color="#756F6F"/>
<stop offset="0.714286" stop-color="#797273"/>
<stop offset="0.738095" stop-color="#7C7576"/>
<stop offset="0.761905" stop-color="#807979"/>
<stop offset="0.785714" stop-color="#847C7D"/>
<stop offset="0.809524" stop-color="#877F80"/>
<stop offset="0.833333" stop-color="#8B8384"/>
<stop offset="0.857143" stop-color="#8F8687"/>
<stop offset="0.880952" stop-color="#928A8B"/>
<stop offset="0.904762" stop-color="#968D8E"/>
<stop offset="0.928571" stop-color="#9A9191"/>
<stop offset="0.952381" stop-color="#9D9495"/>
<stop offset="0.97619" stop-color="#A19898"/>
<stop offset="1" stop-color="#A59B9C"/>
</linearGradient>
<linearGradient id="paint5_linear_1331_827" x1="54.6217" y1="44.1056" x2="72.4137" y2="44.1056" gradientUnits="userSpaceOnUse">
<stop stop-color="#181818"/>
<stop offset="0.0238095" stop-color="#1B1B1B"/>
<stop offset="0.047619" stop-color="#1E1D1D"/>
<stop offset="0.0714286" stop-color="#212020"/>
<stop offset="0.0952381" stop-color="#232323"/>
<stop offset="0.119048" stop-color="#262526"/>
<stop offset="0.142857" stop-color="#292828"/>
<stop offset="0.166667" stop-color="#2C2B2B"/>
<stop offset="0.190476" stop-color="#2F2E2E"/>
<stop offset="0.214286" stop-color="#323131"/>
<stop offset="0.238095" stop-color="#363434"/>
<stop offset="0.261905" stop-color="#393737"/>
<stop offset="0.285714" stop-color="#3C393A"/>
<stop offset="0.309524" stop-color="#3F3C3D"/>
<stop offset="0.333333" stop-color="#423F40"/>
<stop offset="0.357143" stop-color="#454243"/>
<stop offset="0.380952" stop-color="#494546"/>
<stop offset="0.404762" stop-color="#4C4849"/>
<stop offset="0.428571" stop-color="#4F4C4C"/>
<stop offset="0.452381" stop-color="#534F4F"/>
<stop offset="0.47619" stop-color="#565252"/>
<stop offset="0.5" stop-color="#595555"/>
<stop offset="0.52381" stop-color="#5D5859"/>
<stop offset="0.547619" stop-color="#605B5C"/>
<stop offset="0.571429" stop-color="#645E5F"/>
<stop offset="0.595238" stop-color="#676262"/>
<stop offset="0.619048" stop-color="#6B6565"/>
<stop offset="0.642857" stop-color="#6E6869"/>
<stop offset="0.666667" stop-color="#726B6C"/>
<stop offset="0.690476" stop-color="#756F6F"/>
<stop offset="0.714286" stop-color="#797273"/>
<stop offset="0.738095" stop-color="#7C7576"/>
<stop offset="0.761905" stop-color="#807979"/>
<stop offset="0.785714" stop-color="#847C7D"/>
<stop offset="0.809524" stop-color="#877F80"/>
<stop offset="0.833333" stop-color="#8B8384"/>
<stop offset="0.857143" stop-color="#8F8687"/>
<stop offset="0.880952" stop-color="#928A8B"/>
<stop offset="0.904762" stop-color="#968D8E"/>
<stop offset="0.928571" stop-color="#9A9191"/>
<stop offset="0.952381" stop-color="#9D9495"/>
<stop offset="0.97619" stop-color="#A19898"/>
<stop offset="1" stop-color="#A59B9C"/>
</linearGradient>
<linearGradient id="paint6_linear_1331_827" x1="56.2932" y1="44.1056" x2="74.0852" y2="44.1056" gradientUnits="userSpaceOnUse">
<stop stop-color="#181818"/>
<stop offset="0.0238095" stop-color="#1B1B1B"/>
<stop offset="0.047619" stop-color="#1E1D1D"/>
<stop offset="0.0714286" stop-color="#212020"/>
<stop offset="0.0952381" stop-color="#232323"/>
<stop offset="0.119048" stop-color="#262526"/>
<stop offset="0.142857" stop-color="#292828"/>
<stop offset="0.166667" stop-color="#2C2B2B"/>
<stop offset="0.190476" stop-color="#2F2E2E"/>
<stop offset="0.214286" stop-color="#323131"/>
<stop offset="0.238095" stop-color="#363434"/>
<stop offset="0.261905" stop-color="#393737"/>
<stop offset="0.285714" stop-color="#3C393A"/>
<stop offset="0.309524" stop-color="#3F3C3D"/>
<stop offset="0.333333" stop-color="#423F40"/>
<stop offset="0.357143" stop-color="#454243"/>
<stop offset="0.380952" stop-color="#494546"/>
<stop offset="0.404762" stop-color="#4C4849"/>
<stop offset="0.428571" stop-color="#4F4C4C"/>
<stop offset="0.452381" stop-color="#534F4F"/>
<stop offset="0.47619" stop-color="#565252"/>
<stop offset="0.5" stop-color="#595555"/>
<stop offset="0.52381" stop-color="#5D5859"/>
<stop offset="0.547619" stop-color="#605B5C"/>
<stop offset="0.571429" stop-color="#645E5F"/>
<stop offset="0.595238" stop-color="#676262"/>
<stop offset="0.619048" stop-color="#6B6565"/>
<stop offset="0.642857" stop-color="#6E6869"/>
<stop offset="0.666667" stop-color="#726B6C"/>
<stop offset="0.690476" stop-color="#756F6F"/>
<stop offset="0.714286" stop-color="#797273"/>
<stop offset="0.738095" stop-color="#7C7576"/>
<stop offset="0.761905" stop-color="#807979"/>
<stop offset="0.785714" stop-color="#847C7D"/>
<stop offset="0.809524" stop-color="#877F80"/>
<stop offset="0.833333" stop-color="#8B8384"/>
<stop offset="0.857143" stop-color="#8F8687"/>
<stop offset="0.880952" stop-color="#928A8B"/>
<stop offset="0.904762" stop-color="#968D8E"/>
<stop offset="0.928571" stop-color="#9A9191"/>
<stop offset="0.952381" stop-color="#9D9495"/>
<stop offset="0.97619" stop-color="#A19898"/>
<stop offset="1" stop-color="#A59B9C"/>
</linearGradient>
<clipPath id="clip0_1331_827">
<rect width="98.9443" height="17.6005" fill="white" transform="translate(11.7012 26.9427)"/>
</clipPath>
</defs>
</svg>
