<svg width="524" height="94" viewBox="0 0 524 94" fill="none" xmlns="http://www.w3.org/2000/svg">
<g clip-path="url(#clip0_1122_1382)">
<path d="M27.7433 14.3045C12.633 14.3045 0 26.6901 0 41.8823C0 45.6801 3.05554 48.7357 6.85342 48.7357H48.4678C52.2656 48.7357 55.3212 45.6801 55.3212 41.8823C55.3212 26.6901 42.936 14.3045 27.7433 14.3045ZM27.7433 27.8458C32.9908 27.8458 37.5799 30.7791 39.9613 35.1119H15.319C17.7553 30.7791 22.4393 27.8458 27.7433 27.8458Z" fill="#181818"/>
<path d="M43.3266 53.1078C41.0129 51.716 38.115 51.8664 35.9052 53.4174C33.5882 55.0435 30.7682 56.0013 27.7429 56.0017C24.7172 56.0017 21.8972 55.0435 19.5796 53.4168C17.3698 51.8658 14.4719 51.7155 12.1582 53.1072C7.97344 55.625 7.76983 61.6047 11.7551 64.4276C16.2993 67.6462 21.8305 69.5421 27.7419 69.5426C33.6537 69.5426 39.1849 67.6468 43.7297 64.428C47.7149 61.6052 47.5114 55.6255 43.3266 53.1078Z" fill="#181818"/>
<path d="M41.6975 41.8823C41.6975 39.4252 41.0649 37.1188 39.9614 35.1119H15.3191C14.1903 37.1188 13.5415 39.4252 13.5415 41.8823C13.5415 45.6801 10.4866 48.7357 6.85352 48.7357H48.4679C44.7524 48.7357 41.6975 45.6801 41.6975 41.8823Z" fill="#AAA4A5"/>
<path d="M48.4674 35.1119H39.9609C41.0644 37.1188 41.697 39.4252 41.697 41.8823C41.697 45.6802 44.752 48.7357 48.4674 48.7357C52.2652 48.7357 55.3208 45.6802 55.3208 41.8823C55.3208 38.1669 52.2652 35.1119 48.4674 35.1119Z" fill="#5D5B5B"/>
<path d="M13.5414 41.8823C13.5414 39.4252 14.1902 37.1188 15.319 35.1119H6.85342C3.05554 35.1119 0 38.1669 0 41.8823C0 45.6802 3.05554 48.7357 6.85342 48.7357C10.4865 48.7357 13.5414 45.6802 13.5414 41.8823Z" fill="#5D5B5B"/>
<path d="M43.3266 53.1078C41.0129 51.716 38.115 51.8664 35.9052 53.4174C33.5882 55.0435 30.7682 56.0013 27.7429 56.0017C24.7172 56.0017 21.8972 55.0435 19.5796 53.4168C17.3698 51.8658 14.4719 51.7155 12.1582 53.1072C7.97344 55.625 7.76983 61.6047 11.7551 64.4276C16.2993 67.6462 21.8305 69.5421 27.7419 69.5426C33.6537 69.5426 39.1849 67.6468 43.7297 64.428C47.7149 61.6052 47.5114 55.6255 43.3266 53.1078Z" fill="#AAA4A5"/>
<path d="M109.536 15.0485C106.887 15.0485 104.569 16.456 103.327 18.7742L87.554 48.5344L71.8687 18.7742C70.6269 16.456 68.3088 15.0485 65.6599 15.0485C61.7689 15.0485 58.623 18.1943 58.623 22.0029C58.623 23.1614 58.9542 24.3205 59.451 25.231L81.3062 66.6234C81.3321 66.6716 81.3663 66.7148 81.3932 66.7625C82.0946 68.0426 83.2012 69.0581 84.5429 69.6778C84.6096 69.7086 84.6752 69.7411 84.7427 69.7697C84.953 69.8611 85.1706 69.9385 85.3912 70.0091C85.548 70.0585 85.7084 70.0989 85.8699 70.1381C86.0103 70.1717 86.1514 70.2049 86.2955 70.2301C86.4371 70.2553 86.5806 70.2755 86.725 70.2923C86.9302 70.3159 87.1377 70.3322 87.3482 70.3372C87.4046 70.3384 87.4581 70.3489 87.5151 70.3489C87.5285 70.3489 87.5414 70.3467 87.5549 70.3467C87.5692 70.3467 87.5832 70.3489 87.5978 70.3489C87.6942 70.3489 87.787 70.3339 87.8827 70.3299C88.0153 70.3248 88.1468 70.3159 88.2777 70.3041C90.6378 70.0843 92.6658 68.7469 93.7239 66.7064L115.745 25.231C116.241 24.3205 116.572 23.1614 116.572 22.0029C116.572 18.1943 113.427 15.0485 109.536 15.0485Z" fill="#181818"/>
<path d="M109.536 15.0485C106.887 15.0485 104.569 16.456 103.327 18.7742L87.5547 48.5344L93.6419 60.0835C94.2214 61.0771 94.4698 62.1531 94.4698 63.3122C94.4698 66.9397 91.7345 69.9172 88.2784 70.3041C90.6385 70.0843 92.6664 68.7469 93.7246 66.7064L115.745 25.231C116.242 24.3205 116.573 23.1614 116.573 22.0029C116.573 18.1943 113.427 15.0485 109.536 15.0485Z" fill="#AAA4A5"/>
<path d="M94.4686 63.3122C94.4686 62.1531 94.2202 61.0771 93.6407 60.0835L87.5535 48.5344L81.3884 60.1665C80.8916 61.1595 80.5605 62.2362 80.5605 63.4777C80.5605 64.6804 80.8625 65.7946 81.3927 66.7625C82.1017 68.0079 83.1991 69.0453 84.5423 69.6778C84.6091 69.7086 84.6747 69.7411 84.7422 69.7697C84.9525 69.8611 85.1701 69.9385 85.3907 70.0091C85.5475 70.0585 85.7078 70.0989 85.8694 70.1382C86.0098 70.1718 86.1508 70.2049 86.295 70.2301C86.4366 70.2553 86.5801 70.2755 86.7245 70.2923C86.9297 70.3158 87.1372 70.3321 87.3477 70.3372C87.4169 70.3394 87.4846 70.3467 87.5543 70.3467C87.6648 70.3462 87.7727 70.3361 87.8821 70.3298C88.0147 70.3248 88.1462 70.3158 88.2771 70.3041C91.7333 69.9172 94.4686 66.9397 94.4686 63.3122Z" fill="#5D5B5B"/>
<path d="M188.008 59.6511L174.561 30.2979C174.528 30.2279 174.491 30.1606 174.457 30.091C174.386 29.9441 174.311 29.7994 174.238 29.6542C174.099 29.3794 173.96 29.1052 173.812 28.835C173.768 28.7542 173.72 28.6745 173.675 28.5944C171.089 23.9716 167.217 20.1669 162.57 17.6487C162.567 17.6476 162.565 17.6459 162.563 17.6448C162.199 17.448 161.829 17.2601 161.456 17.079C161.412 17.0577 161.369 17.0358 161.325 17.0145C160.986 16.8519 160.642 16.6982 160.296 16.5491C160.214 16.5138 160.131 16.4774 160.048 16.4426C159.733 16.3107 159.413 16.1858 159.092 16.0652C158.973 16.0209 158.856 15.976 158.737 15.9334C158.604 15.8857 158.475 15.8324 158.341 15.7865C158.277 15.7646 158.213 15.754 158.148 15.7338C155.396 14.812 152.465 14.3045 149.429 14.3045C134.197 14.3045 121.795 26.7076 121.795 41.9389C121.795 57.388 134.197 69.791 149.429 69.791C158.792 69.791 167.193 65.0331 172.236 57.7446L175.688 65.291C176.791 67.7011 179.198 69.247 181.849 69.247C186.784 69.247 190.064 64.1381 188.008 59.6511ZM149.429 56.1913C141.705 56.1913 135.394 49.8812 135.394 41.9389C135.394 34.2142 141.705 27.9042 149.429 27.9042C151.269 27.9042 153.031 28.2714 154.654 28.9219C154.774 28.9696 154.895 29.0155 155.014 29.0666C155.375 29.223 155.729 29.3912 156.075 29.5757C156.103 29.5908 156.133 29.6054 156.161 29.6212C160.551 32.0088 163.572 36.6405 163.572 41.9389C163.572 49.8813 157.154 56.1913 149.429 56.1913Z" fill="#181818"/>
<path d="M188.008 59.6512L174.561 30.298C174.529 30.228 174.491 30.1607 174.457 30.0911C176.193 33.6844 177.172 37.7015 177.172 41.939C177.172 47.8224 175.338 53.261 172.236 57.7447L175.689 65.2911C176.792 67.7012 179.199 69.2472 181.849 69.2472C186.785 69.2472 190.064 64.1383 188.008 59.6512Z" fill="#AAA4A5"/>
<path d="M174.458 30.091C174.387 29.9441 174.311 29.7999 174.239 29.6542C174.099 29.3794 173.96 29.1047 173.813 28.8349C173.769 28.7542 173.721 28.6751 173.676 28.5944C171.089 23.9823 167.219 20.171 162.571 17.6487C162.568 17.6476 162.566 17.6459 162.563 17.6448C162.199 17.4474 161.83 17.2601 161.457 17.079C161.413 17.0577 161.37 17.0358 161.326 17.0145C160.987 16.8519 160.643 16.6982 160.297 16.5491C160.214 16.5138 160.132 16.4774 160.049 16.4426C159.733 16.3107 159.414 16.1858 159.092 16.0652C158.974 16.0209 158.856 15.976 158.737 15.9334C158.543 15.8633 158.345 15.7993 158.149 15.7338C153.835 14.3981 149.43 17.6947 149.43 22.2501C149.43 25.1717 151.31 27.7309 154.071 28.6863C154.27 28.7554 154.46 28.8445 154.655 28.9219C154.775 28.9701 154.896 29.0155 155.015 29.0666C155.376 29.2213 155.728 29.3923 156.076 29.5757C156.104 29.5908 156.133 29.6054 156.162 29.6211C158.803 31.0387 160.975 33.2463 162.268 35.9553L172.237 57.7445C175.339 53.2608 177.173 47.8223 177.173 41.9389C177.173 37.7014 176.193 33.6842 174.458 30.091Z" fill="#5D5B5B"/>
<path d="M232.513 22.3256C235.077 25.0544 235.077 29.189 232.513 31.9178C229.785 34.4813 225.65 34.4813 222.921 32.0005C220.44 29.3543 216.802 27.8659 212.998 27.8659C205.308 27.8659 198.94 34.1504 198.94 41.9236C198.94 49.614 205.308 55.8985 212.998 55.8985C216.802 55.8985 220.44 54.41 222.921 51.7639C225.65 49.2831 229.785 49.2831 232.513 51.9293C235.077 54.6581 235.077 58.7927 232.513 61.5216L232.348 61.6043C227.387 66.483 220.523 69.5427 212.998 69.5427C197.783 69.5427 185.379 57.1389 185.379 41.9236C185.379 26.7082 197.783 14.3043 212.998 14.3043C220.523 14.3043 227.469 17.2813 232.513 22.3256Z" fill="#181818"/>
<path d="M256.489 21.6639V42.0887C256.489 49.8619 262.857 56.1464 270.547 56.1464C278.32 56.1464 284.687 49.8619 284.687 42.0887V21.6639C284.687 17.8601 287.747 14.8005 291.551 14.8005C295.272 14.8005 298.331 17.8601 298.331 21.6639V42.0887C298.331 57.3868 285.68 69.7907 270.547 69.7907C257.73 69.7907 246.814 60.8599 243.837 48.9523C243.259 45.1484 242.928 39.112 242.928 35.2253V21.6639C242.928 17.8601 245.988 14.8005 249.791 14.8005C253.512 14.8005 256.489 17.8601 256.489 21.6639Z" fill="#181818"/>
<path d="M372.725 59.6511L359.278 30.2979C359.245 30.2279 359.207 30.1606 359.174 30.091C359.103 29.9441 359.027 29.7994 358.955 29.6542C358.815 29.3794 358.676 29.1052 358.529 28.835C358.485 28.7542 358.437 28.6745 358.392 28.5944C355.805 23.9716 351.934 20.1669 347.287 17.6487C347.284 17.6476 347.282 17.6459 347.279 17.6448C346.915 17.448 346.546 17.2601 346.173 17.079C346.129 17.0577 346.086 17.0358 346.042 17.0145C345.703 16.8519 345.359 16.6982 345.013 16.5491C344.93 16.5138 344.848 16.4774 344.765 16.4426C344.449 16.3107 344.13 16.1858 343.808 16.0652C343.69 16.0209 343.572 15.976 343.453 15.9334C343.321 15.8857 343.192 15.8324 343.058 15.7865C342.994 15.7646 342.93 15.754 342.865 15.7338C340.113 14.812 337.181 14.3045 334.146 14.3045C318.914 14.3045 306.512 26.7076 306.512 41.9389C306.512 57.388 318.914 69.791 334.146 69.791C343.509 69.791 351.909 65.0331 356.953 57.7446L360.405 65.291C361.508 67.7011 363.915 69.247 366.566 69.247C371.501 69.247 374.78 64.1381 372.725 59.6511ZM334.146 56.1913C326.421 56.1913 320.111 49.8812 320.111 41.9389C320.111 34.2142 326.421 27.9042 334.146 27.9042C335.986 27.9042 337.748 28.2714 339.371 28.9219C339.491 28.9696 339.612 29.0155 339.731 29.0666C340.092 29.223 340.446 29.3912 340.792 29.5757C340.82 29.5908 340.849 29.6054 340.878 29.6212C345.268 32.0088 348.289 36.6405 348.289 41.9389C348.289 49.8813 341.87 56.1913 334.146 56.1913Z" fill="#181818"/>
<path d="M372.725 59.6512L359.278 30.298C359.245 30.228 359.208 30.1607 359.174 30.0911C360.91 33.6844 361.889 37.7015 361.889 41.939C361.889 47.8224 360.055 53.261 356.953 57.7447L360.406 65.2911C361.509 67.7012 363.915 69.2472 366.566 69.2472C371.502 69.2472 374.781 64.1383 372.725 59.6512Z" fill="#AAA4A5"/>
<path d="M359.175 30.091C359.104 29.9441 359.028 29.7999 358.955 29.6542C358.816 29.3794 358.677 29.1047 358.53 28.8349C358.485 28.7542 358.438 28.6751 358.393 28.5944C355.806 23.9823 351.936 20.171 347.288 17.6487C347.285 17.6476 347.282 17.6459 347.28 17.6448C346.916 17.4474 346.547 17.2601 346.174 17.079C346.13 17.0577 346.086 17.0358 346.043 17.0145C345.703 16.8519 345.36 16.6982 345.014 16.5491C344.931 16.5138 344.849 16.4774 344.766 16.4426C344.45 16.3107 344.13 16.1858 343.809 16.0652C343.691 16.0209 343.573 15.976 343.454 15.9334C343.26 15.8633 343.062 15.7993 342.866 15.7338C338.552 14.3981 334.146 17.6947 334.146 22.2501C334.146 25.1717 336.027 27.7309 338.788 28.6863C338.987 28.7554 339.176 28.8445 339.372 28.9219C339.492 28.9701 339.613 29.0155 339.731 29.0666C340.093 29.2213 340.445 29.3923 340.792 29.5757C340.821 29.5908 340.85 29.6054 340.879 29.6211C343.52 31.0387 345.692 33.2463 346.985 35.9553L356.953 57.7445C360.056 53.2608 361.89 47.8223 361.89 41.9389C361.89 37.7014 360.91 33.6842 359.175 30.091Z" fill="#5D5B5B"/>
<path d="M399.158 56.1847C399.121 56.1847 399.085 56.1796 399.049 56.1796H399.158C391.427 56.1796 385.112 49.8646 385.112 41.916V28.415H392.298C396.09 28.415 399.126 25.3955 399.155 21.6099C399.126 17.8249 396.09 14.8053 392.298 14.8053H385.112V6.85675C385.112 3.06439 382.092 0.0297397 378.307 -3.8147e-06C374.522 0.0297397 371.502 3.06439 371.502 6.85675V41.916C371.502 57.3494 383.87 69.7429 399.076 69.7871C399.103 69.7865 399.13 69.7821 399.158 69.781C402.88 69.6189 405.845 66.6526 405.903 62.9298C405.845 59.2076 402.88 56.2424 399.158 56.1847Z" fill="#181818"/>
<path d="M385.112 14.805H378.307C374.549 14.805 371.502 17.8518 371.502 21.61C371.502 25.3683 374.549 28.4148 378.307 28.4148H385.112V14.805Z" fill="#5D5B5B"/>
<path d="M392.298 28.4148C396.09 28.4148 399.125 25.3953 399.154 21.6097C399.125 17.8247 396.09 14.805 392.298 14.805H385.111V28.4148H392.298Z" fill="#AAA4A5"/>
<path d="M411.357 41.9236C411.357 26.7082 424.009 14.3045 439.142 14.3045C454.357 14.3045 466.761 26.7082 466.761 41.9236C466.761 57.3869 454.357 69.7908 439.142 69.7908C424.009 69.7908 411.357 57.3869 411.357 41.9236ZM439.142 56.1465C446.832 56.1465 453.117 49.862 453.117 41.9236C453.117 34.1505 446.833 27.8659 439.142 27.8659C431.369 27.8659 424.919 34.1505 424.919 41.9236C424.919 49.862 431.369 56.1465 439.142 56.1465Z" fill="#181818"/>
<path d="M488.503 41.9236V62.3485C488.503 66.1523 485.526 69.2119 481.805 69.2119C478.001 69.2119 474.941 66.1523 474.941 62.3485V41.9236C474.941 26.7082 487.345 14.3045 502.56 14.3045C510.085 14.3045 517.032 17.2815 522.076 22.3256C524.639 25.0544 524.639 29.189 522.076 31.9178C519.347 34.4813 515.212 34.4813 512.484 32.0005C510.003 29.3544 506.364 27.8659 502.56 27.8659C494.87 27.8659 488.503 34.1504 488.503 41.9236Z" fill="#181818"/>
<path d="M407.672 87.315V81.757C407.672 77.6166 411.047 74.2414 415.188 74.2414C419.305 74.2414 422.748 77.6166 422.748 81.757V87.315C422.748 88.3501 421.916 89.1826 420.903 89.1826C419.868 89.1826 419.035 88.3501 419.035 87.315V81.757C419.035 79.6418 417.303 77.9317 415.188 77.9317C413.095 77.9317 411.362 79.6418 411.362 81.757V87.315C411.362 88.3501 410.552 89.1826 409.54 89.1826C408.504 89.1826 407.672 88.3501 407.672 87.315Z" fill="url(#paint0_linear_1122_1382)"/>
<path d="M425.695 81.7571C425.695 77.6167 429.138 74.2414 433.256 74.2414C437.396 74.2414 440.772 77.6167 440.772 81.7571C440.772 85.9649 437.396 89.3402 433.256 89.3402C429.138 89.3402 425.695 85.9649 425.695 81.7571ZM433.256 85.6274C435.349 85.6274 437.059 83.9173 437.059 81.7571C437.059 79.6419 435.349 77.9317 433.256 77.9317C431.141 77.9317 429.386 79.6419 429.386 81.7571C429.386 83.9173 431.141 85.6274 433.256 85.6274Z" fill="url(#paint1_linear_1122_1382)"/>
<path d="M443.896 87.315V81.7571C443.896 77.6167 447.272 74.2414 451.412 74.2414C455.53 74.2414 458.973 77.6167 458.973 81.7571V87.315C458.973 88.3501 458.14 89.1827 457.128 89.1827C456.093 89.1827 455.26 88.3501 455.26 87.315V81.7571C455.26 79.6418 453.527 77.9317 451.412 77.9317C449.319 77.9317 447.587 79.6418 447.587 81.7571V87.315C447.587 88.3501 446.777 89.1827 445.764 89.1827C444.729 89.1827 443.896 88.3501 443.896 87.315Z" fill="url(#paint2_linear_1122_1382)"/>
<path d="M463.45 85.4923H465.452C465.79 85.4923 466.06 85.2673 466.15 84.9748L468.152 77.4816C468.693 75.569 470.268 74.3764 472.203 74.3764L474.431 74.3989C475.466 74.3989 476.276 75.209 476.298 76.244C476.276 77.2791 475.466 78.0892 474.431 78.0892H472.428C472.09 78.0892 471.82 78.2917 471.73 78.5842L469.728 86.0774C469.188 87.9901 467.612 89.1826 465.677 89.1826L463.45 89.1601C462.415 89.1601 461.604 88.3501 461.582 87.315C461.604 86.2799 462.415 85.4923 463.45 85.4923Z" fill="url(#paint3_linear_1122_1382)"/>
<path d="M486.477 85.6378C486.467 85.6378 486.457 85.6364 486.447 85.6364H486.477C484.373 85.6364 482.655 83.9179 482.655 81.755V78.0811H484.61C485.642 78.0811 486.468 77.2595 486.476 76.2294C486.468 75.1994 485.642 74.3777 484.61 74.3777H482.655V72.2148C482.655 71.1828 481.833 70.357 480.803 70.3489C479.773 70.357 478.951 71.1828 478.951 72.2148V81.755C478.951 85.9547 482.317 89.3272 486.455 89.3392C486.462 89.3391 486.469 89.3379 486.477 89.3376C487.49 89.2934 488.297 88.4863 488.312 87.4732C488.297 86.4604 487.49 85.6535 486.477 85.6378Z" fill="url(#paint4_linear_1122_1382)"/>
<path d="M482.655 74.3776H480.803C479.78 74.3776 478.951 75.2067 478.951 76.2294C478.951 77.2521 479.78 78.0811 480.803 78.0811H482.655V74.3776Z" fill="#606060"/>
<path d="M484.61 78.0811C485.642 78.0811 486.468 77.2594 486.476 76.2293C486.468 75.1993 485.642 74.3776 484.61 74.3776H482.654V78.0811H484.61Z" fill="#9D9D9D"/>
<path d="M490.697 81.7571C490.697 77.6167 494.14 74.2414 498.258 74.2414C502.398 74.2414 505.774 77.6167 505.774 81.7571C505.774 85.9649 502.398 89.3402 498.258 89.3402C494.14 89.3402 490.697 85.9649 490.697 81.7571ZM498.258 85.6274C500.351 85.6274 502.061 83.9173 502.061 81.7571C502.061 79.6419 500.351 77.9317 498.258 77.9317C496.143 77.9317 494.388 79.6419 494.388 81.7571C494.388 83.9173 496.143 85.6274 498.258 85.6274Z" fill="url(#paint5_linear_1122_1382)"/>
<path d="M516.483 89.3403C515.077 89.3403 513.75 88.9465 512.612 88.2638V91.3428C512.612 92.461 511.667 93.3428 510.542 93.1942C509.6 93.0695 508.922 92.2188 508.922 91.2685V81.8639C508.922 81.8588 508.922 81.8537 508.922 81.8485C508.922 81.8404 508.922 81.8327 508.922 81.8246C508.922 77.6168 512.365 74.2414 516.483 74.2414C520.623 74.2414 523.998 77.6168 523.998 81.8246C523.998 85.9649 520.623 89.3403 516.483 89.3403ZM516.483 77.9543C516.112 77.9543 515.754 78.0094 515.414 78.1074C515.341 78.1435 515.267 78.1777 515.189 78.2049C513.798 78.6909 512.76 79.9668 512.627 81.5244C512.623 81.5779 512.621 81.6317 512.619 81.6857C512.617 81.7376 512.613 81.789 512.613 81.8415C512.622 83.9488 514.373 85.6499 516.483 85.6499C518.575 85.6499 520.285 83.9398 520.285 81.8246C520.285 79.6644 518.575 77.9543 516.483 77.9543Z" fill="url(#paint6_linear_1122_1382)"/>
<path d="M512.612 88.2638V91.3428C512.612 92.461 511.667 93.3428 510.542 93.1942C509.6 93.0695 508.922 92.2188 508.922 91.2685V81.864C508.922 81.8588 508.922 81.8537 508.922 81.8485C508.931 84.5657 510.422 86.9503 512.612 88.2638Z" fill="#9D9D9D"/>
<path d="M514.083 74.6595C515.241 74.2754 516.437 75.1269 516.437 76.3462V76.5064C516.437 77.2021 516.025 77.8037 515.413 78.1074C513.899 78.543 512.753 79.8787 512.627 81.5244C512.622 81.5777 512.621 81.6318 512.619 81.6857C512.617 81.7322 512.612 81.7776 512.612 81.8246C512.612 81.8304 512.613 81.8357 512.613 81.8415C512.612 81.849 512.612 81.8565 512.612 81.8639V88.2638C510.422 86.9503 508.931 84.5657 508.922 81.8485C508.929 78.4823 511.095 75.6513 514.083 74.6595Z" fill="#606060"/>
</g>
<defs>
<linearGradient id="paint0_linear_1122_1382" x1="407.672" y1="78.9528" x2="480.376" y2="78.9528" gradientUnits="userSpaceOnUse">
<stop stop-color="#181818"/>
<stop offset="0.0238095" stop-color="#1B1B1B"/>
<stop offset="0.047619" stop-color="#1E1D1D"/>
<stop offset="0.0714286" stop-color="#212020"/>
<stop offset="0.0952381" stop-color="#232323"/>
<stop offset="0.119048" stop-color="#262526"/>
<stop offset="0.142857" stop-color="#292828"/>
<stop offset="0.166667" stop-color="#2C2B2B"/>
<stop offset="0.190476" stop-color="#2F2E2E"/>
<stop offset="0.214286" stop-color="#323131"/>
<stop offset="0.238095" stop-color="#363434"/>
<stop offset="0.261905" stop-color="#393737"/>
<stop offset="0.285714" stop-color="#3C393A"/>
<stop offset="0.309524" stop-color="#3F3C3D"/>
<stop offset="0.333333" stop-color="#423F40"/>
<stop offset="0.357143" stop-color="#454243"/>
<stop offset="0.380952" stop-color="#494546"/>
<stop offset="0.404762" stop-color="#4C4849"/>
<stop offset="0.428571" stop-color="#4F4C4C"/>
<stop offset="0.452381" stop-color="#534F4F"/>
<stop offset="0.47619" stop-color="#565252"/>
<stop offset="0.5" stop-color="#595555"/>
<stop offset="0.52381" stop-color="#5D5859"/>
<stop offset="0.547619" stop-color="#605B5C"/>
<stop offset="0.571429" stop-color="#645E5F"/>
<stop offset="0.595238" stop-color="#676262"/>
<stop offset="0.619048" stop-color="#6B6565"/>
<stop offset="0.642857" stop-color="#6E6869"/>
<stop offset="0.666667" stop-color="#726B6C"/>
<stop offset="0.690476" stop-color="#756F6F"/>
<stop offset="0.714286" stop-color="#797273"/>
<stop offset="0.738095" stop-color="#7C7576"/>
<stop offset="0.761905" stop-color="#807979"/>
<stop offset="0.785714" stop-color="#847C7D"/>
<stop offset="0.809524" stop-color="#877F80"/>
<stop offset="0.833333" stop-color="#8B8384"/>
<stop offset="0.857143" stop-color="#8F8687"/>
<stop offset="0.880952" stop-color="#928A8B"/>
<stop offset="0.904762" stop-color="#968D8E"/>
<stop offset="0.928571" stop-color="#9A9191"/>
<stop offset="0.952381" stop-color="#9D9495"/>
<stop offset="0.97619" stop-color="#A19898"/>
<stop offset="1" stop-color="#A59B9C"/>
</linearGradient>
<linearGradient id="paint1_linear_1122_1382" x1="414.431" y1="78.9529" x2="487.135" y2="78.9529" gradientUnits="userSpaceOnUse">
<stop stop-color="#181818"/>
<stop offset="0.0238095" stop-color="#1B1B1B"/>
<stop offset="0.047619" stop-color="#1E1D1D"/>
<stop offset="0.0714286" stop-color="#212020"/>
<stop offset="0.0952381" stop-color="#232323"/>
<stop offset="0.119048" stop-color="#262526"/>
<stop offset="0.142857" stop-color="#292828"/>
<stop offset="0.166667" stop-color="#2C2B2B"/>
<stop offset="0.190476" stop-color="#2F2E2E"/>
<stop offset="0.214286" stop-color="#323131"/>
<stop offset="0.238095" stop-color="#363434"/>
<stop offset="0.261905" stop-color="#393737"/>
<stop offset="0.285714" stop-color="#3C393A"/>
<stop offset="0.309524" stop-color="#3F3C3D"/>
<stop offset="0.333333" stop-color="#423F40"/>
<stop offset="0.357143" stop-color="#454243"/>
<stop offset="0.380952" stop-color="#494546"/>
<stop offset="0.404762" stop-color="#4C4849"/>
<stop offset="0.428571" stop-color="#4F4C4C"/>
<stop offset="0.452381" stop-color="#534F4F"/>
<stop offset="0.47619" stop-color="#565252"/>
<stop offset="0.5" stop-color="#595555"/>
<stop offset="0.52381" stop-color="#5D5859"/>
<stop offset="0.547619" stop-color="#605B5C"/>
<stop offset="0.571429" stop-color="#645E5F"/>
<stop offset="0.595238" stop-color="#676262"/>
<stop offset="0.619048" stop-color="#6B6565"/>
<stop offset="0.642857" stop-color="#6E6869"/>
<stop offset="0.666667" stop-color="#726B6C"/>
<stop offset="0.690476" stop-color="#756F6F"/>
<stop offset="0.714286" stop-color="#797273"/>
<stop offset="0.738095" stop-color="#7C7576"/>
<stop offset="0.761905" stop-color="#807979"/>
<stop offset="0.785714" stop-color="#847C7D"/>
<stop offset="0.809524" stop-color="#877F80"/>
<stop offset="0.833333" stop-color="#8B8384"/>
<stop offset="0.857143" stop-color="#8F8687"/>
<stop offset="0.880952" stop-color="#928A8B"/>
<stop offset="0.904762" stop-color="#968D8E"/>
<stop offset="0.928571" stop-color="#9A9191"/>
<stop offset="0.952381" stop-color="#9D9495"/>
<stop offset="0.97619" stop-color="#A19898"/>
<stop offset="1" stop-color="#A59B9C"/>
</linearGradient>
<linearGradient id="paint2_linear_1122_1382" x1="421.256" y1="78.9528" x2="493.96" y2="78.9528" gradientUnits="userSpaceOnUse">
<stop stop-color="#181818"/>
<stop offset="0.0238095" stop-color="#1B1B1B"/>
<stop offset="0.047619" stop-color="#1E1D1D"/>
<stop offset="0.0714286" stop-color="#212020"/>
<stop offset="0.0952381" stop-color="#232323"/>
<stop offset="0.119048" stop-color="#262526"/>
<stop offset="0.142857" stop-color="#292828"/>
<stop offset="0.166667" stop-color="#2C2B2B"/>
<stop offset="0.190476" stop-color="#2F2E2E"/>
<stop offset="0.214286" stop-color="#323131"/>
<stop offset="0.238095" stop-color="#363434"/>
<stop offset="0.261905" stop-color="#393737"/>
<stop offset="0.285714" stop-color="#3C393A"/>
<stop offset="0.309524" stop-color="#3F3C3D"/>
<stop offset="0.333333" stop-color="#423F40"/>
<stop offset="0.357143" stop-color="#454243"/>
<stop offset="0.380952" stop-color="#494546"/>
<stop offset="0.404762" stop-color="#4C4849"/>
<stop offset="0.428571" stop-color="#4F4C4C"/>
<stop offset="0.452381" stop-color="#534F4F"/>
<stop offset="0.47619" stop-color="#565252"/>
<stop offset="0.5" stop-color="#595555"/>
<stop offset="0.52381" stop-color="#5D5859"/>
<stop offset="0.547619" stop-color="#605B5C"/>
<stop offset="0.571429" stop-color="#645E5F"/>
<stop offset="0.595238" stop-color="#676262"/>
<stop offset="0.619048" stop-color="#6B6565"/>
<stop offset="0.642857" stop-color="#6E6869"/>
<stop offset="0.666667" stop-color="#726B6C"/>
<stop offset="0.690476" stop-color="#756F6F"/>
<stop offset="0.714286" stop-color="#797273"/>
<stop offset="0.738095" stop-color="#7C7576"/>
<stop offset="0.761905" stop-color="#807979"/>
<stop offset="0.785714" stop-color="#847C7D"/>
<stop offset="0.809524" stop-color="#877F80"/>
<stop offset="0.833333" stop-color="#8B8384"/>
<stop offset="0.857143" stop-color="#8F8687"/>
<stop offset="0.880952" stop-color="#928A8B"/>
<stop offset="0.904762" stop-color="#968D8E"/>
<stop offset="0.928571" stop-color="#9A9191"/>
<stop offset="0.952381" stop-color="#9D9495"/>
<stop offset="0.97619" stop-color="#A19898"/>
<stop offset="1" stop-color="#A59B9C"/>
</linearGradient>
<linearGradient id="paint3_linear_1122_1382" x1="427.888" y1="79.0034" x2="500.592" y2="79.0034" gradientUnits="userSpaceOnUse">
<stop stop-color="#181818"/>
<stop offset="0.0238095" stop-color="#1B1B1B"/>
<stop offset="0.047619" stop-color="#1E1D1D"/>
<stop offset="0.0714286" stop-color="#212020"/>
<stop offset="0.0952381" stop-color="#232323"/>
<stop offset="0.119048" stop-color="#262526"/>
<stop offset="0.142857" stop-color="#292828"/>
<stop offset="0.166667" stop-color="#2C2B2B"/>
<stop offset="0.190476" stop-color="#2F2E2E"/>
<stop offset="0.214286" stop-color="#323131"/>
<stop offset="0.238095" stop-color="#363434"/>
<stop offset="0.261905" stop-color="#393737"/>
<stop offset="0.285714" stop-color="#3C393A"/>
<stop offset="0.309524" stop-color="#3F3C3D"/>
<stop offset="0.333333" stop-color="#423F40"/>
<stop offset="0.357143" stop-color="#454243"/>
<stop offset="0.380952" stop-color="#494546"/>
<stop offset="0.404762" stop-color="#4C4849"/>
<stop offset="0.428571" stop-color="#4F4C4C"/>
<stop offset="0.452381" stop-color="#534F4F"/>
<stop offset="0.47619" stop-color="#565252"/>
<stop offset="0.5" stop-color="#595555"/>
<stop offset="0.52381" stop-color="#5D5859"/>
<stop offset="0.547619" stop-color="#605B5C"/>
<stop offset="0.571429" stop-color="#645E5F"/>
<stop offset="0.595238" stop-color="#676262"/>
<stop offset="0.619048" stop-color="#6B6565"/>
<stop offset="0.642857" stop-color="#6E6869"/>
<stop offset="0.666667" stop-color="#726B6C"/>
<stop offset="0.690476" stop-color="#756F6F"/>
<stop offset="0.714286" stop-color="#797273"/>
<stop offset="0.738095" stop-color="#7C7576"/>
<stop offset="0.761905" stop-color="#807979"/>
<stop offset="0.785714" stop-color="#847C7D"/>
<stop offset="0.809524" stop-color="#877F80"/>
<stop offset="0.833333" stop-color="#8B8384"/>
<stop offset="0.857143" stop-color="#8F8687"/>
<stop offset="0.880952" stop-color="#928A8B"/>
<stop offset="0.904762" stop-color="#968D8E"/>
<stop offset="0.928571" stop-color="#9A9191"/>
<stop offset="0.952381" stop-color="#9D9495"/>
<stop offset="0.97619" stop-color="#A19898"/>
<stop offset="1" stop-color="#A59B9C"/>
</linearGradient>
<linearGradient id="paint4_linear_1122_1382" x1="434.401" y1="77.4932" x2="507.105" y2="77.4932" gradientUnits="userSpaceOnUse">
<stop stop-color="#181818"/>
<stop offset="0.0238095" stop-color="#1B1B1B"/>
<stop offset="0.047619" stop-color="#1E1D1D"/>
<stop offset="0.0714286" stop-color="#212020"/>
<stop offset="0.0952381" stop-color="#232323"/>
<stop offset="0.119048" stop-color="#262526"/>
<stop offset="0.142857" stop-color="#292828"/>
<stop offset="0.166667" stop-color="#2C2B2B"/>
<stop offset="0.190476" stop-color="#2F2E2E"/>
<stop offset="0.214286" stop-color="#323131"/>
<stop offset="0.238095" stop-color="#363434"/>
<stop offset="0.261905" stop-color="#393737"/>
<stop offset="0.285714" stop-color="#3C393A"/>
<stop offset="0.309524" stop-color="#3F3C3D"/>
<stop offset="0.333333" stop-color="#423F40"/>
<stop offset="0.357143" stop-color="#454243"/>
<stop offset="0.380952" stop-color="#494546"/>
<stop offset="0.404762" stop-color="#4C4849"/>
<stop offset="0.428571" stop-color="#4F4C4C"/>
<stop offset="0.452381" stop-color="#534F4F"/>
<stop offset="0.47619" stop-color="#565252"/>
<stop offset="0.5" stop-color="#595555"/>
<stop offset="0.52381" stop-color="#5D5859"/>
<stop offset="0.547619" stop-color="#605B5C"/>
<stop offset="0.571429" stop-color="#645E5F"/>
<stop offset="0.595238" stop-color="#676262"/>
<stop offset="0.619048" stop-color="#6B6565"/>
<stop offset="0.642857" stop-color="#6E6869"/>
<stop offset="0.666667" stop-color="#726B6C"/>
<stop offset="0.690476" stop-color="#756F6F"/>
<stop offset="0.714286" stop-color="#797273"/>
<stop offset="0.738095" stop-color="#7C7576"/>
<stop offset="0.761905" stop-color="#807979"/>
<stop offset="0.785714" stop-color="#847C7D"/>
<stop offset="0.809524" stop-color="#877F80"/>
<stop offset="0.833333" stop-color="#8B8384"/>
<stop offset="0.857143" stop-color="#8F8687"/>
<stop offset="0.880952" stop-color="#928A8B"/>
<stop offset="0.904762" stop-color="#968D8E"/>
<stop offset="0.928571" stop-color="#9A9191"/>
<stop offset="0.952381" stop-color="#9D9495"/>
<stop offset="0.97619" stop-color="#A19898"/>
<stop offset="1" stop-color="#A59B9C"/>
</linearGradient>
<linearGradient id="paint5_linear_1122_1382" x1="438.807" y1="78.9529" x2="511.511" y2="78.9529" gradientUnits="userSpaceOnUse">
<stop stop-color="#181818"/>
<stop offset="0.0238095" stop-color="#1B1B1B"/>
<stop offset="0.047619" stop-color="#1E1D1D"/>
<stop offset="0.0714286" stop-color="#212020"/>
<stop offset="0.0952381" stop-color="#232323"/>
<stop offset="0.119048" stop-color="#262526"/>
<stop offset="0.142857" stop-color="#292828"/>
<stop offset="0.166667" stop-color="#2C2B2B"/>
<stop offset="0.190476" stop-color="#2F2E2E"/>
<stop offset="0.214286" stop-color="#323131"/>
<stop offset="0.238095" stop-color="#363434"/>
<stop offset="0.261905" stop-color="#393737"/>
<stop offset="0.285714" stop-color="#3C393A"/>
<stop offset="0.309524" stop-color="#3F3C3D"/>
<stop offset="0.333333" stop-color="#423F40"/>
<stop offset="0.357143" stop-color="#454243"/>
<stop offset="0.380952" stop-color="#494546"/>
<stop offset="0.404762" stop-color="#4C4849"/>
<stop offset="0.428571" stop-color="#4F4C4C"/>
<stop offset="0.452381" stop-color="#534F4F"/>
<stop offset="0.47619" stop-color="#565252"/>
<stop offset="0.5" stop-color="#595555"/>
<stop offset="0.52381" stop-color="#5D5859"/>
<stop offset="0.547619" stop-color="#605B5C"/>
<stop offset="0.571429" stop-color="#645E5F"/>
<stop offset="0.595238" stop-color="#676262"/>
<stop offset="0.619048" stop-color="#6B6565"/>
<stop offset="0.642857" stop-color="#6E6869"/>
<stop offset="0.666667" stop-color="#726B6C"/>
<stop offset="0.690476" stop-color="#756F6F"/>
<stop offset="0.714286" stop-color="#797273"/>
<stop offset="0.738095" stop-color="#7C7576"/>
<stop offset="0.761905" stop-color="#807979"/>
<stop offset="0.785714" stop-color="#847C7D"/>
<stop offset="0.809524" stop-color="#877F80"/>
<stop offset="0.833333" stop-color="#8B8384"/>
<stop offset="0.857143" stop-color="#8F8687"/>
<stop offset="0.880952" stop-color="#928A8B"/>
<stop offset="0.904762" stop-color="#968D8E"/>
<stop offset="0.928571" stop-color="#9A9191"/>
<stop offset="0.952381" stop-color="#9D9495"/>
<stop offset="0.97619" stop-color="#A19898"/>
<stop offset="1" stop-color="#A59B9C"/>
</linearGradient>
<linearGradient id="paint6_linear_1122_1382" x1="445.641" y1="78.9529" x2="518.345" y2="78.9529" gradientUnits="userSpaceOnUse">
<stop stop-color="#181818"/>
<stop offset="0.0238095" stop-color="#1B1B1B"/>
<stop offset="0.047619" stop-color="#1E1D1D"/>
<stop offset="0.0714286" stop-color="#212020"/>
<stop offset="0.0952381" stop-color="#232323"/>
<stop offset="0.119048" stop-color="#262526"/>
<stop offset="0.142857" stop-color="#292828"/>
<stop offset="0.166667" stop-color="#2C2B2B"/>
<stop offset="0.190476" stop-color="#2F2E2E"/>
<stop offset="0.214286" stop-color="#323131"/>
<stop offset="0.238095" stop-color="#363434"/>
<stop offset="0.261905" stop-color="#393737"/>
<stop offset="0.285714" stop-color="#3C393A"/>
<stop offset="0.309524" stop-color="#3F3C3D"/>
<stop offset="0.333333" stop-color="#423F40"/>
<stop offset="0.357143" stop-color="#454243"/>
<stop offset="0.380952" stop-color="#494546"/>
<stop offset="0.404762" stop-color="#4C4849"/>
<stop offset="0.428571" stop-color="#4F4C4C"/>
<stop offset="0.452381" stop-color="#534F4F"/>
<stop offset="0.47619" stop-color="#565252"/>
<stop offset="0.5" stop-color="#595555"/>
<stop offset="0.52381" stop-color="#5D5859"/>
<stop offset="0.547619" stop-color="#605B5C"/>
<stop offset="0.571429" stop-color="#645E5F"/>
<stop offset="0.595238" stop-color="#676262"/>
<stop offset="0.619048" stop-color="#6B6565"/>
<stop offset="0.642857" stop-color="#6E6869"/>
<stop offset="0.666667" stop-color="#726B6C"/>
<stop offset="0.690476" stop-color="#756F6F"/>
<stop offset="0.714286" stop-color="#797273"/>
<stop offset="0.738095" stop-color="#7C7576"/>
<stop offset="0.761905" stop-color="#807979"/>
<stop offset="0.785714" stop-color="#847C7D"/>
<stop offset="0.809524" stop-color="#877F80"/>
<stop offset="0.833333" stop-color="#8B8384"/>
<stop offset="0.857143" stop-color="#8F8687"/>
<stop offset="0.880952" stop-color="#928A8B"/>
<stop offset="0.904762" stop-color="#968D8E"/>
<stop offset="0.928571" stop-color="#9A9191"/>
<stop offset="0.952381" stop-color="#9D9495"/>
<stop offset="0.97619" stop-color="#A19898"/>
<stop offset="1" stop-color="#A59B9C"/>
</linearGradient>
<clipPath id="clip0_1122_1382">
<rect width="523.998" height="93.2105" fill="white"/>
</clipPath>
</defs>
</svg>
