<svg width="37" height="29" viewBox="0 0 37 29" fill="none" xmlns="http://www.w3.org/2000/svg">
<path d="M5.13372 1.40002H12.6004M7.00039 17.2667H14.4671M23.8004 1.40002H31.2671M21.9337 17.2667H29.4004M25.6671 13.5334V21M7.37372 27.5334H29.0271C31.1179 27.5334 32.1634 27.5334 32.962 27.1264C33.6644 26.7686 34.2356 26.1974 34.5935 25.495C35.0004 24.6964 35.0004 23.6509 35.0004 21.56V12.9734C35.0004 10.8825 35.0004 9.83706 34.5935 9.03846C34.2356 8.33598 33.6644 7.76485 32.962 7.40694C32.1634 7.00002 31.1179 7.00002 29.0271 7.00002H7.37372C5.28287 7.00002 4.23743 7.00002 3.43883 7.40694C2.73635 7.76485 2.16522 8.33598 1.80731 9.03846C1.40039 9.83706 1.40039 10.8825 1.40039 12.9734V21.56C1.40039 23.6509 1.40039 24.6964 1.80731 25.495C2.16522 26.1974 2.73635 26.7686 3.43883 27.1264C4.23743 27.5334 5.28285 27.5334 7.37372 27.5334Z" stroke="black" stroke-opacity="0.8" stroke-width="2" stroke-linecap="round" stroke-linejoin="round"/>
</svg>
