<svg width="50" height="28" viewBox="0 0 50 28" fill="none" xmlns="http://www.w3.org/2000/svg">
<path d="M48.8799 17.572C48.8799 17.1328 48.8799 16.6937 48.8799 16.2544C48.6634 16.2544 48.447 16.2544 48.2305 16.2544C48.231 16.6935 48.2311 17.1327 48.2316 17.572C48.4478 17.572 48.6639 17.572 48.8799 17.572Z" fill="#929496"/>
<path d="M6.71225 3.02197C6.6995 3.02459 6.69558 3.0259 6.71225 3.02197Z" fill="#272525"/>
<path d="M31.1769 12.6228H29.9492C29.7516 12.6228 29.5898 12.7844 29.5898 12.9822C29.5898 13.1798 29.7515 13.3416 29.9492 13.3416H31.1769C31.3745 13.3416 31.5363 13.1799 31.5363 12.9822C31.5362 12.7846 31.3745 12.6228 31.1769 12.6228Z" fill="#272525"/>
<path d="M27.0265 12.6228H25.7988C25.6013 12.6228 25.4395 12.7844 25.4395 12.9822C25.4395 13.1798 25.6011 13.3416 25.7988 13.3416H27.0265C27.2241 13.3416 27.3859 13.1799 27.3859 12.9822C27.3859 12.7846 27.2243 12.6228 27.0265 12.6228Z" fill="#272525"/>
<path d="M11.8358 20.3442C10.3047 19.7722 8.49047 20.2598 7.45251 21.5216C6.39772 22.8039 6.2289 24.6504 7.09018 26.0838C7.94837 27.5121 9.62796 28.2388 11.2575 27.93C13.098 27.5812 14.4118 25.9032 14.4335 24.0558C14.4141 22.4009 13.3885 20.9243 11.8358 20.3442ZM11.5221 26.9281C10.2918 27.3602 8.90477 26.9766 8.08761 25.9545C7.29088 24.9578 7.21962 23.5286 7.88594 22.4475C8.54718 21.3745 9.86102 20.7994 11.098 21.0638C12.5132 21.3663 13.5181 22.6135 13.5351 24.0558C13.5203 25.3211 12.732 26.5032 11.5221 26.9281Z" fill="#272525"/>
<path d="M11.2131 22.2476C10.5076 21.9788 9.67262 22.2035 9.18935 22.7804C8.70003 23.3647 8.61913 24.2162 9.00631 24.8773C9.39348 25.5382 10.1619 25.878 10.9114 25.7488C11.7641 25.6019 12.356 24.8506 12.4016 24.0094C12.4034 23.9926 12.4046 23.9753 12.4041 23.957C12.4047 23.9343 12.4029 23.9128 12.4 23.8926C12.3565 23.1563 11.912 22.514 11.2131 22.2476ZM10.5806 25.1066C9.95307 25.1066 9.4309 24.5846 9.4309 23.9568C9.4309 23.3291 9.9529 22.8071 10.5806 22.8071C11.2208 22.8071 11.7134 23.3292 11.7304 23.9568C11.7134 24.5842 11.2208 25.1066 10.5806 25.1066Z" fill="#272525"/>
<path d="M37.8885 20.3442C36.3575 19.7722 34.5432 20.2598 33.5052 21.5216C32.4505 22.8039 32.2816 24.6504 33.1429 26.0838C34.0011 27.5121 35.6807 28.2388 37.3103 27.93C39.1507 27.5812 40.4645 25.9032 40.4863 24.0558C40.4668 22.4009 39.4413 20.9243 37.8885 20.3442ZM37.575 26.9281C36.3447 27.3602 34.9577 26.9766 34.1405 25.9545C33.3438 24.9578 33.2725 23.5286 33.9388 22.4475C34.6001 21.3745 35.9141 20.7994 37.1509 21.0638C38.5661 21.3663 39.571 22.6135 39.588 24.0558C39.5732 25.3211 38.7849 26.5032 37.575 26.9281Z" fill="#272525"/>
<path d="M37.2639 22.2476C36.5584 21.9788 35.7234 22.2035 35.2402 22.7804C34.7508 23.3647 34.6699 24.2162 35.057 24.8773C35.4441 25.5382 36.2126 25.878 36.9621 25.7488C37.8147 25.6019 38.4067 24.8506 38.4523 24.0094C38.4541 23.9926 38.4554 23.9753 38.4547 23.957C38.4554 23.9343 38.4536 23.9128 38.4506 23.8926C38.4075 23.1563 37.9628 22.514 37.2639 22.2476ZM36.6316 25.1066C36.004 25.1066 35.4819 24.5846 35.4819 23.9568C35.4819 23.3291 36.0039 22.8071 36.6316 22.8071C37.2718 22.8071 37.7644 23.3292 37.7814 23.9568C37.7644 24.5842 37.2718 25.1066 36.6316 25.1066Z" fill="#272525"/>
<path d="M49.0289 15.9559C48.7618 15.9559 48.4948 15.9559 48.2277 15.9559C48.2249 15.7495 48.2222 15.5432 48.2194 15.337C48.3655 15.3383 48.5126 15.3325 48.6487 15.2938C49.0995 15.1654 49.3984 14.7138 49.3517 14.2506C49.3002 13.7404 48.8725 13.392 48.376 13.3681C48.1501 13.3681 47.9241 13.3681 47.6982 13.3681C47.6033 12.7641 47.3377 12.1924 46.7768 11.8778C46.6214 11.7905 46.4417 11.7204 46.2564 11.6776C46.1592 11.2302 46.0513 10.7855 45.9295 10.3441C45.9107 10.2763 45.8821 10.2204 45.8468 10.1751C45.3673 7.91599 44.5781 5.68645 43.1924 3.84113C43.1728 3.77985 43.1383 3.72788 43.0938 3.68555C42.6506 2.91284 41.8861 2.44444 41.0445 2.23672C41.5659 1.26789 40.8512 0.0923297 39.7613 0.00620089C39.7397 0.00342254 39.7176 0.00145273 39.6941 0.00145273C38.5002 0.00145273 37.3062 0.00145273 36.1123 0.00145273C33.3062 0.00145273 30.5002 0.00145273 27.6941 0.00145273C24.4488 0.00145273 21.2034 0.00145273 17.9579 0.00145273C15.4197 0.00145273 12.8816 0.00145273 10.3433 0.00145273C9.69856 0.00145273 9.05399 0.00145273 8.40925 0.00145273C8.30775 0.00145273 8.20577 -0.00181591 8.10428 0.00145273C7.02857 0.0359369 6.27645 1.12538 6.69729 2.12199C5.96642 2.18884 5.46959 2.86855 5.10317 3.44318C4.39617 4.55174 3.91061 5.81572 3.47768 7.05144C3.16797 7.93528 2.88278 8.83693 2.66378 9.75117C2.39837 10.6077 2.1524 11.4798 2.01447 12.3659C1.98832 12.5339 1.9638 12.7031 1.9504 12.8727C1.94713 12.9144 1.94435 12.9562 1.94288 12.9981C1.94681 12.9406 1.95727 12.9469 1.95318 12.9796C1.93716 13.1076 1.90627 13.2354 1.8829 13.3622C1.71065 14.3006 1.53986 15.2394 1.36597 16.1775C1.34685 16.2803 1.33116 16.3836 1.31792 16.487C1.03011 16.487 0.742146 16.487 0.454342 16.487C0.373443 16.487 0.304638 16.5557 0.304638 16.6367C0.304638 17.1118 0.304638 17.5871 0.304638 18.0622C0.304638 18.1431 0.373279 18.2119 0.454342 18.2119C0.723188 18.2119 0.992034 18.2119 1.26104 18.2119C1.26251 18.3319 1.26399 18.4517 1.2648 18.5713H0V19.5594H1.25843C1.25925 20.3352 1.31432 21.1012 1.71767 21.8028C2.16564 22.5821 2.92282 23.1678 3.78444 23.4184C4.371 23.5888 4.98093 23.5568 5.58415 23.5568C5.76442 23.5568 5.98522 23.4185 6.01725 23.227C6.29443 21.5737 7.45251 20.1747 9.05791 19.6517C10.6917 19.1196 12.5294 19.5301 13.751 20.7472C14.4299 21.4235 14.8535 22.2848 15.0114 23.227C15.0435 23.4185 15.2623 23.5568 15.4445 23.5568C17.2748 23.5568 19.1051 23.5568 20.9354 23.5568C23.8634 23.5568 26.7915 23.5568 29.7195 23.5568C30.3884 23.5568 31.0574 23.5568 31.7263 23.5568C31.9066 23.5568 32.1274 23.4185 32.1594 23.227C32.4366 21.5737 33.5947 20.1747 35.2 19.6517C36.8339 19.1196 38.6714 19.5301 39.8932 20.7472C40.5721 21.4235 40.9957 22.2848 41.1536 23.227C41.1858 23.4185 41.4044 23.5568 41.5867 23.5568C42.2294 23.5568 42.8721 23.5568 43.5148 23.5568C44.2504 23.5568 45.0393 23.6253 45.7511 23.4071C46.9414 23.0421 47.9139 22.0375 48.1594 20.8046C48.2397 20.4017 48.2503 19.9799 48.2457 19.5596H49.1085V18.5714H48.2317C48.2317 18.3386 48.2312 18.1057 48.231 17.8728C48.4969 17.8728 48.7628 17.8728 49.0287 17.8728C49.0727 17.8728 49.106 17.8568 49.13 17.8327C49.1318 17.8313 49.1335 17.8295 49.1351 17.828C49.1359 17.827 49.1369 17.826 49.1379 17.8251C49.1622 17.801 49.1786 17.7675 49.1786 17.7231C49.1786 17.1841 49.1786 16.6451 49.1786 16.1061C49.1786 16.0247 49.1099 15.9559 49.0289 15.9559ZM1.25712 17.9122C1.03927 17.9122 0.821574 17.9122 0.603719 17.9122C0.603719 17.5368 0.603719 17.1614 0.603719 16.7861C0.83138 16.7861 1.05904 16.7861 1.28654 16.7861C1.25614 17.1596 1.25369 17.5361 1.25712 17.9122ZM45.9892 12.5424C46.0248 12.5483 46.0109 12.5455 45.9892 12.5424ZM7.51217 1.30173C7.63245 0.993169 7.92107 0.90083 8.21738 0.899522C8.72222 0.897234 9.22722 0.899522 9.73223 0.899522C12.0258 0.899522 14.3196 0.899522 16.6132 0.899522C19.7377 0.899522 22.8621 0.899522 25.9866 0.899522C28.8803 0.899522 31.7739 0.899522 34.6676 0.899522C36.2689 0.899522 37.8702 0.899522 39.4717 0.899522C39.5457 0.899522 39.6199 0.899522 39.6939 0.899522C40.4271 0.926652 40.4943 1.88436 39.9165 2.11006C39.8471 2.11104 39.7779 2.11317 39.709 2.11725C39.0257 2.11725 38.3424 2.11725 37.6589 2.11725C35.9241 2.11725 34.1892 2.11725 32.4544 2.11725C30.1157 2.11725 27.777 2.11725 25.4382 2.11725C22.9727 2.11725 20.5072 2.11725 18.0416 2.11725C15.8977 2.11725 13.7538 2.11725 11.6101 2.11725C10.3819 2.11725 9.15368 2.11725 7.92565 2.11725C7.59633 2.00579 7.36704 1.6737 7.51217 1.30173ZM46.9061 18.571H46.3937V19.5591H46.7354C46.5501 20.0392 46.2319 20.4575 45.7609 20.7567C45.073 21.1936 44.3379 21.1602 43.5629 21.1602C42.9319 21.1602 42.3007 21.1602 41.6697 21.1602C41.2529 19.3661 39.9007 17.8824 38.1462 17.2931C36.2509 16.6564 34.0913 17.178 32.6811 18.5888C32.0831 19.1869 31.6346 19.926 31.3756 20.7283C31.3269 20.8703 31.2837 21.0143 31.2473 21.1602C29.5621 21.1602 27.877 21.1602 26.1918 21.1602C23.3319 21.1602 20.472 21.1602 17.612 21.1602C17.0774 21.1602 16.5426 21.1602 16.0079 21.1602C15.5911 19.3661 14.2387 17.8824 12.4844 17.2931C10.5891 16.6564 8.42951 17.178 7.01942 18.5888C6.42142 19.1869 5.97296 19.9261 5.71376 20.7284C5.6644 20.8724 5.6206 21.0185 5.58383 21.1664C5.31547 21.1725 5.04401 21.1754 4.78415 21.1355C4.14857 21.038 3.56331 20.6967 3.16192 20.1947C2.99931 19.9913 2.88474 19.7787 2.80352 19.5589H3.09508V18.5708H2.62129C2.60511 18.2688 2.61165 17.9601 2.61165 17.6492C2.61165 16.8611 2.54677 16.0433 2.62358 15.2577C2.64139 15.0753 2.6664 14.8928 2.69565 14.7102C2.72376 14.5701 2.75302 14.4309 2.7777 14.2931C2.8076 14.1267 2.83768 13.9604 2.86758 13.7938C2.92299 13.522 2.97921 13.2512 3.02758 12.9821C3.07236 12.734 3.11257 12.4852 3.15163 12.2362C3.18775 12.0472 3.22109 11.8578 3.23939 11.6672C3.33663 11.0371 3.43862 10.4082 3.59192 9.78909C3.59845 9.76294 3.60205 9.73793 3.6045 9.71325C3.69324 9.36907 3.78885 9.02652 3.89067 8.68609C4.2731 7.40609 4.72074 6.13278 5.30779 4.93122C5.54656 4.44256 5.80708 3.95162 6.13917 3.51885C6.13983 3.51803 6.24508 3.39071 6.30113 3.33041C6.36912 3.25735 6.4407 3.18806 6.51735 3.12416C6.52095 3.12122 6.52373 3.11877 6.52618 3.11664C6.53124 3.11386 6.53762 3.1101 6.54677 3.10454C6.5775 3.08591 6.60888 3.06744 6.63944 3.04832C6.64418 3.04538 6.64777 3.04309 6.65153 3.04064C6.65415 3.0395 6.65758 3.03803 6.66297 3.03541C6.69468 3.02005 6.73227 3.01678 6.7661 3.00828C6.73848 3.01531 6.72132 3.0194 6.71135 3.02169C6.72622 3.01875 6.75237 3.01433 6.77084 3.01514C6.80025 3.01629 6.83 3.01514 6.85942 3.01514C6.97987 3.01498 7.10048 3.01514 7.22093 3.01514C7.41623 3.01514 7.6117 3.01514 7.807 3.01514C7.92516 3.04015 8.04675 3.05404 8.17031 3.05502C8.33668 3.0565 8.50322 3.05502 8.66959 3.05502C9.42204 3.05502 10.1743 3.05502 10.9266 3.05502C13.5905 3.05502 16.2545 3.05502 18.9184 3.05502C22.1711 3.05502 25.4239 3.05502 28.6765 3.05502C31.371 3.05502 34.0653 3.05502 36.7598 3.05502C37.5306 3.05502 38.3012 3.05502 39.0719 3.05502C39.3748 3.05502 39.6743 3.05732 39.9551 3.00796C40.9125 3.00698 41.9011 3.33694 42.3695 4.2319C42.3916 4.27423 42.4203 4.30986 42.4535 4.3396C42.5257 4.43488 42.6926 4.66729 42.7884 4.81062C42.9315 5.02471 43.0665 5.24404 43.1945 5.46729C43.4969 5.99485 43.7623 6.54496 43.9889 7.10913C44.6453 8.74247 45.0423 10.4699 45.3015 12.2076C45.3276 12.3831 45.5576 12.5565 45.7346 12.5374C45.8066 12.5295 45.8789 12.5348 45.9511 12.5379C45.9573 12.538 45.9666 12.5392 45.9761 12.5405C46.0088 12.5462 46.0415 12.5524 46.0739 12.5603C46.1695 12.5833 46.245 12.6127 46.2499 12.6152C46.4332 12.7046 46.529 12.782 46.6326 12.9494C46.7129 13.079 46.7621 13.221 46.7931 13.3678C46.7616 13.3678 46.7299 13.3678 46.6983 13.3678C46.4627 13.3678 46.229 13.3526 46.0062 13.4467C45.6069 13.6154 45.3601 14.0395 45.4142 14.4698C45.47 14.9125 45.8249 15.2675 46.2675 15.3232C46.4643 15.3479 46.6701 15.3324 46.8676 15.3324C46.8797 15.3324 46.8918 15.3324 46.9041 15.3324C46.9087 16.412 46.9167 17.4917 46.9061 18.571ZM48.8792 17.5729C48.6631 17.5729 48.4471 17.5729 48.231 17.5729C48.2305 17.1337 48.2302 16.6946 48.2297 16.2553C48.4462 16.2553 48.6626 16.2553 48.8792 16.2553C48.8792 16.6944 48.8792 17.1337 48.8792 17.5729Z" fill="#272525"/>
<path d="M28.0934 6.34327C28.0934 5.52496 27.6104 4.76826 26.7671 4.6063C26.4912 4.55335 26.2005 4.57247 25.921 4.57247C25.4219 4.57247 24.9228 4.57247 24.4236 4.57247C23.0366 4.57247 21.6495 4.57247 20.2623 4.57247C19.3801 4.57247 18.4973 4.56267 17.6152 4.57247C16.785 4.58163 16.059 5.15789 15.9451 5.99777C15.8843 6.44655 15.9261 6.92116 15.9261 7.3724C15.9261 8.02776 15.9261 8.68312 15.9261 9.33848C15.9261 9.9744 15.9902 10.5783 16.5248 11.0178C17.2063 11.5783 18.3297 11.3997 19.1546 11.3997C21.5306 11.3997 23.9065 11.3997 26.2825 11.3997C26.3373 11.3997 26.3919 11.3997 26.4466 11.3997C26.4664 11.3997 26.4853 11.3984 26.5038 11.3964C27.4161 11.3373 28.0849 10.616 28.0935 9.69869C28.0986 9.15772 28.0935 8.61644 28.0935 8.07532C28.0933 7.49807 28.0934 6.92067 28.0934 6.34327ZM27.1923 9.83451C27.1494 10.2181 26.822 10.4887 26.4466 10.5015C24.488 10.5015 22.5296 10.5015 20.5711 10.5015C19.6325 10.5015 18.6939 10.5015 17.7554 10.5015C17.3611 10.5015 16.9708 10.3849 16.8515 9.95087C16.7525 9.59034 16.8245 9.13256 16.8245 8.76549C16.8245 8.12762 16.8245 7.48974 16.8245 6.85187C16.8245 6.44198 16.7399 5.92994 17.1007 5.6387C17.3377 5.44749 17.6134 5.47102 17.8947 5.47102C18.3069 5.47102 18.719 5.47102 19.1311 5.47102C21.4456 5.47102 23.7603 5.47102 26.0748 5.47102C26.3407 5.47102 26.6226 5.43915 26.8557 5.59441C27.2625 5.86538 27.1951 6.33852 27.1951 6.76051C27.1951 7.39233 27.1951 8.024 27.1951 8.65583C27.1951 9.04104 27.2353 9.45044 27.1923 9.83451Z" fill="#272525"/>
<path d="M14.8663 6.29098C14.8612 5.66634 14.5728 5.09041 14.0155 4.77972C13.6785 4.59177 13.3206 4.57282 12.9487 4.57282C12.0245 4.57282 11.1002 4.57282 10.176 4.57282C9.39295 4.57282 8.60945 4.56334 7.82661 4.57282C7.2077 4.58033 6.61476 4.8938 6.32712 5.45764C6.13362 5.8368 6.13868 6.22496 6.13868 6.63419C6.13868 7.59011 6.13868 8.54618 6.13868 9.5021C6.13868 9.99076 6.21239 10.444 6.54514 10.8311C6.89031 11.2327 7.37799 11.3981 7.89427 11.4C9.61652 11.4071 11.3388 11.4 13.061 11.4C13.114 11.4 13.1668 11.4 13.2197 11.4C13.239 11.4 13.2576 11.3989 13.2758 11.3969C14.0915 11.3438 14.7669 10.745 14.8557 9.9151C14.8871 9.6219 14.8666 9.31889 14.8666 9.02471C14.8663 8.11341 14.8736 7.20195 14.8663 6.29098ZM13.9022 10.0617C13.78 10.3335 13.5105 10.4917 13.2194 10.5015C11.7022 10.5015 10.1853 10.5015 8.66813 10.5015C8.0935 10.5015 7.1536 10.6541 7.0423 9.8543C7.00929 9.61667 7.03675 9.35926 7.03675 9.12065C7.03675 8.64376 7.03675 8.1667 7.03675 7.6898C7.03675 7.27795 7.03675 6.86626 7.03675 6.45441C7.03675 6.11856 7.06371 5.80216 7.37619 5.59444C7.58947 5.45258 7.82808 5.47105 8.06996 5.47105C8.42429 5.47105 8.77861 5.47105 9.13293 5.47105C10.1055 5.47105 11.0781 5.47105 12.0505 5.47105C12.3758 5.47105 12.701 5.47105 13.0262 5.47105C13.3184 5.47105 13.5986 5.49752 13.8001 5.74725C13.997 5.99141 13.9677 6.28461 13.9677 6.57585C13.9677 7.0163 13.9677 7.45658 13.9677 7.89686C13.9677 8.35676 13.9677 8.81667 13.9677 9.27673C13.9681 9.52548 14.0068 9.82897 13.9022 10.0617Z" fill="#272525"/>
<path d="M42.667 7.90671C42.3721 7.29286 42.0774 6.67918 41.7826 6.06533C41.4417 5.35538 41.1547 4.55259 40.2549 4.46189C39.9865 4.43476 39.7095 4.45306 39.4405 4.45306C38.848 4.45306 38.2558 4.45306 37.6633 4.45306C36.1115 4.45306 34.5597 4.45306 33.0079 4.45306C32.4171 4.45306 31.8265 4.45306 31.2357 4.45306C30.9168 4.45306 30.573 4.42496 30.2592 4.4936C29.6991 4.61617 29.2356 5.04747 29.0547 5.58827C28.9733 5.83178 28.9723 6.08232 28.9723 6.33482C28.9723 7.05 28.9723 7.76518 28.9723 8.48036C28.9723 9.0125 28.8839 9.67048 29.0687 10.1815C29.3297 10.9026 29.9965 11.2777 30.737 11.2803C31.7507 11.2839 32.7644 11.2803 33.778 11.2803C36.3987 11.2803 39.0191 11.2803 41.6398 11.2803C41.6937 11.2803 41.7476 11.2803 41.8017 11.2803C41.8199 11.2803 41.8374 11.2795 41.8542 11.2777C42.8469 11.2264 43.8777 10.4592 43.3792 9.38986C43.1474 8.89287 42.9043 8.40093 42.667 7.90671ZM41.8017 10.3819C39.6801 10.3819 37.5584 10.3819 35.4367 10.3819C34.1547 10.3819 32.8726 10.3819 31.5907 10.3819C31.2901 10.3819 30.9894 10.3842 30.6888 10.3819C30.2002 10.3781 29.8746 10.0514 29.8707 9.56195C29.8615 8.42054 29.8408 7.27309 29.8707 6.13217C29.8841 5.62242 30.2575 5.35308 30.7349 5.35145C31.1108 5.35014 31.4869 5.35145 31.8628 5.35145C34.4633 5.35145 37.0637 5.35145 39.6642 5.35145C39.8765 5.35145 40.2199 5.30177 40.4016 5.42875C40.6791 5.62259 40.795 6.06696 40.9302 6.35852C41.0096 6.52964 41.0936 6.69895 41.1753 6.86892C41.4842 7.51203 41.7929 8.15513 42.1018 8.79824C42.2275 9.05989 42.3532 9.32172 42.4788 9.58337C42.522 9.67309 42.6207 9.80498 42.6328 9.90729C42.672 10.2409 42.0305 10.376 41.8017 10.3819Z" fill="#272525"/>
<path d="M43.6622 7.6385C43.2876 6.85827 42.9129 6.07821 42.5383 5.29799C42.2096 4.6137 41.9654 3.773 41.0739 3.7493C40.6755 3.73884 40.2752 3.7493 39.8768 3.7493C38.0741 3.7493 36.2713 3.7493 34.4686 3.7493C33.39 3.7493 32.311 3.75404 31.2325 3.75404C30.4232 3.75404 29.302 3.54502 28.73 4.26493C28.6581 4.35531 28.6044 4.44847 28.5633 4.54375C28.3262 4.14628 27.8906 3.88839 27.4013 3.87384C25.7191 3.82367 24.0278 3.87384 22.3451 3.87384C20.4533 3.87384 18.5614 3.86567 16.6699 3.87384C16.0554 3.87646 15.5808 4.18763 15.3588 4.67613C15.2562 4.47756 15.108 4.30612 14.8942 4.17815C14.4907 3.9366 13.9981 3.99347 13.5473 3.99347C12.8094 3.99347 12.0715 3.99347 11.3336 3.99347C10.0247 3.99347 8.70942 3.95523 7.40098 3.99347C6.62843 4.01619 5.80032 4.78709 5.59145 5.51094C5.49192 5.85561 5.5501 6.27646 5.5501 6.62849C5.5501 8.23061 5.5501 9.83275 5.5501 11.435C5.5501 11.9582 5.54847 12.4815 5.5501 13.0046C5.55256 13.8229 5.90573 14.5752 6.61519 15.0158C7.13703 15.3399 7.68306 15.3716 8.27812 15.3195C8.97793 15.2582 9.68674 15.2963 10.3746 15.4399C11.6554 15.7075 12.8483 16.329 13.8057 17.2204C14.288 17.6693 14.7036 18.1797 15.054 18.7372C15.0689 18.7609 15.0874 18.7772 15.1073 18.7887C15.1281 18.8017 15.1531 18.8106 15.1833 18.8114C15.2274 18.8127 15.2665 18.7973 15.3016 18.7704C15.4201 18.8791 15.6148 18.985 15.9336 19.0317C16.4162 19.2778 17.0453 19.1966 17.5683 19.1966C18.6164 19.1966 19.6644 19.1966 20.7125 19.1966C22.8133 19.1966 24.9142 19.1966 27.0151 19.1966C27.1452 19.1966 27.2753 19.1966 27.4054 19.1966C27.9532 19.178 28.4091 18.8647 28.6227 18.4038C28.6759 18.5002 28.7436 18.593 28.8317 18.6811C29.1684 19.0178 29.5866 19.0768 30.037 19.0768C30.4431 19.0768 30.8586 19.1034 31.2637 19.0768C31.4612 19.0637 31.4929 18.9462 31.6009 18.7805C31.8155 18.4512 32.0634 18.1452 32.3398 17.8658C32.8621 17.3376 33.4838 16.9099 34.1648 16.6127C34.8592 16.3097 35.6065 16.1548 36.3625 16.1329C36.3669 16.1327 36.3711 16.1318 36.3756 16.1313C37.4101 16.1313 38.4446 16.1313 39.4791 16.1313C40.1002 16.1313 40.7212 16.1313 41.3423 16.1313C41.8236 16.1313 42.3052 16.161 42.7628 15.9778C43.757 15.5795 44.2824 14.5561 44.1574 13.5232C44.1732 13.501 44.1832 13.4727 44.1832 13.4381C44.1832 12.0299 44.136 10.6139 44.1832 9.2068C44.192 8.94465 44.187 8.73497 44.0711 8.4895C43.9366 8.20463 43.7983 7.92189 43.6622 7.6385ZM15.1668 18.3637C13.8492 16.4171 11.7015 15.1374 9.33618 15.0039C8.98365 14.984 8.62966 14.9892 8.27795 15.0201C7.94194 15.0495 7.63256 15.0783 7.30112 14.9894C6.73532 14.8379 6.25237 14.4324 6.01393 13.8958C5.81454 13.4472 5.84935 12.9636 5.84935 12.4866C5.84935 10.9871 5.84935 9.48741 5.84935 7.98792C5.84935 7.37505 5.84935 6.76234 5.84935 6.14947C5.84935 6.03033 5.8433 5.90955 5.84935 5.79057C5.87109 5.36189 6.20253 4.98322 6.5119 4.71486C6.76604 4.49439 7.06708 4.30416 7.41062 4.29288C7.56898 4.28765 7.72833 4.29288 7.8867 4.29288C8.56069 4.29288 9.23485 4.29288 9.90885 4.29288C11.2889 4.29288 12.6689 4.29288 14.0491 4.29288C14.2475 4.29288 14.4351 4.29485 14.6239 4.37673C14.9615 4.52332 15.1656 4.81979 15.2299 5.16283C15.224 5.2202 15.2207 5.2787 15.2206 5.33852C15.2184 5.98342 15.2206 6.62833 15.2206 7.27307C15.2206 9.64758 15.2206 12.0221 15.2206 14.3964C15.2206 15.312 15.2206 16.2274 15.2206 17.1429C15.2206 17.431 15.2093 17.7223 15.247 17.9967C15.2376 18.1245 15.2121 18.2462 15.1668 18.3637ZM27.4051 18.897C25.8768 18.897 24.3486 18.897 22.8203 18.897C20.8431 18.897 18.8661 18.897 16.8889 18.897C16.7053 18.897 16.5079 18.9119 16.3288 18.8688C15.8918 18.7633 15.6239 18.4236 15.5451 18.0161C15.6144 17.333 15.5513 16.4333 15.5513 16.2684C15.5513 14.6808 15.5513 13.0932 15.5513 11.5056C15.5513 9.94879 15.5513 8.39193 15.5513 6.83507C15.5513 6.33105 15.6259 5.69497 15.5169 5.14665C15.5267 5.07703 15.5396 5.00888 15.5576 4.94367C15.8003 4.06686 16.6936 4.17324 17.3929 4.17324C18.3552 4.17324 19.3173 4.17324 20.2796 4.17324C22.4124 4.17324 24.5454 4.17324 26.6781 4.17324C26.8981 4.17324 27.1183 4.17145 27.3384 4.17324C27.908 4.17798 28.368 4.54538 28.443 5.10465C28.4341 5.25109 28.4355 5.40079 28.4355 5.55311C28.4355 8.88174 28.4355 12.2105 28.4355 15.5391C28.4355 16.1344 28.4355 16.7294 28.4355 17.3246C28.4355 17.4891 28.437 17.6509 28.4524 17.8077C28.4413 18.4049 28.0149 18.8763 27.4051 18.897ZM43.8887 9.06379C43.8483 9.56831 43.8833 10.0888 43.8833 10.595C43.8833 11.3898 43.8833 12.1845 43.8833 12.9793C43.8833 13.0991 43.8833 13.2189 43.8833 13.3387C43.8541 13.3756 43.8415 13.4269 43.85 13.4765C44.0317 14.5293 43.3799 15.5934 42.3067 15.8016C41.9614 15.8686 41.5629 15.8315 41.2102 15.8315C39.9526 15.8315 38.6948 15.8315 37.4372 15.8315C37.0788 15.8315 36.7204 15.8315 36.362 15.8315C36.3527 15.8315 36.3435 15.8327 36.3347 15.8345C34.2508 15.9038 32.3474 17.0078 31.25 18.7772C30.9602 18.7772 30.6705 18.7772 30.3807 18.7772C30.0089 18.7772 29.5889 18.8295 29.2553 18.6336C28.9047 18.4276 28.7902 18.1253 28.7529 17.7909C28.7544 17.6793 28.7524 17.5673 28.7524 17.4557C28.7524 16.6457 28.7524 15.8356 28.7524 15.0255C28.7524 12.64 28.7524 10.2544 28.7524 7.86894C28.7524 7.09231 28.7524 6.31569 28.7524 5.53906C28.7524 5.39327 28.7596 5.24471 28.7456 5.09942C28.7452 5.09517 28.7443 5.09124 28.7438 5.08699C28.806 4.47118 29.2319 4.05623 29.8996 4.05345C30.4698 4.051 31.0403 4.05983 31.6102 4.04871C32.6934 4.02763 33.7793 4.04871 34.8627 4.04871C36.506 4.04871 38.1493 4.04871 39.7924 4.04871C40.2013 4.04871 40.6103 4.04545 41.0192 4.04871C41.7608 4.0546 41.9434 4.74902 42.2153 5.31547C42.5348 5.98081 42.8543 6.64598 43.1737 7.31131C43.337 7.65142 43.5002 7.99136 43.6635 8.33146C43.7817 8.57677 43.9113 8.7822 43.8887 9.06379Z" fill="#272525"/>
</svg>
