<svg width="51" height="28" viewBox="0 0 51 28" fill="none" xmlns="http://www.w3.org/2000/svg">
<path d="M37.4485 19.8843C35.7473 19.9043 34.2292 20.9584 33.6329 22.5548C33.0448 24.1289 33.5461 25.9938 34.8432 27.061C36.1614 28.1453 38.0598 28.3189 39.5333 27.4335C41.0016 26.5512 41.7487 24.8245 41.431 23.1493C41.0725 21.2574 39.3478 19.9066 37.4485 19.8843ZM39.4007 26.4079C38.3761 27.227 36.9068 27.3002 35.7954 26.6153C34.6923 25.9356 34.101 24.5848 34.3729 23.3132C34.6838 21.8585 35.9659 20.8253 37.4487 20.8079C38.7495 20.8232 39.9647 21.6335 40.4017 22.8772C40.8456 24.1418 40.4514 25.5678 39.4007 26.4079Z" fill="#272525"/>
<path d="M38.8416 22.3332C38.2027 21.7953 37.2717 21.7021 36.5462 22.127C35.8203 22.5522 35.4539 23.3945 35.597 24.2159C35.7575 25.1369 36.5719 25.7762 37.4785 25.8318C37.5016 25.8342 37.5252 25.8359 37.5506 25.8352C37.5818 25.8359 37.6111 25.8337 37.6392 25.8297C38.439 25.7756 39.1322 25.2872 39.419 24.526C39.7066 23.7631 39.4637 22.857 38.8416 22.3332ZM37.5506 24.9117C36.9678 24.896 36.4841 24.4398 36.4841 23.8453C36.4841 23.2624 36.9678 22.7789 37.5506 22.7789C38.1335 22.7789 38.617 23.2624 38.617 23.8453C38.6172 24.4398 38.1333 24.896 37.5506 24.9117Z" fill="#272525"/>
<path d="M11.0969 19.8843C9.39577 19.9043 7.87784 20.9584 7.2813 22.5548C6.69327 24.1289 7.19451 25.9938 8.49159 27.061C9.80985 28.1453 11.708 28.3189 13.1817 27.4335C14.6501 26.5512 15.3971 24.8245 15.0795 23.1493C14.721 21.2574 12.996 19.9066 11.0969 19.8843ZM13.049 26.4079C12.0243 27.227 10.555 27.3002 9.4436 26.6153C8.34052 25.9356 7.74926 24.5848 8.02116 23.3132C8.332 21.8585 9.61415 20.8253 11.0969 20.8079C12.3978 20.8232 13.613 21.6335 14.0499 22.8772C14.4941 24.1418 14.0997 25.5678 13.049 26.4079Z" fill="#272525"/>
<path d="M12.49 22.3332C11.8511 21.7953 10.9201 21.7021 10.1946 22.127C9.46872 22.5522 9.10229 23.3945 9.24543 24.2159C9.40595 25.1369 10.2203 25.7762 11.1269 25.8318C11.15 25.8342 11.1736 25.8359 11.199 25.8352C11.2304 25.8359 11.2595 25.8337 11.2875 25.8297C12.0873 25.7756 12.7804 25.2872 13.0673 24.526C13.355 23.7631 13.1121 22.857 12.49 22.3332ZM11.199 24.9117C10.6162 24.896 10.1326 24.4398 10.1326 23.8453C10.1326 23.2624 10.6162 22.7789 11.199 22.7789C11.7819 22.7789 12.2654 23.2624 12.2654 23.8453C12.2656 24.4398 11.7817 24.896 11.199 24.9117Z" fill="#272525"/>
<path d="M19.7734 5.49554C19.7661 5.30381 19.7258 5.12457 19.659 4.9614C19.6577 4.95818 19.6566 4.95458 19.6553 4.95137C19.6439 4.92433 19.6311 4.89824 19.6184 4.87215C19.6108 4.85626 19.6036 4.84019 19.5953 4.82488C19.5861 4.80748 19.5757 4.79103 19.5658 4.77402C19.5524 4.75095 19.5388 4.72788 19.5242 4.70575C19.5172 4.69517 19.5095 4.68516 19.5021 4.67476C19.4828 4.64734 19.4632 4.62048 19.4424 4.59477C19.4376 4.5891 19.4327 4.58362 19.4278 4.57794C19.403 4.54845 19.3771 4.51971 19.3501 4.49229C19.348 4.49021 19.3457 4.48813 19.3435 4.48586C19.1105 4.25348 18.797 4.10127 18.4361 4.06497C18.4064 4.05967 18.3752 4.05646 18.3417 4.05665C18.3412 4.05665 18.3408 4.05665 18.3404 4.05665C18.34 4.05665 18.3398 4.05665 18.3395 4.05665C15.4704 4.0714 12.6745 5.33218 10.8134 7.52758C10.5897 7.79134 10.3783 8.06664 10.1813 8.35083C9.98729 8.63066 9.76229 8.93016 9.68288 9.26729C9.61027 9.5753 9.66188 9.92264 9.81258 10.2087C9.98256 10.5353 10.2811 10.783 10.6708 10.8032C11.0717 10.824 11.4793 10.8032 11.8805 10.8032C13.6312 10.8032 15.3819 10.8032 17.1324 10.8032C17.5353 10.8032 17.9394 10.8117 18.3421 10.8032C18.947 10.7903 19.5063 10.5438 19.6989 9.92945C19.785 9.65528 19.7734 9.36335 19.7734 9.07954C19.7734 8.13792 19.7734 7.19612 19.7734 6.25451C19.7734 6.00228 19.7831 5.74777 19.7734 5.49554ZM18.8473 9.35635C18.8424 9.70293 18.7613 9.86176 18.3875 9.87367C18.0574 9.88407 17.7257 9.87481 17.3954 9.87481C15.8098 9.87481 14.2242 9.87481 12.6384 9.87481C12.0709 9.87481 11.5033 9.87481 10.9359 9.87481C10.8693 9.87481 10.7837 9.8871 10.7113 9.88048C10.7124 9.87746 10.7105 9.87254 10.7065 9.86668C10.6956 9.84418 10.6379 9.79539 10.612 9.74982C10.6105 9.74717 10.609 9.74434 10.6078 9.7417C10.5657 9.64262 10.5644 9.53106 10.5988 9.43047C10.6905 9.16236 10.9234 8.89916 11.0879 8.67132C12.7562 6.36001 15.5061 4.99958 18.3431 4.9854C18.5715 4.99524 18.7031 5.1051 18.7774 5.26317C18.9182 5.57042 18.8473 6.05616 18.8473 6.35131C18.8473 7.15074 18.8473 7.95035 18.8473 8.74978C18.8473 8.95191 18.8502 9.15422 18.8473 9.35635Z" fill="#272525"/>
<path d="M46.3812 15.2368C45.8238 15.2368 45.3555 15.7054 45.3555 16.2626C45.3555 16.8039 45.797 17.263 46.337 17.2859C46.912 17.3103 47.3416 16.8712 47.4006 16.3261C47.4053 16.3066 47.4081 16.286 47.4068 16.2626C47.4081 16.2393 47.4051 16.2189 47.4007 16.1996C47.344 15.6715 46.9394 15.2368 46.3812 15.2368ZM45.783 16.2624C45.783 15.4889 46.9385 15.4957 46.9797 16.2624C46.9383 17.0289 45.783 17.0357 45.783 16.2624Z" fill="#272525"/>
<path d="M49.148 20.1717C49.1493 19.9688 49.143 19.7652 49.143 19.5644C49.143 18.698 49.1854 17.8205 49.1383 16.9551C49.0517 15.3642 47.9084 14.065 46.423 13.6933C46.2806 13.3717 45.9463 13.135 45.6746 12.9336C45.3327 12.68 44.9646 12.4537 44.577 12.2771C44.5619 12.2701 44.5466 12.2641 44.531 12.2584C44.5108 12.2482 44.4896 12.2385 44.4667 12.2306C41.987 11.3644 39.5072 10.4984 37.0275 9.63227C36.7389 9.53149 36.4506 9.43071 36.162 9.32993C35.47 8.13098 34.778 6.93183 34.086 5.73288C33.7059 5.07432 33.3257 4.41576 32.9456 3.75719C32.4487 2.89632 31.7056 2.27595 30.6682 2.22962C29.6466 2.18405 28.6135 2.22773 27.5913 2.22773C25.6568 2.22773 23.7224 2.22773 21.7877 2.22773C20.5884 2.22773 19.3891 2.22773 18.1897 2.22773C18.1559 2.2196 18.1207 2.21487 18.0844 2.21506C16.3003 2.22281 14.5623 2.68606 12.9602 3.44786C12.0328 2.52042 11.1052 1.59299 10.1777 0.665372C10.2121 0.601652 10.2316 0.528855 10.2316 0.451521C10.2316 0.202126 10.0295 0 9.7801 0C9.5307 0 9.32858 0.202126 9.32858 0.451521C9.32858 0.700917 9.5307 0.903043 9.7801 0.903043C9.86821 0.903043 9.95007 0.877517 10.0197 0.83384C10.9267 1.74066 11.8335 2.64767 12.7405 3.55469C11.8853 3.97917 11.0706 4.48799 10.3106 5.05711C8.27181 6.58393 6.4457 8.56491 5.33524 10.8757C5.07374 11.4196 4.84647 11.9859 4.69615 12.5711C4.62563 12.8459 4.57551 13.1242 4.54091 13.4057C4.52975 13.4963 4.52144 13.587 4.51482 13.678C4.13515 13.7585 3.76929 13.896 3.42932 14.1063C2.71669 14.5468 2.17952 15.2256 1.9097 16.018C1.74369 16.5053 1.73045 17.0069 1.73045 17.5142C1.73045 17.6859 1.72988 17.8576 1.72931 18.0293C1.30842 18.0293 0.887723 18.0293 0.466834 18.0293C0.383639 18.0293 0.312931 18.0998 0.312931 18.1832C0.312931 18.6716 0.312931 19.1602 0.312931 19.6487C0.312931 19.7319 0.38345 19.8027 0.466834 19.8027C0.886967 19.8027 1.3071 19.8027 1.72723 19.8027C1.7278 19.9257 1.72837 20.0488 1.72951 20.1721H0V21.188H1.8526C2.1937 22.4628 3.22058 23.5137 4.55983 23.7767C5.06599 23.8762 5.58463 23.8499 6.0976 23.8499C6.28233 23.8499 6.51036 23.7079 6.54288 23.5109C6.8212 21.8209 7.98195 20.367 9.6277 19.8282C11.2774 19.2882 13.1177 19.7263 14.3363 20.9651C15.0225 21.6628 15.4445 22.549 15.6028 23.5109C15.6353 23.7079 15.861 23.8499 16.048 23.8499C17.9093 23.8499 19.7704 23.8499 21.6317 23.8499C24.5719 23.8499 27.5119 23.8499 30.4521 23.8499C31.1276 23.8499 31.803 23.8499 32.4786 23.8499C32.6633 23.8499 32.8914 23.7079 32.9239 23.5109C33.2022 21.8209 34.363 20.367 36.0087 19.8282C37.6584 19.2882 39.4987 19.7263 40.7173 20.9651C41.4035 21.6628 41.8255 22.549 41.984 23.5109C42.0163 23.7079 42.2422 23.8499 42.4292 23.8499C43.2822 23.8499 44.1353 23.8499 44.9882 23.8499C45.3554 23.8499 45.7232 23.8624 46.0879 23.8124C46.8732 23.7049 47.6127 23.3278 48.1598 22.7528C48.5821 22.3091 48.8744 21.7713 49.0258 21.188H50.4851V20.1721H49.148V20.1717ZM9.78538 0.697893C9.63658 0.697893 9.51595 0.577257 9.51595 0.428452C9.51595 0.279647 9.63658 0.159207 9.78538 0.159207C9.93419 0.159207 10.0548 0.279836 10.0548 0.428452C10.0546 0.577257 9.934 0.697893 9.78538 0.697893ZM1.72591 19.4945C1.35739 19.4945 0.989078 19.4945 0.620564 19.4945C0.620564 19.1085 0.620564 18.7226 0.620564 18.3367C0.989835 18.3367 1.3591 18.3367 1.72837 18.3367C1.72704 18.7226 1.72553 19.1085 1.72591 19.4945ZM32.3807 4.62469C32.5868 4.98186 32.7923 5.33941 32.9984 5.69658C33.3368 6.28311 33.6753 6.86944 34.0137 7.45596C34.3435 8.03474 34.6732 8.6135 35.003 9.19228C35.0242 9.22952 35.0453 9.26659 35.0665 9.30384C35.0357 9.30233 35.0051 9.30062 34.9742 9.29949C34.8684 9.29552 34.6882 9.3167 34.6086 9.29249C34.4484 9.24371 34.3488 9.06011 34.265 8.92699C34.0557 8.59422 33.8662 8.24764 33.6683 7.90805C33.1321 6.98913 32.5939 6.07134 32.0598 5.15109C31.9874 5.02648 31.9095 4.90132 31.8584 4.76594C31.8505 4.74476 31.8388 4.66099 31.825 4.60408C31.8408 4.60143 31.8546 4.59917 31.8609 4.59898C32.0311 4.59142 32.2071 4.60843 32.3807 4.62469ZM5.5332 13.0397C5.63342 12.5825 5.78241 12.133 5.96695 11.7031C6.40542 10.6815 7.01577 9.72114 7.70628 8.85232C9.32782 6.81234 11.4345 5.09568 13.8351 4.05991C15.1461 3.49418 16.558 3.16046 17.987 3.14004C18.0184 3.14703 18.051 3.15101 18.0844 3.15101C20.9768 3.15101 23.8691 3.15101 26.7614 3.15101C28.0044 3.15101 29.2476 3.14609 30.4906 3.15101C31.1101 3.15347 31.6126 3.41704 31.9558 3.90751C31.5775 3.90827 31.219 3.99808 31.1288 4.41803C31.0129 4.95785 31.4876 5.54494 31.7518 5.99759C32.3705 7.05795 32.977 8.12644 33.6082 9.17924C33.8663 9.60958 34.1584 9.97128 34.6901 9.99057C34.9621 10.0004 35.2337 10.011 35.5054 10.025C35.588 10.1261 35.6935 10.174 35.8011 10.18C38.2555 11.0373 40.71 11.8946 43.1644 12.7519C43.4992 12.8689 43.8341 12.9858 44.169 13.1028C44.4577 13.2391 44.7339 13.4023 44.9979 13.5818C45 13.5833 45.002 13.5846 45.0041 13.5861C44.6647 13.5861 44.3253 13.5861 43.9859 13.5861C42.5648 13.5861 41.1437 13.5861 39.7226 13.5861C37.6889 13.5861 35.6553 13.5861 33.6216 13.5861C33.5066 13.5861 33.3918 13.5861 33.2769 13.5861C33.2769 12.3849 33.2769 11.1837 33.2769 9.98263C33.2769 9.91456 33.2769 9.84649 33.2769 9.77823C33.2769 9.75422 33.2712 9.73267 33.262 9.71357C33.1841 9.21289 32.7908 8.71788 32.5423 8.29302C32.0904 7.52044 31.6383 6.74805 31.1864 5.97547C30.8731 5.44 30.563 4.90244 30.2465 4.36886C29.8742 3.74169 29.2887 3.41761 28.5637 3.41534C27.0651 3.41061 25.5665 3.41534 24.0676 3.41534C23.3718 3.41534 22.6758 3.41534 21.9798 3.41534C21.8412 3.41534 21.7007 3.40929 21.5625 3.4229C21.0416 3.47395 20.599 3.83188 20.4235 4.31933C20.3398 4.08355 20.1959 3.86856 19.9476 3.68666C19.3904 3.27825 18.6488 3.38187 18.0003 3.42498C17.279 3.47301 16.5595 3.57265 15.8546 3.73451C13.2697 4.32784 11.0261 5.80663 9.38945 7.88423C8.98558 8.39683 8.61462 8.95139 8.29942 9.50293C8.06553 9.9121 8.03263 10.443 8.06421 10.9182C8.0973 11.4143 8.07706 11.9572 8.07706 12.4686C8.07706 12.8406 8.07366 13.2132 8.06931 13.5861C8.03357 13.5861 7.99784 13.5861 7.96191 13.5861C7.13053 13.5861 6.29916 13.5861 5.46778 13.5861C5.48177 13.4029 5.4935 13.221 5.5332 13.0397ZM31.7569 4.61732C31.7472 4.62337 31.7389 4.6262 31.7363 4.62204C31.7363 4.62204 31.7448 4.61996 31.7569 4.61732ZM20.6515 16.1617C20.6515 15.631 20.6515 15.1001 20.6515 14.5691C20.7351 14.5691 20.8187 14.5691 20.9023 14.5691C23.6511 14.5691 26.3999 14.5691 29.1487 14.5691C30.4209 14.5691 31.6954 14.5877 32.9693 14.5873C32.9693 15.361 32.9693 16.1349 32.9693 16.9086C32.9693 17.4541 32.9693 17.9996 32.9693 18.5451C32.9693 19.0231 32.9893 19.4037 32.5705 19.7561C32.1212 20.1341 31.6979 20.5648 31.4237 21.0903C31.281 21.3637 31.2042 21.6552 30.9268 21.8307C30.7684 21.9311 30.5961 21.9706 30.4103 21.9774C30.0985 21.9892 29.7839 21.9765 29.4719 21.9761C26.8845 21.9725 24.2972 21.9689 21.7098 21.9653C21.1484 21.9646 20.6725 21.6611 20.6515 21.0519C20.6425 20.7908 20.6515 20.5278 20.6515 20.2666C20.6515 19.5075 20.6515 18.7485 20.6515 17.9894C20.7654 17.9317 20.844 17.8139 20.844 17.6782V16.473C20.844 16.3372 20.7654 16.2192 20.6515 16.1617ZM20.6515 11.2272C20.6515 10.4585 20.6515 9.68974 20.6515 8.92095C20.6515 8.87443 20.6515 8.82811 20.6515 8.7816C20.6515 8.78084 20.6517 8.78008 20.6517 8.77914C20.6517 7.49321 20.6517 6.20747 20.6517 4.92173C20.6517 4.50822 20.7733 4.11625 21.143 3.88161C21.3678 3.73904 21.6081 3.72297 21.8618 3.72297C22.4451 3.72297 23.0283 3.72297 23.6116 3.72297C25.1658 3.72297 26.72 3.72297 28.2742 3.72297C28.4068 3.72297 28.5399 3.71957 28.6724 3.72297C29.2136 3.73715 29.6627 4.00526 29.9459 4.46435C30.2044 4.88354 30.4439 5.31558 30.6926 5.74063C31.1772 6.56899 31.6618 7.39735 32.1464 8.2257C32.3215 8.52483 32.4964 8.82394 32.6713 9.12307C32.8042 9.35015 32.932 9.54718 32.9691 9.81738C32.9691 11.0736 32.9691 12.3297 32.9691 13.5859C30.8274 13.5859 28.6857 13.5859 26.5438 13.5859C24.5797 13.5859 22.6155 13.5859 20.6514 13.5859C20.6514 13.4089 20.6514 13.2318 20.6514 13.0546C20.7652 12.9969 20.8438 12.8791 20.8438 12.7434V11.5382C20.844 11.4026 20.7654 11.2848 20.6515 11.2272ZM20.2233 10.136C20.2216 10.1679 20.2288 10.1942 20.2411 10.216C20.2411 10.5616 20.2411 10.9072 20.2411 11.2529C20.1511 11.3162 20.0917 11.4206 20.0917 11.5384V12.7436C20.0917 12.8614 20.1511 12.9657 20.2411 13.0291C20.2411 13.2147 20.2411 13.4004 20.2411 13.5861C19.9497 13.5861 19.6585 13.5861 19.3671 13.5861C17.2031 13.5861 15.0389 13.5861 12.8749 13.5861C11.3784 13.5861 9.88182 13.5861 8.38526 13.5861C8.38526 12.9211 8.38526 12.2563 8.38526 11.5913C8.38526 10.9951 8.32419 10.3878 8.4713 9.80451C8.47829 9.7769 8.48151 9.76084 8.48264 9.75139C8.48396 9.74912 8.48491 9.74742 8.48623 9.74458C8.51856 9.68275 8.56507 9.62129 8.60157 9.56117C8.67776 9.43581 8.75547 9.31159 8.83507 9.18831C9.02207 8.89864 9.21853 8.61501 9.42538 8.33915C9.81583 7.81785 10.2456 7.32493 10.7119 6.87001C11.6255 5.97869 12.6855 5.24714 13.8504 4.72377C15.0715 4.17525 16.395 3.86724 17.7261 3.75341C18.0969 3.72165 18.5465 3.65225 18.9661 3.68118C18.9867 3.69196 19.01 3.69877 19.0355 3.69877C19.0361 3.69877 19.0368 3.69877 19.0374 3.69877C19.0516 3.69858 19.0654 3.69556 19.079 3.6914C19.3556 3.72335 19.6143 3.80465 19.8224 3.97653C20.1265 4.22781 20.2301 4.57761 20.2301 4.95653C20.2301 6.49185 20.2301 8.02736 20.2301 9.56268C20.2303 9.75403 20.2341 9.94538 20.2233 10.136ZM8.38526 16.4423C8.38526 15.818 8.38526 15.1935 8.38526 14.5691C9.0892 14.5691 9.79333 14.5691 10.4973 14.5691C12.8309 14.5691 15.1645 14.5691 17.4981 14.5691C18.4125 14.5691 19.3267 14.5691 20.2411 14.5691C20.2411 15.1086 20.2411 15.648 20.2411 16.1874C20.1511 16.2506 20.0917 16.3552 20.0917 16.473V17.6782C20.0917 17.7959 20.1511 17.9003 20.2411 17.9637C20.2411 18.1834 20.2411 18.4031 20.2411 18.6226C20.2411 19.2562 20.2411 19.8898 20.2411 20.5236C20.2411 21.0925 20.2568 21.7069 19.5645 21.915C19.2159 22.0198 18.7764 21.9593 18.4185 21.9593C18.2336 21.9593 18.0468 21.9672 17.8621 21.9593C17.8326 21.958 17.7881 21.9685 17.7592 21.9593C17.6004 21.908 17.5391 21.5645 17.4747 21.4092C17.0449 20.3756 16.3406 19.4863 15.4042 18.8677C13.7789 17.7933 11.703 17.6038 9.80732 17.7719C9.5256 17.7969 9.25332 17.844 8.98162 17.733C8.62274 17.5864 8.40247 17.2643 8.38526 16.8799C8.37883 16.7347 8.38526 16.5877 8.38526 16.4423ZM48.2141 20.1717H47.6938V21.1876H48.0549C47.9727 21.4403 47.8501 21.6845 47.6677 21.9173C47.2559 22.4424 46.6455 22.7995 45.9864 22.9007C45.6852 22.947 45.3645 22.926 45.0606 22.926C44.3092 22.926 43.5581 22.926 42.8067 22.926C42.3782 21.0816 40.9881 19.5565 39.1845 18.9505C37.236 18.2959 35.0159 18.8323 33.5662 20.2825C32.8426 21.0065 32.3319 21.9309 32.1014 22.926C30.3658 22.926 28.6305 22.926 26.8949 22.926C23.9549 22.926 21.0148 22.926 18.0746 22.926C17.5249 22.926 16.9753 22.926 16.4256 22.926C15.9972 21.0816 14.6069 19.5565 12.8035 18.9505C10.855 18.2959 8.63504 18.8323 7.18518 20.2825C6.46045 21.0076 5.94936 21.9339 5.71925 22.931C5.35754 22.937 4.9913 22.9372 4.64359 22.8497C3.91261 22.6659 3.29923 22.1737 2.94698 21.5095C2.89101 21.4038 2.84545 21.2964 2.80801 21.1876H3.18163V20.1717H2.65447C2.65391 20.1392 2.65372 20.1065 2.65372 20.0736C2.65372 19.5606 2.65372 19.0475 2.65372 18.5345C2.65372 17.4964 2.52004 16.3928 3.20583 15.5185C3.61897 14.9919 4.19434 14.6724 4.82869 14.5582C4.85951 14.565 4.89128 14.5691 4.9238 14.5691C5.96865 14.5691 7.01369 14.5691 8.05873 14.5691C8.05116 15.3406 8.04965 16.112 8.07763 16.8802C8.09937 17.4804 8.52215 17.9814 9.11756 18.0936C9.56341 18.1775 10.0737 18.0506 10.5269 18.0351C11.571 17.9994 12.6284 18.0866 13.6318 18.3885C14.7154 18.7145 15.709 19.3126 16.4202 20.2035C16.62 20.4538 16.7943 20.7248 16.9456 21.0069C17.1201 21.3323 17.2145 21.6885 17.375 22.0166C17.5423 22.3584 17.9853 22.2671 18.2983 22.2671C18.6726 22.2671 19.0661 22.3023 19.4388 22.2544C19.9013 22.1949 20.2753 21.8997 20.4471 21.4962C20.5595 21.8126 20.772 22.072 21.1683 22.2058C21.4854 22.313 21.8628 22.2735 22.1931 22.2739C22.8061 22.2749 23.4189 22.2756 24.0319 22.2766C25.5895 22.2788 27.1472 22.2809 28.7048 22.283C29.1996 22.2837 29.6946 22.2843 30.1894 22.2851C30.7862 22.2858 31.2991 22.1022 31.5667 21.5161C31.8456 20.9054 32.2496 20.4298 32.7598 19.9972C33.077 19.728 33.264 19.4273 33.2769 19.0027C33.2869 18.6778 33.2769 18.3513 33.2769 18.0262C33.2769 16.8799 33.2769 15.7333 33.2769 14.5869C33.7902 14.5854 34.3034 14.5805 34.8162 14.5691C34.8478 14.5684 34.8795 14.5691 34.9111 14.5691C34.9272 14.5691 34.9432 14.5682 34.9589 14.5665C36.5986 14.5665 38.2383 14.5665 39.878 14.5665C41.8047 14.5665 43.7318 14.5731 45.6585 14.5665C45.7512 14.5661 45.8453 14.5561 45.9353 14.5362C47.14 14.7073 48.1451 15.6998 48.2147 16.9553C48.2582 17.7385 48.2194 18.5326 48.2194 19.3167C48.2196 19.6045 48.2251 19.8906 48.2141 20.1717Z" fill="#272525"/>
<path d="M31.5183 12.1885H30.2562C30.0529 12.1885 29.8867 12.3547 29.8867 12.5579C29.8867 12.7612 30.0529 12.9274 30.2562 12.9274H31.5183C31.7215 12.9274 31.8877 12.7612 31.8877 12.5579C31.8876 12.3547 31.7214 12.1885 31.5183 12.1885Z" fill="#272525"/>
<path d="M11.405 12.1885H10.1429C9.93963 12.1885 9.77344 12.3547 9.77344 12.5579C9.77344 12.7612 9.93963 12.9274 10.1429 12.9274H11.405C11.6081 12.9274 11.7745 12.7612 11.7745 12.5579C11.7745 12.3547 11.6081 12.1885 11.405 12.1885Z" fill="#272525"/>
<path d="M21.0181 9.36644C21.0222 9.63701 21.0631 9.91704 21.1892 10.1562C21.2315 10.2375 21.2835 10.3143 21.3473 10.3843C21.6328 10.6979 22.0421 10.7949 22.4526 10.8033C22.6455 10.8072 22.8387 10.8033 23.0316 10.8033C24.1201 10.8033 25.2086 10.8033 26.2973 10.8033C27.5139 10.8033 28.7302 10.8033 29.9467 10.8033C30.3013 10.8033 30.656 10.8033 31.0105 10.8033C31.49 10.8033 31.8742 10.5953 32.0792 10.1335C32.2828 9.67521 32.1905 9.26811 31.9945 8.87237C31.9493 8.78067 31.8984 8.68973 31.8443 8.59878C31.562 8.12457 31.2798 7.65035 30.9975 7.17595C30.6806 6.64351 30.3637 6.11124 30.0468 5.5788C29.8696 5.281 29.7076 4.9503 29.4828 4.68407C29.1547 4.29552 28.6875 4.09094 28.1879 4.05974C28.1688 4.05766 28.1494 4.05634 28.1289 4.05634C26.2635 4.05634 24.3979 4.04329 22.5326 4.05634C21.8073 4.06144 21.1565 4.5141 21.0404 5.26039C20.9839 5.62418 21.0181 6.01104 21.0181 6.37728C21.0181 7.37335 21.0028 8.37056 21.0181 9.36644ZM21.9442 8.80071C21.9442 8.23291 21.9442 7.6651 21.9442 7.09729C21.9442 6.62365 21.9442 6.15019 21.9442 5.67674C21.9442 5.32203 22.0514 5.00665 22.4689 4.98566C23.3031 4.9435 24.1504 4.98566 24.9855 4.98566C25.9729 4.98566 26.9603 4.98566 27.9474 4.98566C28.0089 4.98566 28.0703 4.98566 28.1316 4.98566C28.6172 5.00268 28.8255 5.33413 29.043 5.69962C29.2995 6.13054 29.5559 6.56144 29.8125 6.99236C30.2774 7.77344 30.8052 8.5428 31.2177 9.35301C31.2529 9.4224 31.2796 9.48536 31.2794 9.56572C31.2792 9.63738 31.261 9.70811 31.2279 9.77164C31.2155 9.79546 31.1659 9.84349 31.1455 9.86958C31.1202 9.87109 31.0842 9.87563 31.0685 9.87506C30.7798 9.86542 30.4888 9.87506 30.1999 9.87506C29.1131 9.87506 28.0265 9.87506 26.9396 9.87506C25.8341 9.87506 24.7286 9.87506 23.6228 9.87506C23.2969 9.87506 22.9707 9.87506 22.6447 9.87506C22.4106 9.87506 22.0849 9.91496 21.9814 9.68107C21.8873 9.45758 21.9442 9.04973 21.9442 8.80071Z" fill="#272525"/>
</svg>
