<svg width="29" height="29" viewBox="0 0 29 29" fill="none" xmlns="http://www.w3.org/2000/svg">
<g clip-path="url(#clip0_2308_554)">
<path d="M10.5294 25.74C11.1755 25.74 11.6994 25.2162 11.6994 24.57C11.6994 23.9239 11.1755 23.4 10.5294 23.4C9.8832 23.4 9.35938 23.9239 9.35938 24.57C9.35938 25.2162 9.8832 25.74 10.5294 25.74Z" stroke="#0052DE" stroke-opacity="0.9" stroke-width="2.34" stroke-linecap="round" stroke-linejoin="round"/>
<path d="M23.4005 25.74C24.0466 25.74 24.5705 25.2162 24.5705 24.57C24.5705 23.9239 24.0466 23.4 23.4005 23.4C22.7543 23.4 22.2305 23.9239 22.2305 24.57C22.2305 25.2162 22.7543 25.74 23.4005 25.74Z" stroke="#0052DE" stroke-opacity="0.9" stroke-width="2.34" stroke-linecap="round" stroke-linejoin="round"/>
<path d="M1.16992 1.16998H5.84992L8.98552 16.8363C9.09251 17.3749 9.38555 17.8588 9.81335 18.2032C10.2411 18.5476 10.7764 18.7305 11.3255 18.72H22.6979C23.247 18.7305 23.7823 18.5476 24.2101 18.2032C24.6379 17.8588 24.9309 17.3749 25.0379 16.8363L26.9099 7.01998H7.01992" stroke="#0052DE" stroke-opacity="0.9" stroke-width="2.34" stroke-linecap="round" stroke-linejoin="round"/>
</g>
<defs>
<clipPath id="clip0_2308_554">
<rect width="28.08" height="28.08" fill="white"/>
</clipPath>
</defs>
</svg>
