<svg width="40" height="40" viewBox="0 0 40 40" fill="none" xmlns="http://www.w3.org/2000/svg">
<g id="css3">
<g id="css3_2">
<path id="polygon2989" d="M37.6704 0L34.4572 35.9958L20.0138 40L5.61017 36.0015L2.40039 0H37.6704Z" fill="#3A3A3C"/>
<path id="polygon2991" d="M31.7061 33.7039L34.452 2.94385H20.0352V36.9396L31.7061 33.7039Z" fill="#3A3A3A" fill-opacity="0.75"/>
<path id="polygon2993" d="M9.75781 16.2959L10.1536 20.7113H20.0344V16.2959H9.75781Z" fill="#EBEBEB"/>
<path id="polygon2995" d="M20.0347 7.35889H20.0194H8.96289L9.36427 11.7744H20.0347V7.35889Z" fill="#EBEBEB"/>
<path id="polygon2997" d="M20.0352 32.357V27.7631L20.0158 27.7683L15.0983 26.4405L14.784 22.9189H12.3944H10.3516L10.9702 29.8518L20.0148 32.3627L20.0352 32.357Z" fill="#EBEBEB"/>
<path id="polygon3005" d="M25.4566 20.7112L24.9441 26.4377L20.0195 27.7669V32.3606L29.0714 29.8519L29.1378 29.1059L30.1754 17.4815L30.2831 16.2958L31.0803 7.35889H20.0195V11.7744H26.2413L25.8396 16.2958H20.0195V20.7112H25.4566Z" fill="white"/>
</g>
</g>
</svg>
