<svg width="21" height="21" viewBox="0 0 21 21" fill="none" xmlns="http://www.w3.org/2000/svg">
<circle cx="10.4" cy="10.4" r="10.4" fill="black"/>
<path d="M4.80078 7.19985C4.80078 6.3162 5.51713 5.59985 6.40078 5.59985H14.4008C15.2844 5.59985 16.0008 6.3162 16.0008 7.19985V8.29487C16.0008 8.42742 15.8933 8.53487 15.7608 8.53487H5.04078C4.90823 8.53487 4.80078 8.42742 4.80078 8.29487V7.19985Z" fill="white"/>
<path d="M4.80078 9.56983C4.80078 9.43729 4.90823 9.32983 5.04078 9.32983H15.7608C15.8933 9.32983 16.0008 9.43729 16.0008 9.56983V13.5999C16.0008 14.4835 15.2844 15.1999 14.4008 15.1999H6.40078C5.51712 15.1999 4.80078 14.4835 4.80078 13.5999V9.56983Z" fill="white"/>
</svg>
