<svg width="17" height="17" viewBox="0 0 17 17" fill="none" xmlns="http://www.w3.org/2000/svg">
<g clip-path="url(#clip0_2451_3241)">
<path d="M14.0004 1.3999H2.80039C2.02719 1.3999 1.40039 2.0267 1.40039 2.7999V5.5999C1.40039 6.3731 2.02719 6.9999 2.80039 6.9999H14.0004C14.7736 6.9999 15.4004 6.3731 15.4004 5.5999V2.7999C15.4004 2.0267 14.7736 1.3999 14.0004 1.3999Z" stroke="#7F7F7F" stroke-width="1.4" stroke-linecap="round" stroke-linejoin="round"/>
<path d="M14.0004 9.7998H2.80039C2.02719 9.7998 1.40039 10.4266 1.40039 11.1998V13.9998C1.40039 14.773 2.02719 15.3998 2.80039 15.3998H14.0004C14.7736 15.3998 15.4004 14.773 15.4004 13.9998V11.1998C15.4004 10.4266 14.7736 9.7998 14.0004 9.7998Z" stroke="#7F7F7F" stroke-width="1.4" stroke-linecap="round" stroke-linejoin="round"/>
<path d="M4.19922 4.2002H4.20622" stroke="#7F7F7F" stroke-width="1.4" stroke-linecap="round" stroke-linejoin="round"/>
<path d="M4.19922 12.6001H4.20622" stroke="#7F7F7F" stroke-width="1.4" stroke-linecap="round" stroke-linejoin="round"/>
</g>
<defs>
<clipPath id="clip0_2451_3241">
<rect width="16.8" height="16.8" fill="white"/>
</clipPath>
</defs>
</svg>
