<svg width="17" height="17" viewBox="0 0 17 17" fill="none" xmlns="http://www.w3.org/2000/svg">
<g clip-path="url(#clip0_2451_3264)">
<path d="M7.70039 2.7998H2.80039C2.42909 2.7998 2.07299 2.9473 1.81044 3.20986C1.54789 3.47241 1.40039 3.8285 1.40039 4.1998V13.9998C1.40039 14.3711 1.54789 14.7272 1.81044 14.9898C2.07299 15.2523 2.42909 15.3998 2.80039 15.3998H12.6004C12.9717 15.3998 13.3278 15.2523 13.5903 14.9898C13.8529 14.7272 14.0004 14.3711 14.0004 13.9998V9.0998" stroke="#7F7F7F" stroke-width="1.4" stroke-linecap="round" stroke-linejoin="round"/>
<path d="M12.9496 1.75035C13.2281 1.47188 13.6058 1.31543 13.9996 1.31543C14.3934 1.31543 14.7711 1.47188 15.0496 1.75035C15.3281 2.02883 15.4845 2.40653 15.4845 2.80035C15.4845 3.19418 15.3281 3.57188 15.0496 3.85035L8.39961 10.5004L5.59961 11.2004L6.29961 8.40035L12.9496 1.75035Z" stroke="#7F7F7F" stroke-width="1.4" stroke-linecap="round" stroke-linejoin="round"/>
</g>
<defs>
<clipPath id="clip0_2451_3264">
<rect width="16.8" height="16.8" fill="white"/>
</clipPath>
</defs>
</svg>
