<svg width="48" height="27" viewBox="0 0 48 27" fill="none" xmlns="http://www.w3.org/2000/svg">
<path d="M10.0777 20.1841C9.6125 20.1841 9.23536 20.5612 9.23536 21.0264C9.23536 21.4729 8.87232 21.8362 8.42601 21.8362C7.97948 21.8362 7.61624 21.4729 7.61624 21.0264C7.61624 20.58 7.97948 20.2168 8.42601 20.2168C8.89117 20.2168 9.26831 19.8397 9.26831 19.3745C9.26831 18.9094 8.89117 18.5322 8.42601 18.5322C7.05064 18.5322 5.93164 19.6511 5.93164 21.0264C5.93164 22.4018 7.05064 23.5208 8.42601 23.5208C9.80117 23.5208 10.92 22.4018 10.92 21.0264C10.92 20.5612 10.5429 20.1841 10.0777 20.1841Z" fill="black"/>
<path d="M18.5054 20.1841C18.0402 20.1841 17.6631 20.5612 17.6631 21.0264C17.6631 21.4729 17.3001 21.8362 16.8537 21.8362C16.4072 21.8362 16.044 21.4729 16.044 21.0264C16.044 20.58 16.4072 20.2168 16.8537 20.2168C17.3189 20.2168 17.696 19.8397 17.696 19.3745C17.696 18.9094 17.3189 18.5322 16.8537 18.5322C15.4784 18.5322 14.3594 19.6511 14.3594 21.0264C14.3594 22.4018 15.4784 23.5208 16.8537 23.5208C18.2289 23.5208 19.3477 22.4018 19.3477 21.0264C19.3477 20.5612 18.9707 20.1841 18.5054 20.1841Z" fill="black"/>
<path d="M40.4409 20.1841C39.9758 20.1841 39.5986 20.5612 39.5986 21.0264C39.5986 21.4729 39.2356 21.8362 38.7893 21.8362C38.3428 21.8362 37.9795 21.4729 37.9795 21.0264C37.9795 20.58 38.3428 20.2168 38.7893 20.2168C39.2544 20.2168 39.6316 19.8397 39.6316 19.3745C39.6316 18.9094 39.2544 18.5322 38.7893 18.5322C37.4139 18.5322 36.2949 19.6511 36.2949 21.0264C36.2949 22.4018 37.4139 23.5208 38.7893 23.5208C40.1645 23.5208 41.2832 22.4018 41.2832 21.0264C41.2832 20.5612 40.9061 20.1841 40.4409 20.1841Z" fill="black"/>
<path d="M47.9814 13.2978L45.9791 3.95081C45.626 2.18345 43.94 0.799975 42.1374 0.799975H36.283C35.8178 0.799975 35.4407 1.17712 35.4407 1.64228V10.1051H34.5257V3.09093C34.5658 2.91205 34.5877 2.72642 34.5877 2.53564C34.5877 1.13753 33.4502 0 32.0521 0H4.21266C2.81444 0 1.67702 1.13753 1.67702 2.53564C1.67702 3.63864 2.38508 4.57885 3.37036 4.92694V8.38542C3.37036 8.85058 3.7475 9.22772 4.21266 9.22772C4.68193 9.22772 5.0637 9.6095 5.0637 10.0788C5.0637 10.548 4.68193 10.9298 4.21266 10.9298C3.7434 10.9298 3.36162 10.548 3.36162 10.0788C3.36162 9.6136 2.98448 9.23646 2.51932 9.23646C2.05416 9.23646 1.67702 9.6136 1.67702 10.0788C1.67702 11.477 2.81455 12.6144 4.21266 12.6144C5.61078 12.6144 6.74831 11.4769 6.74831 10.0788C6.74831 8.97567 6.04035 8.03492 5.05496 7.68694V5.07139H29.5163V10.1052H29.5055C28.1122 10.1052 26.9786 11.2387 26.9786 12.6321V13.4218H0.842301C0.37714 13.4218 0 13.7989 0 14.2641V20.1843C0 21.1131 0.755755 21.8689 1.6846 21.8689H3.44196C3.84447 24.2572 5.9259 26.0828 8.42701 26.0828C10.1841 26.0828 11.7339 25.1811 12.6402 23.8166C13.5467 25.1811 15.0969 26.0828 16.8543 26.0828C19.3548 26.0828 21.4358 24.2572 21.8382 21.8689H33.8038C34.2063 24.2572 36.2877 26.0828 38.7887 26.0828C41.2892 26.0828 43.3702 24.2572 43.7726 21.8689H47.1577C47.6229 21.8689 48 21.4917 48 21.0266V13.4744C48.0001 13.415 47.9938 13.3558 47.9814 13.2978ZM46.1159 12.632H40.612C40.5565 12.6205 40.4989 12.6144 40.4399 12.6144C39.9661 12.6144 39.5807 12.2289 39.5807 11.755V5.83209H44.6592L46.1159 12.632ZM31.2009 2.53564C31.2009 2.06638 31.5827 1.6846 32.052 1.6846C32.4435 1.6846 32.7734 1.95087 32.8721 2.31159C32.8524 2.38298 32.841 2.45794 32.841 2.53564V2.85298C32.7149 3.16537 32.409 3.38668 32.052 3.38668C31.5827 3.38679 31.2009 3.00491 31.2009 2.53564ZM4.21266 1.6846C4.68193 1.6846 5.0637 2.06638 5.0637 2.53564C5.0637 3.00491 4.68193 3.38668 4.21266 3.38668C3.7434 3.38668 3.36162 3.00491 3.36162 2.53564C3.36162 2.06638 3.7434 1.6846 4.21266 1.6846ZM6.60101 3.38679C6.69619 3.12062 6.74841 2.83413 6.74841 2.53575C6.74841 2.23726 6.69619 1.95087 6.60101 1.68471H29.6637C29.5686 1.95087 29.5163 2.23726 29.5163 2.53575V3.38679H6.60101ZM31.2009 5.07139H32.052C32.3274 5.07139 32.5925 5.02664 32.841 4.94504V10.1052H31.2009V5.07139ZM28.6632 12.632C28.6632 12.1676 29.0411 11.7897 29.5055 11.7897H35.4406V17.2419C34.5934 17.9921 33.9995 19.0212 33.8036 20.1842H28.6632V12.632ZM1.6846 15.1062H26.9786V20.1842H21.8382C21.436 17.7958 19.3549 15.9702 16.8542 15.9702C15.0969 15.9702 13.5466 16.8718 12.6401 18.2361C11.7338 16.8718 10.1839 15.9702 8.42691 15.9702C5.92569 15.9702 3.84405 17.7959 3.44175 20.1842H1.6846V15.1062ZM8.42701 24.3982C6.56774 24.3982 5.05507 22.8855 5.05507 21.0263C5.05507 19.1673 6.56774 17.6548 8.42701 17.6548C10.2857 17.6548 11.7978 19.1672 11.7978 21.0263C11.7978 22.8854 10.2857 24.3982 8.42701 24.3982ZM16.8543 24.3982C14.9951 24.3982 13.4824 22.8855 13.4824 21.0263C13.4824 19.1673 14.9951 17.6548 16.8543 17.6548C18.713 17.6548 20.2252 19.1672 20.2252 21.0263C20.2251 22.8854 18.713 24.3982 16.8543 24.3982ZM38.7887 24.3982C36.9294 24.3982 35.4169 22.8855 35.4169 21.0263C35.4169 19.1673 36.9294 17.6548 38.7887 17.6548C40.6473 17.6548 42.1596 19.1672 42.1596 21.0263C42.1596 22.8854 40.6474 24.3982 38.7887 24.3982ZM43.7727 20.1842C43.3705 17.7958 41.2893 15.9702 38.7887 15.9702C38.2059 15.9702 37.6465 16.0705 37.1252 16.2527V2.48458H42.1373C43.0848 2.48458 44.0383 3.23307 44.2933 4.14749H38.7384C38.2732 4.14749 37.8961 4.52463 37.8961 4.98979V11.755C37.8961 13.0875 38.9258 14.1839 40.2312 14.2905C40.298 14.3075 40.3679 14.3166 40.4399 14.3166H46.3154V15.1502H45.4953C45.0302 15.1502 44.653 15.5273 44.653 15.9925C44.653 16.4576 45.0302 16.8348 45.4953 16.8348H46.3154V20.1843H43.7727V20.1842Z" fill="black" fill-opacity="0.8"/>
<path d="M30.3579 15.1062H33.6826C34.1478 15.1062 34.5249 14.7291 34.5249 14.2639C34.5249 13.7988 34.1478 13.4216 33.6826 13.4216H30.3579C29.8928 13.4216 29.5156 13.7988 29.5156 14.2639C29.5156 14.7291 29.8928 15.1062 30.3579 15.1062Z" fill="black"/>
</svg>
