<svg width="12" height="12" viewBox="0 0 12 12" fill="none" xmlns="http://www.w3.org/2000/svg">
<path d="M4.5 9H7.5" stroke="#0052DE" stroke-linecap="round" stroke-linejoin="round"/>
<path d="M5 11H7" stroke="#0052DE" stroke-linecap="round" stroke-linejoin="round"/>
<path d="M7.545 7C7.635 6.51 7.87 6.13 8.25 5.75C8.49143 5.52775 8.68308 5.25691 8.81235 4.95529C8.94161 4.65367 9.00557 4.32811 9 4C9 3.20435 8.68393 2.44129 8.12132 1.87868C7.55871 1.31607 6.79565 1 6 1C5.20435 1 4.44129 1.31607 3.87868 1.87868C3.31607 2.44129 3 3.20435 3 4C3 4.5 3.115 5.115 3.75 5.75C4.11203 6.08103 4.359 6.51893 4.455 7" stroke="#0052DE" stroke-linecap="round" stroke-linejoin="round"/>
</svg>
