<svg width="29" height="29" viewBox="0 0 29 29" fill="none" xmlns="http://www.w3.org/2000/svg">
<g clip-path="url(#clip0_2308_575)">
<path d="M5.84961 6.43497C5.84961 5.3489 6.28105 4.30732 7.04901 3.53936C7.81697 2.7714 8.85855 2.33997 9.94461 2.33997H14.0396V10.53H9.94461C8.85855 10.53 7.81697 10.0985 7.04901 9.33057C6.28105 8.56261 5.84961 7.52103 5.84961 6.43497Z" stroke="#0052DE" stroke-opacity="0.9" stroke-width="2.34" stroke-linecap="round" stroke-linejoin="round"/>
<path d="M14.0391 2.33997H18.1341C18.6718 2.33997 19.2043 2.44589 19.7012 2.65168C20.198 2.85747 20.6494 3.15911 21.0297 3.53936C21.4099 3.91962 21.7116 4.37105 21.9173 4.86788C22.1231 5.36471 22.2291 5.8972 22.2291 6.43497C22.2291 6.97273 22.1231 7.50523 21.9173 8.00205C21.7116 8.49888 21.4099 8.95031 21.0297 9.33057C20.6494 9.71082 20.198 10.0125 19.7012 10.2183C19.2043 10.424 18.6718 10.53 18.1341 10.53H14.0391V2.33997Z" stroke="#0052DE" stroke-opacity="0.9" stroke-width="2.34" stroke-linecap="round" stroke-linejoin="round"/>
<path d="M14.0391 14.625C14.0391 14.0873 14.145 13.5548 14.3508 13.0579C14.5566 12.5611 14.8582 12.1097 15.2385 11.7294C15.6187 11.3492 16.0701 11.0475 16.567 10.8417C17.0638 10.6359 17.5963 10.53 18.1341 10.53C18.6718 10.53 19.2043 10.6359 19.7012 10.8417C20.198 11.0475 20.6494 11.3492 21.0297 11.7294C21.4099 12.1097 21.7116 12.5611 21.9173 13.0579C22.1231 13.5548 22.2291 14.0873 22.2291 14.625C22.2291 15.1628 22.1231 15.6953 21.9173 16.1921C21.7116 16.6889 21.4099 17.1404 21.0297 17.5206C20.6494 17.9009 20.198 18.2025 19.7012 18.4083C19.2043 18.6141 18.6718 18.72 18.1341 18.72C17.5963 18.72 17.0638 18.6141 16.567 18.4083C16.0701 18.2025 15.6187 17.9009 15.2385 17.5206C14.8582 17.1404 14.5566 16.6889 14.3508 16.1921C14.145 15.6953 14.0391 15.1628 14.0391 14.625V14.625Z" stroke="#0052DE" stroke-opacity="0.9" stroke-width="2.34" stroke-linecap="round" stroke-linejoin="round"/>
<path d="M5.84961 22.815C5.84961 21.7289 6.28105 20.6873 7.04901 19.9194C7.81697 19.1514 8.85855 18.72 9.94461 18.72H14.0396V22.815C14.0396 23.901 13.6082 24.9426 12.8402 25.7106C12.0722 26.4785 11.0307 26.91 9.94461 26.91C8.85855 26.91 7.81697 26.4785 7.04901 25.7106C6.28105 24.9426 5.84961 23.901 5.84961 22.815Z" stroke="#0052DE" stroke-opacity="0.9" stroke-width="2.34" stroke-linecap="round" stroke-linejoin="round"/>
<path d="M5.84961 14.625C5.84961 13.539 6.28105 12.4974 7.04901 11.7294C7.81697 10.9615 8.85855 10.53 9.94461 10.53H14.0396V18.72H9.94461C8.85855 18.72 7.81697 18.2886 7.04901 17.5206C6.28105 16.7527 5.84961 15.7111 5.84961 14.625Z" stroke="#0052DE" stroke-opacity="0.9" stroke-width="2.34" stroke-linecap="round" stroke-linejoin="round"/>
</g>
<defs>
<clipPath id="clip0_2308_575">
<rect width="28.08" height="28.08" fill="white"/>
</clipPath>
</defs>
</svg>
