<svg width="16" height="15" viewBox="0 0 16 15" fill="none" xmlns="http://www.w3.org/2000/svg">
<g clip-path="url(#clip0_2940_366)">
<path d="M11.0532 1.30029H4.55158C2.75621 1.30029 1.30078 2.75573 1.30078 4.55109V11.0527C1.30078 12.8481 2.75621 14.3035 4.55158 14.3035H11.0532C12.8485 14.3035 14.304 12.8481 14.304 11.0527V4.55109C14.304 2.75573 12.8485 1.30029 11.0532 1.30029Z" stroke="#212121" stroke-width="1.30032" stroke-linecap="round" stroke-linejoin="round"/>
<path d="M10.4017 7.39251C10.4819 7.9336 10.3895 8.48622 10.1375 8.97176C9.88561 9.4573 9.48699 9.85103 8.99838 10.097C8.50977 10.3429 7.95606 10.4285 7.41599 10.3416C6.87593 10.2547 6.37702 9.99971 5.99023 9.61291C5.60343 9.22612 5.34845 8.72721 5.26155 8.18715C5.17464 7.64708 5.26025 7.09337 5.50618 6.60476C5.75211 6.11615 6.14584 5.71753 6.63138 5.46559C7.11692 5.21366 7.66954 5.12124 8.21063 5.20147C8.76257 5.28332 9.27354 5.54051 9.66809 5.93505C10.0626 6.3296 10.3198 6.84058 10.4017 7.39251Z" stroke="#212121" stroke-width="1.30032" stroke-linecap="round" stroke-linejoin="round"/>
<path d="M11.377 4.22607H11.3835" stroke="#212121" stroke-width="1.30032" stroke-linecap="round" stroke-linejoin="round"/>
</g>
<defs>
<clipPath id="clip0_2940_366">
<rect width="15.6038" height="15.6038" fill="white"/>
</clipPath>
</defs>
</svg>
