<svg width="40" height="40" viewBox="0 0 40 40" fill="none" xmlns="http://www.w3.org/2000/svg">
<g id="js">
<g id="js_2">
<path id="Vector" d="M36 0H4C1.79086 0 0 1.79086 0 4V36C0 38.2091 1.79086 40 4 40H36C38.2091 40 40 38.2091 40 36V4C40 1.79086 38.2091 0 36 0Z" fill="#3A3A3C"/>
<path id="Vector_2" d="M26.869 31.2503C27.6747 32.5658 28.723 33.5328 30.577 33.5328C32.1344 33.5328 33.1293 32.7544 33.1293 31.6788C33.1293 30.3899 32.1071 29.9334 30.3928 29.1836L29.4532 28.7804C26.7408 27.6249 24.9389 26.1773 24.9389 23.1169C24.9389 20.2979 27.0868 18.1519 30.4436 18.1519C32.8335 18.1519 34.5516 18.9836 35.7897 21.1614L32.8627 23.0407C32.2182 21.8852 31.523 21.4299 30.4436 21.4299C29.3427 21.4299 28.6449 22.1284 28.6449 23.0407C28.6449 24.1684 29.3433 24.6249 30.956 25.3233L31.8957 25.7258C35.0893 27.0953 36.8925 28.4915 36.8925 31.6306C36.8925 35.0147 34.2341 36.8687 30.6639 36.8687C27.1732 36.8687 24.9179 35.2052 23.8144 33.0249L26.869 31.2503ZM13.5909 31.576C14.1814 32.6236 14.7186 33.5093 16.01 33.5093C17.2449 33.5093 18.0239 33.0261 18.0239 31.1474V18.3665H21.7827V31.1982C21.7827 35.0903 19.5008 36.8617 16.17 36.8617C13.1605 36.8617 11.4176 35.3042 10.5312 33.4284L13.5909 31.576Z" fill="white"/>
</g>
</g>
</svg>
