<svg width="26" height="26" viewBox="0 0 26 26" fill="none" xmlns="http://www.w3.org/2000/svg">
<path fill-rule="evenodd" clip-rule="evenodd" d="M10.2082 0.879432C10.2196 1.37636 9.82595 1.78841 9.32901 1.79977C5.94298 1.87718 4.34818 2.21874 3.29552 3.2714C2.61106 3.95587 2.21834 4.88189 2.01186 6.41761C1.80191 7.97923 1.8 10.0312 1.8 12.888C1.8 15.7446 1.80191 17.7966 2.01186 19.3583C2.21834 20.894 2.61106 21.82 3.29552 22.5044C3.97999 23.1889 4.90601 23.5817 6.44173 23.7882C8.00335 23.9981 10.0554 24 12.9121 24C15.7687 24 17.8207 23.9981 19.3824 23.7882C20.9182 23.5817 21.8441 23.1889 22.5286 22.5044C23.5813 21.4518 23.9228 19.857 24.0002 16.471C24.0116 15.974 24.4236 15.5804 24.9205 15.5918C25.4174 15.6031 25.8112 16.0152 25.7998 16.5121C25.7239 19.8318 25.4249 22.1538 23.8014 23.7773C22.7267 24.8519 21.3576 25.3388 19.6223 25.5721C17.9268 25.8 15.7538 25.8 12.9809 25.8H12.8432C10.0703 25.8 7.89732 25.8 6.20189 25.5721C4.46657 25.3388 3.09738 24.8519 2.02273 23.7773C0.948072 22.7027 0.46122 21.3335 0.227916 19.5982C-2.38717e-05 17.9027 -1.18259e-05 15.7297 1.74141e-07 12.9568V12.8191C-1.18259e-05 10.0462 -2.38717e-05 7.8732 0.227916 6.17777C0.46122 4.44245 0.948072 3.07326 2.02273 1.99861C3.6462 0.375144 5.96816 0.07614 9.28787 0.00024004C9.7848 -0.011124 10.1968 0.3825 10.2082 0.879432ZM19.2127 1.8C16.5653 1.8 14.4253 3.93643 14.4253 6.5641C14.4253 7.15406 14.5607 7.67154 14.6995 8.04511C14.7684 8.23037 14.8364 8.37539 14.8849 8.4703C14.909 8.5176 14.9281 8.55198 14.9396 8.57219L14.9509 8.59157C15.1733 8.94582 15.1207 9.40679 14.8244 9.70192L7.94406 16.5541C7.92632 16.5718 7.89221 16.6123 7.86059 16.669C7.82959 16.7245 7.81099 16.7777 7.80369 16.8223C7.79705 16.863 7.79942 16.8964 7.8101 16.9296C7.82055 16.9622 7.84991 17.0291 7.94406 17.1228L8.70505 17.8807C8.72782 17.8976 8.7632 17.9208 8.808 17.9426C8.86655 17.9713 8.92327 17.9893 8.97149 17.9965C9.01718 18.0032 9.04777 17.9994 9.06944 17.9929C9.08774 17.9874 9.12788 17.9719 9.18684 17.9132L10.1127 16.9912C10.4639 16.6414 11.0317 16.6414 11.3828 16.9912C11.5208 17.1284 11.6358 17.1857 11.7178 17.2106C11.8006 17.236 11.8826 17.2386 11.9672 17.2224C12.1548 17.1865 12.3253 17.0624 12.4038 16.9632C12.5124 16.8064 12.5089 16.6702 12.457 16.5149C12.428 16.4288 12.3865 16.3512 12.3503 16.2941C12.3329 16.2666 12.3186 16.247 12.3109 16.237C12.3089 16.2342 12.3065 16.2311 12.3065 16.2311C12.0068 15.8736 12.0298 15.3454 12.3612 15.0152L12.6257 14.7518C12.9769 14.4022 13.5448 14.4022 13.8959 14.7518C14.3567 15.2107 14.6621 15.205 14.8092 15.1771C15.017 15.1376 15.2106 14.9882 15.3132 14.8561C15.4483 14.6627 15.4489 14.4899 15.411 14.331C15.3901 14.2439 15.3577 14.1678 15.3304 14.1143C15.317 14.0884 15.3064 14.0704 15.3011 14.062L15.2999 14.0602L15.2657 14.0124L15.234 13.9493C15.2226 13.9265 15.2044 13.899 15.1462 13.8348C15.1442 13.8326 15.1406 13.8289 15.1356 13.8236C15.0912 13.7768 14.935 13.6126 14.8391 13.4405C14.6749 13.1462 14.6294 12.7882 14.7719 12.4224C14.8816 12.1406 15.084 11.9084 15.271 11.7222L16.0645 10.9319C16.3934 10.6044 16.9174 10.5806 17.2745 10.877C17.418 10.9962 17.7245 11.1246 18.1618 11.2152C18.5725 11.3002 18.9804 11.3282 19.2127 11.3282C21.8602 11.3282 24 9.19176 24 6.5641C24 3.93643 21.8602 1.8 19.2127 1.8ZM14.2783 16.9516C14.2409 17.2938 14.1191 17.6603 13.8599 18.0216L13.8538 18.0301L13.8474 18.0385C13.5263 18.465 12.9732 18.8624 12.3059 18.9902C11.8342 19.0806 11.3303 19.0306 10.8496 18.7976L10.457 19.1886C9.91422 19.7292 9.266 19.8595 8.70829 19.7771C8.19536 19.7014 7.7724 19.4524 7.5182 19.2354C7.50069 19.2204 7.48376 19.2048 7.46745 19.1886L6.67387 18.3983C6.09556 17.8223 5.92695 17.1457 6.02726 16.5319C6.11837 15.9746 6.4176 15.534 6.67387 15.2788L13.0954 8.88352C13.068 8.81752 13.0402 8.74711 13.0124 8.67253C12.8207 8.15698 12.6253 7.42308 12.6253 6.5641C12.6253 2.93538 15.578 0 19.2127 0C22.8473 0 25.8 2.93538 25.8 6.5641C25.8 10.1928 22.8473 13.1282 19.2127 13.1282C18.8718 13.1282 18.3407 13.0903 17.7968 12.9778C17.508 12.918 17.1737 12.829 16.8491 12.691L16.6747 12.8646C16.7213 12.9295 16.7688 13.0034 16.8138 13.0865C16.8188 13.0943 16.8242 13.1027 16.8298 13.1117C16.8581 13.1573 16.894 13.2186 16.9324 13.2936C17.0082 13.4417 17.0998 13.6538 17.1617 13.9124C17.2884 14.4426 17.2897 15.189 16.7696 15.914L16.7635 15.9226L16.7573 15.931C16.4614 16.3238 15.9047 16.8013 15.1446 16.9456C14.861 16.9993 14.5704 17.0029 14.2783 16.9516ZM19.2127 5.48825C18.6106 5.48825 18.1288 5.9734 18.1288 6.5641C18.1288 7.1548 18.6106 7.63994 19.2127 7.63994C19.8148 7.63994 20.2967 7.1548 20.2967 6.5641C20.2967 5.9734 19.8148 5.48825 19.2127 5.48825ZM16.3288 6.5641C16.3288 4.97234 17.6234 3.68825 19.2127 3.68825C20.802 3.68825 22.0967 4.97234 22.0967 6.5641C22.0967 8.15585 20.802 9.43994 19.2127 9.43994C17.6234 9.43994 16.3288 8.15585 16.3288 6.5641Z" fill="#000000" fill-opacity="0.8"/>
</svg>
