<svg width="29" height="29" viewBox="0 0 29 29" fill="none" xmlns="http://www.w3.org/2000/svg">
<g clip-path="url(#clip0_2308_619)">
<path d="M14.0393 17.55C15.9778 17.55 17.5493 15.9785 17.5493 14.04C17.5493 12.1015 15.9778 10.53 14.0393 10.53C12.1008 10.53 10.5293 12.1015 10.5293 14.04C10.5293 15.9785 12.1008 17.55 14.0393 17.55Z" stroke="#0052DE" stroke-opacity="0.9" stroke-width="2.34" stroke-linecap="round" stroke-linejoin="round"/>
<path d="M22.6979 17.55C22.5422 17.9029 22.4957 18.2944 22.5645 18.6739C22.6334 19.0535 22.8143 19.4037 23.084 19.6794L23.1542 19.7496C23.3718 19.967 23.5444 20.225 23.6621 20.5091C23.7799 20.7932 23.8405 21.0977 23.8405 21.4052C23.8405 21.7127 23.7799 22.0172 23.6621 22.3013C23.5444 22.5853 23.3718 22.8434 23.1542 23.0607C22.9369 23.2783 22.6788 23.4509 22.3948 23.5687C22.1107 23.6864 21.8062 23.747 21.4987 23.747C21.1912 23.747 20.8867 23.6864 20.6026 23.5687C20.3185 23.4509 20.0604 23.2783 19.8431 23.0607L19.7729 22.9905C19.4972 22.7208 19.147 22.5399 18.7674 22.4711C18.3879 22.4022 17.9964 22.4487 17.6435 22.6044C17.2975 22.7528 17.0023 22.999 16.7945 23.3129C16.5866 23.6268 16.475 23.9947 16.4735 24.3711V24.57C16.4735 25.1906 16.227 25.7858 15.7882 26.2247C15.3493 26.6635 14.7541 26.91 14.1335 26.91C13.5129 26.91 12.9177 26.6635 12.4789 26.2247C12.0401 25.7858 11.7935 25.1906 11.7935 24.57V24.4647C11.7845 24.0775 11.6591 23.7019 11.4338 23.3868C11.2084 23.0717 10.8935 22.8318 10.5299 22.698C10.177 22.5423 9.78558 22.4958 9.40603 22.5647C9.02649 22.6335 8.67627 22.8144 8.40052 23.0841L8.33032 23.1543C8.113 23.3719 7.85492 23.5445 7.57085 23.6623C7.28678 23.78 6.98228 23.8406 6.67477 23.8406C6.36726 23.8406 6.06276 23.78 5.77869 23.6623C5.49462 23.5445 5.23654 23.3719 5.01922 23.1543C4.80166 22.937 4.62906 22.6789 4.5113 22.3949C4.39354 22.1108 4.33293 21.8063 4.33293 21.4988C4.33293 21.1913 4.39354 20.8868 4.5113 20.6027C4.62906 20.3186 4.80166 20.0606 5.01922 19.8432L5.08942 19.773C5.35915 19.4973 5.54009 19.1471 5.60891 18.7675C5.67773 18.388 5.63127 17.9965 5.47552 17.6436C5.32721 17.2976 5.08095 17.0025 4.76705 16.7946C4.45315 16.5867 4.08531 16.4751 3.70882 16.4736H3.50992C2.88932 16.4736 2.29413 16.2271 1.85529 15.7883C1.41646 15.3494 1.16992 14.7542 1.16992 14.1336C1.16992 13.513 1.41646 12.9178 1.85529 12.479C2.29413 12.0402 2.88932 11.7936 3.50992 11.7936H3.61522C4.00249 11.7846 4.37807 11.6592 4.69314 11.4339C5.00822 11.2085 5.24821 10.8936 5.38192 10.53C5.53767 10.1772 5.58413 9.7857 5.51531 9.40616C5.44649 9.02661 5.26555 8.67639 4.99582 8.40064L4.92562 8.33044C4.70806 8.11312 4.53546 7.85505 4.4177 7.57097C4.29994 7.2869 4.23933 6.98241 4.23933 6.67489C4.23933 6.36738 4.29994 6.06288 4.4177 5.77881C4.53546 5.49474 4.70806 5.23667 4.92562 5.01934C5.14294 4.80178 5.40102 4.62918 5.68509 4.51142C5.96916 4.39367 6.27366 4.33305 6.58117 4.33305C6.88868 4.33305 7.19318 4.39367 7.47725 4.51142C7.76132 4.62918 8.0194 4.80178 8.23672 5.01934L8.30692 5.08954C8.58267 5.35927 8.93289 5.54021 9.31243 5.60903C9.69197 5.67785 10.0834 5.63139 10.4363 5.47564H10.5299C10.876 5.32733 11.1711 5.08107 11.379 4.76717C11.5869 4.45327 11.6984 4.08543 11.6999 3.70894V3.51004C11.6999 2.88944 11.9465 2.29425 12.3853 1.85541C12.8241 1.41658 13.4193 1.17004 14.0399 1.17004C14.6605 1.17004 15.2557 1.41658 15.6946 1.85541C16.1334 2.29425 16.3799 2.88944 16.3799 3.51004V3.61534C16.3814 3.99183 16.493 4.35967 16.7009 4.67357C16.9087 4.98747 17.2039 5.23373 17.5499 5.38204C17.9028 5.53779 18.2943 5.58425 18.6738 5.51543C19.0534 5.44661 19.4036 5.26567 19.6793 4.99594L19.7495 4.92574C19.9668 4.70818 20.2249 4.53558 20.509 4.41782C20.7931 4.30007 21.0976 4.23945 21.4051 4.23945C21.7126 4.23945 22.0171 4.30007 22.3012 4.41782C22.5852 4.53558 22.8433 4.70818 23.0606 4.92574C23.2782 5.14307 23.4508 5.40114 23.5685 5.68521C23.6863 5.96928 23.7469 6.27378 23.7469 6.58129C23.7469 6.88881 23.6863 7.1933 23.5685 7.47737C23.4508 7.76145 23.2782 8.01952 23.0606 8.23684L22.9904 8.30704C22.7207 8.58279 22.5398 8.93301 22.4709 9.31255C22.4021 9.6921 22.4486 10.0836 22.6043 10.4364V10.53C22.7526 10.8761 22.9989 11.1712 23.3128 11.3791C23.6267 11.587 23.9945 11.6985 24.371 11.7H24.5699C25.1905 11.7 25.7857 11.9466 26.2246 12.3854C26.6634 12.8242 26.9099 13.4194 26.9099 14.04C26.9099 14.6607 26.6634 15.2558 26.2246 15.6947C25.7857 16.1335 25.1905 16.38 24.5699 16.38H24.4646C24.0881 16.3815 23.7203 16.4931 23.4064 16.701C23.0925 16.9089 22.8462 17.204 22.6979 17.55V17.55Z" stroke="#0052DE" stroke-opacity="0.9" stroke-width="2.34" stroke-linecap="round" stroke-linejoin="round"/>
</g>
<defs>
<clipPath id="clip0_2308_619">
<rect width="28.08" height="28.08" fill="white"/>
</clipPath>
</defs>
</svg>
