<svg width="40" height="40" viewBox="0 0 40 40" fill="none" xmlns="http://www.w3.org/2000/svg">
<path fill-rule="evenodd" clip-rule="evenodd" d="M23.5525 0C23.2632 0 22.9946 0.0619825 22.7467 0.144621C23.2735 0.495842 23.5628 0.960698 23.7074 1.48753C23.7178 1.55984 23.7384 1.61149 23.7487 1.6838C23.7591 1.74578 23.7694 1.80776 23.7694 1.86974C23.8107 2.77879 23.5318 2.89242 23.3355 3.42958C23.036 4.1217 23.1186 4.86546 23.4801 5.46461C23.5111 5.53691 23.5525 5.61955 23.6041 5.69186C23.2116 3.07836 25.3912 2.68582 25.7941 1.86974C25.8251 1.15697 25.2363 0.681784 24.7714 0.351222C24.3272 0.0826409 23.9243 0 23.5525 0ZM26.8374 0.588814C26.7961 0.826405 26.8271 0.764424 26.8168 0.888386C26.8064 0.971025 26.8064 1.07433 26.7961 1.15697C26.7755 1.23961 26.7548 1.32225 26.7238 1.40489C26.7032 1.48753 26.6722 1.57017 26.6412 1.65281C26.5998 1.73545 26.5689 1.80776 26.5276 1.8904C26.4966 1.93174 26.4759 1.97304 26.4449 2.01436C26.4243 2.04535 26.4036 2.07634 26.3829 2.10733C26.3313 2.17965 26.2796 2.25195 26.228 2.31393C26.166 2.37592 26.1143 2.44822 26.042 2.49988V2.51022C25.9801 2.56187 25.9181 2.62385 25.8458 2.6755C25.6288 2.84078 25.3809 2.96474 25.1537 3.11969C25.0813 3.17134 25.009 3.21267 24.9471 3.27464C24.8747 3.32629 24.8128 3.37794 24.7508 3.43992C24.6785 3.5019 24.6268 3.56389 24.5648 3.6362C24.5132 3.69818 24.4512 3.77049 24.4099 3.8428C24.3582 3.91511 24.3066 3.98742 24.2653 4.05973C24.2239 4.14237 24.193 4.21468 24.1516 4.29732C24.1206 4.37996 24.0897 4.45227 24.069 4.53491C24.038 4.62788 24.0173 4.71052 23.9967 4.79316C23.9863 4.8345 23.9863 4.88613 23.976 4.92745C23.9657 4.96879 23.9657 5.01009 23.9554 5.05142C23.9554 5.13405 23.9451 5.22703 23.9451 5.30966C23.9451 5.37165 23.9451 5.43363 23.9554 5.49561C23.9554 5.57825 23.9657 5.66089 23.9864 5.75386C23.9967 5.8365 24.0174 5.91914 24.038 6.00178C24.069 6.08442 24.0897 6.16706 24.1207 6.2497C24.1413 6.30135 24.1723 6.353 24.193 6.39432L21.8171 5.47495C21.4142 5.36131 21.0217 5.25802 20.6188 5.16505C20.4019 5.1134 20.1849 5.06174 19.968 5.01009C19.3482 4.88613 18.7181 4.79317 18.0879 4.73119C18.0673 4.73119 18.0569 4.72084 18.0363 4.72084C17.4165 4.65886 16.807 4.62787 16.1872 4.62787C15.7327 4.62787 15.2781 4.64851 14.834 4.67952C14.2038 4.72086 13.5737 4.80348 12.9436 4.90678C12.7886 4.92742 12.6336 4.95843 12.4787 4.98942C12.1585 5.0514 11.8486 5.12371 11.549 5.19602C11.394 5.23736 11.2391 5.27867 11.0841 5.31998C10.9292 5.38196 10.7846 5.45428 10.6399 5.51626C10.5263 5.5679 10.4127 5.61955 10.2991 5.67121C10.2784 5.68155 10.2577 5.68155 10.2474 5.69185C10.1441 5.7435 10.0511 5.78482 9.95817 5.83647C9.92717 5.84682 9.90651 5.85712 9.88585 5.86746C9.77222 5.91911 9.65859 5.98109 9.56562 6.03274C9.49331 6.06373 9.421 6.10505 9.35902 6.13605C9.32803 6.15669 9.28671 6.17738 9.26605 6.18769C9.17308 6.23934 9.08011 6.29099 8.99747 6.34265C8.9045 6.3943 8.82186 6.44594 8.74954 6.49759C8.67724 6.54925 8.60492 6.59056 8.54294 6.64221C8.53259 6.65256 8.5223 6.65256 8.51195 6.66286C8.44997 6.7042 8.37766 6.75583 8.31568 6.80748C8.31568 6.80748 8.30534 6.81783 8.29504 6.82813C8.24339 6.86946 8.19174 6.91077 8.14009 6.95208C8.11944 6.96243 8.09875 6.98307 8.07811 6.99342C8.02646 7.03476 7.97481 7.08639 7.92316 7.12771C7.91281 7.14836 7.89217 7.1587 7.88182 7.16905C7.81984 7.23103 7.75786 7.28268 7.69588 7.34466C7.68553 7.34466 7.68553 7.35501 7.67524 7.3653C7.61326 7.41695 7.55127 7.47893 7.48929 7.54092C7.47895 7.55126 7.47895 7.56156 7.46865 7.56156C7.417 7.61321 7.36535 7.66486 7.3137 7.72684C7.29305 7.74748 7.26205 7.76818 7.24139 7.78882C7.18974 7.8508 7.12776 7.91278 7.06578 7.97476C7.05543 7.99541 7.03479 8.00575 7.02444 8.02641C6.9418 8.10906 6.86949 8.19169 6.78685 8.27434C6.7765 8.28468 6.76621 8.29498 6.75586 8.30532C6.59058 8.48094 6.41497 8.65655 6.22903 8.8115C6.04309 8.97678 5.84682 9.13173 5.65054 9.26602C5.44394 9.41064 5.24767 9.5346 5.03074 9.65856C4.82414 9.77219 4.60721 9.87549 4.37995 9.96847C4.16301 10.0614 3.93575 10.1441 3.70849 10.2164C3.27463 10.3094 2.83043 10.485 2.44822 10.516C2.36558 10.516 2.27261 10.5366 2.18997 10.5469C2.097 10.5676 2.01436 10.5883 1.93172 10.6089C1.84908 10.6399 1.76644 10.6709 1.6838 10.7019C1.60116 10.7329 1.51852 10.7742 1.43588 10.8155C1.36357 10.8672 1.28093 10.9085 1.20862 10.9601C1.13631 11.0118 1.064 11.0738 1.00201 11.1358C0.929707 11.1874 0.857394 11.2597 0.795414 11.3217C0.733433 11.394 0.671452 11.456 0.619803 11.5283C0.568154 11.6109 0.506173 11.6833 0.464851 11.7659C0.413202 11.8382 0.361553 11.9208 0.32023 12.0035C0.278894 12.0965 0.237591 12.1791 0.2066 12.2721C0.17561 12.3547 0.14462 12.4477 0.113629 12.5406C0.0929853 12.6233 0.0722926 12.7059 0.0619803 12.7886C0.0619803 12.7989 0.0516343 12.8092 0.0516343 12.8196C0.0309902 12.9125 0.0309902 13.0365 0.0206438 13.0985C0.0102978 13.1708 0 13.2328 0 13.3051C0 13.3464 3.21583e-08 13.398 0.010346 13.4394C0.0206919 13.5117 0.0309898 13.5737 0.0516827 13.6356C0.0723267 13.6976 0.0930194 13.7596 0.12399 13.8216V13.8319C0.154981 13.8939 0.196303 13.9559 0.23762 14.0179C0.278957 14.0798 0.320265 14.1418 0.371914 14.2038C0.423563 14.2555 0.485544 14.3174 0.547524 14.3691C0.609505 14.4311 0.671486 14.4827 0.743794 14.5344C0.991717 14.7513 1.0537 14.8236 1.37393 14.9889C1.42558 15.0199 1.47723 15.0405 1.53921 15.0715C1.54956 15.0715 1.55986 15.0819 1.5702 15.0819C1.5702 15.1025 1.5702 15.1129 1.58055 15.1335C1.5909 15.2162 1.61154 15.2988 1.6322 15.3815C1.65284 15.4744 1.68385 15.5571 1.71484 15.6294C1.74583 15.6914 1.76649 15.7533 1.79748 15.8153C1.80783 15.836 1.81813 15.8567 1.82847 15.867C1.86981 15.9496 1.91111 16.0219 1.95243 16.0942C2.00409 16.1665 2.05573 16.2388 2.10738 16.3112C2.15903 16.3731 2.22101 16.4454 2.28299 16.5074C2.34497 16.5694 2.40696 16.6211 2.47927 16.683C2.47927 16.683 2.48962 16.6934 2.49991 16.6934C2.56189 16.745 2.62387 16.7967 2.68585 16.838C2.75816 16.8897 2.83048 16.931 2.91311 16.9723C2.98543 17.0136 3.06807 17.0549 3.15071 17.0859C3.21269 17.1169 3.28499 17.1376 3.35731 17.1582C3.36765 17.1686 3.37795 17.1686 3.39864 17.1789C3.43998 17.1893 3.49161 17.1995 3.53293 17.2099C3.50194 17.7677 3.4916 18.2945 3.57427 18.4805C3.66724 18.6871 4.12176 18.0569 4.57628 17.3338C4.5143 18.0466 4.47298 18.8833 4.57628 19.1313C4.68991 19.3895 5.30972 18.5838 5.84688 17.6954C13.1709 16.0013 19.8544 21.063 20.5569 28.2114C20.4226 27.0957 19.0487 26.4759 18.4186 26.6309C18.1087 27.3953 17.5818 28.3767 16.7348 28.9862C16.8071 28.3044 16.7761 27.6019 16.6315 26.9201C16.4042 27.8705 15.96 28.7589 15.3505 29.5233C14.3692 29.5956 13.3878 29.1204 12.8713 28.4077C12.83 28.3767 12.8197 28.3147 12.7887 28.2734C12.7577 28.2011 12.7267 28.1288 12.706 28.0564C12.675 27.9841 12.6544 27.9118 12.6441 27.8395C12.6337 27.7672 12.6337 27.6949 12.6337 27.6123C12.6337 27.5606 12.6337 27.509 12.6337 27.4573C12.6441 27.385 12.6647 27.3127 12.6854 27.2404C12.706 27.1681 12.7267 27.0957 12.7577 27.0234C12.799 26.9511 12.83 26.8788 12.8816 26.8065C13.0572 26.3107 13.0572 25.9078 12.737 25.6702C12.675 25.6289 12.6131 25.5979 12.5407 25.5669C12.4994 25.5566 12.4478 25.5359 12.4065 25.5256C12.3755 25.5152 12.3548 25.5049 12.3238 25.4946C12.2515 25.4739 12.1792 25.4532 12.1069 25.4429C12.0346 25.4223 11.9623 25.4119 11.8899 25.4119C11.8176 25.4016 11.735 25.3913 11.6627 25.3913C11.611 25.3913 11.5594 25.4016 11.5077 25.4016C11.4251 25.4016 11.3528 25.412 11.2805 25.4326C11.2082 25.443 11.1359 25.4533 11.0635 25.474C10.9912 25.4946 10.9189 25.5153 10.8466 25.5463C10.7743 25.5773 10.7123 25.6083 10.64 25.6392C10.578 25.6702 10.5161 25.7115 10.4437 25.7425C8.03683 27.3127 9.47271 30.9902 11.1152 32.0542C10.4954 32.1678 9.86526 32.3021 9.68965 32.4364C9.6793 32.4468 9.669 32.4571 9.669 32.4571C10.1132 32.7256 10.578 32.9529 11.0636 33.1492C11.7247 33.3661 12.4271 33.5624 12.737 33.645V33.6554C13.5944 33.831 14.4622 33.893 15.3402 33.8413C19.9164 33.5211 23.6662 30.0398 24.348 25.4533C24.3687 25.5463 24.3894 25.6289 24.41 25.7219C24.441 25.9078 24.4823 26.1041 24.503 26.3004V26.3107C24.5236 26.4037 24.534 26.4967 24.5443 26.5793V26.6206C24.5547 26.7136 24.565 26.8066 24.565 26.8892C24.5753 27.0028 24.5856 27.1165 24.5856 27.2301V27.3954C24.5856 27.447 24.5959 27.509 24.5959 27.5607C24.5959 27.6227 24.5856 27.6846 24.5856 27.7466V27.8912C24.5856 27.9635 24.5752 28.0255 24.5752 28.0978C24.5752 28.1392 24.5752 28.1805 24.5649 28.2321C24.5649 28.3044 24.5546 28.3767 24.5546 28.4594C24.5442 28.4904 24.5442 28.5214 24.5442 28.5524C24.5338 28.635 24.5235 28.7073 24.5132 28.79C24.5132 28.8209 24.5132 28.8519 24.5029 28.8829C24.4925 28.9862 24.4719 29.0792 24.4615 29.1825V29.1929V29.2032C24.4409 29.2962 24.4202 29.3995 24.3995 29.4924V29.5234C24.3789 29.6164 24.3582 29.7094 24.3376 29.8023C24.3376 29.8127 24.3272 29.8333 24.3272 29.8437C24.3066 29.9366 24.2859 30.0296 24.2549 30.1226V30.1536C24.2239 30.2569 24.1929 30.3498 24.1723 30.4428C24.1619 30.4532 24.1619 30.4635 24.1619 30.4635C24.1309 30.5668 24.0999 30.6701 24.069 30.7734C24.0276 30.8767 23.9966 30.9696 23.9553 31.0729C23.914 31.1762 23.883 31.2795 23.8417 31.3725C23.8004 31.4758 23.7591 31.5688 23.7177 31.6721H23.7074C23.666 31.765 23.6247 31.8683 23.5731 31.9613C23.5627 31.9923 23.5524 32.013 23.5421 32.0336C23.5317 32.044 23.5317 32.0543 23.5214 32.0646C22.85 33.4179 21.8583 34.6058 20.6187 35.5355C20.5361 35.5872 20.4534 35.6491 20.3708 35.7111C20.3501 35.7318 20.3191 35.7421 20.2985 35.7628C20.2262 35.8144 20.1538 35.8661 20.0712 35.9177L20.1022 35.9797H20.1125C20.2572 35.9591 20.4018 35.9384 20.5464 35.9177H20.5567C20.8253 35.8764 21.0939 35.8248 21.3625 35.7731C21.4348 35.7627 21.5174 35.7421 21.5898 35.7215C21.6414 35.7111 21.6827 35.7008 21.7344 35.6905C21.8067 35.6801 21.879 35.6595 21.9513 35.6491C22.0133 35.6285 22.0753 35.6181 22.1373 35.5975C23.1703 35.3496 24.1723 35.0087 25.133 34.6058C23.4905 36.8474 21.2902 38.6552 18.718 39.8431C19.906 39.7605 21.0939 39.5642 22.2405 39.2337C26.4036 38.0044 29.9055 35.2049 32.0025 31.4345C31.5789 33.8207 30.6286 36.0933 29.2237 38.0767C30.2257 37.4156 31.1451 36.6511 31.9818 35.7834C34.2957 33.3662 35.8143 30.2982 36.3308 27.0029C36.682 28.635 36.7853 30.3188 36.6303 31.982C44.0886 21.5796 37.2501 10.795 34.3887 7.95424C34.3783 7.93359 34.3681 7.92325 34.3681 7.90259C34.3577 7.91293 34.3577 7.91293 34.3577 7.92323C34.3577 7.91289 34.3577 7.91289 34.3474 7.90259C34.3474 8.02655 34.337 8.15051 34.3267 8.27447C34.2957 8.51206 34.2647 8.73932 34.2234 8.96658C34.1718 9.19384 34.1098 9.4211 34.0478 9.64837C33.9755 9.86529 33.8929 10.0926 33.7999 10.3095C33.7069 10.5161 33.6036 10.733 33.49 10.9396C33.3763 11.1359 33.2524 11.3425 33.1181 11.5284C32.9838 11.7247 32.8392 11.9106 32.6946 12.0863C32.5396 12.2722 32.3743 12.4375 32.209 12.6028C32.1057 12.6957 32.0128 12.7784 31.9095 12.861C31.8268 12.9333 31.7545 12.9953 31.6719 13.0676C31.4859 13.2122 31.3 13.3465 31.0934 13.4705C30.8971 13.5944 30.6905 13.7184 30.4839 13.8217C30.267 13.925 30.0501 14.018 29.8331 14.111C29.6162 14.1936 29.3889 14.2659 29.1617 14.3279C28.9344 14.3899 28.6968 14.4415 28.4696 14.4828C28.232 14.5242 27.9944 14.5448 27.7671 14.5655C27.6018 14.5758 27.4366 14.5861 27.2713 14.5861C27.0337 14.5861 26.7961 14.5655 26.5688 14.5448C26.3312 14.5241 26.0937 14.4931 25.8664 14.4415C25.6288 14.4001 25.4015 14.3382 25.1743 14.2659H25.1639C25.3912 14.2452 25.6185 14.2245 25.8457 14.1832C26.0833 14.1419 26.3106 14.0903 26.5378 14.0283C26.7651 13.9663 26.9924 13.894 27.2093 13.8113C27.4365 13.7287 27.6535 13.6254 27.8601 13.5221C28.077 13.4188 28.2733 13.3052 28.4799 13.1812C28.6762 13.0469 28.8724 12.9126 29.0584 12.768C29.2443 12.6234 29.4199 12.4684 29.5852 12.3032C29.7608 12.1482 29.9158 11.9726 30.0707 11.797C30.2257 11.611 30.3703 11.4251 30.5046 11.2392C30.5252 11.2082 30.5459 11.1669 30.5666 11.1359C30.6699 10.9706 30.7732 10.8053 30.8661 10.64C30.9798 10.4334 31.0831 10.2268 31.176 10.0099C31.269 9.79295 31.3516 9.57602 31.424 9.34876C31.4963 9.13183 31.5479 8.90457 31.5996 8.67731C31.6409 8.43972 31.6822 8.21245 31.7029 7.98519C31.7235 7.7476 31.7442 7.51001 31.7442 7.28275C31.7442 7.11747 31.7338 6.95219 31.7236 6.78691C31.7029 6.54932 31.6719 6.32205 31.6409 6.09479C31.5996 5.8572 31.5479 5.62994 31.486 5.40268C31.4137 5.18575 31.3413 4.95849 31.2587 4.74156C31.1761 4.52462 31.0728 4.30769 30.9695 4.10109C30.8558 3.89449 30.7422 3.68789 30.6182 3.49162C30.4839 3.29535 30.3497 3.10941 30.205 2.92346C30.0501 2.74785 29.8951 2.57224 29.7298 2.39663C29.6472 2.31399 29.5542 2.22102 29.4613 2.13838C28.9964 1.77683 28.5109 1.43593 28.0254 1.12603C27.9531 1.0847 27.8911 1.05372 27.8188 1.02273C27.4779 0.805803 27.1576 0.692111 26.8374 0.588814Z" fill="#3A3A3C"/>
</svg>
