<svg width="80" height="17" viewBox="0 0 80 17" fill="none" xmlns="http://www.w3.org/2000/svg">
<g clip-path="url(#clip0_2442_1319)">
<path d="M53.1816 0.00683594H67.1163V2.5788H61.5885V16.1096H58.8245V2.5788H53.1816V0.00683594Z" fill="#3A3A3C"/>
<path d="M30.2646 0.00683594V2.5788H19.0951V6.7163H28.0776V9.28826H19.0951V13.5376H30.2646V16.1096H16.3312V2.5788H16.3301V0.00683594H30.2646Z" fill="#3A3A3C"/>
<path d="M37.2225 0.0136719H33.6055L46.561 16.1164H50.1886L43.71 8.07058L50.1783 0.0259572L46.561 0.0315471L41.8991 5.8215L37.2225 0.0136719Z" fill="#3A3A3C"/>
<path d="M40.9348 11.5158L39.1234 9.26367L33.5957 16.1286H37.2231L40.9348 11.5158Z" fill="#3A3A3C"/>
<path fill-rule="evenodd" clip-rule="evenodd" d="M16.4278 16.1094L3.45484 0H0V16.1027H2.76388V3.44195L12.9557 16.1094H16.4278Z" fill="#3A3A3C"/>
<path d="M67.7363 16.0114C67.5339 16.0114 67.3617 15.9413 67.2175 15.801C67.0734 15.6608 67.0021 15.491 67.0039 15.2899C67.0021 15.0942 67.0734 14.9263 67.2175 14.7861C67.3617 14.6458 67.5339 14.5757 67.7363 14.5757C67.931 14.5757 68.1014 14.6458 68.2456 14.7861C68.3918 14.9263 68.4647 15.0942 68.4667 15.2899C68.4647 15.4227 68.4309 15.5445 68.3635 15.6534C68.2943 15.7641 68.2064 15.8509 68.0957 15.9136C67.9871 15.9782 67.8673 16.0114 67.7363 16.0114Z" fill="#3A3A3C"/>
<path d="M72.4556 9.22754H73.6803V13.9462C73.6785 14.3798 73.5847 14.7508 73.4013 15.0626C73.216 15.3745 72.9593 15.6125 72.6298 15.7805C72.3021 15.9465 71.9181 16.0315 71.4818 16.0315C71.0828 16.0315 70.7252 15.9595 70.4068 15.8192C70.0885 15.679 69.8357 15.4686 69.6503 15.1918C69.4629 14.915 69.3711 14.5699 69.3711 14.1566H70.5979C70.5997 14.3374 70.6409 14.4942 70.7195 14.6253C70.7981 14.7563 70.9067 14.8559 71.0454 14.9261C71.1857 14.9962 71.3469 15.0313 71.5285 15.0313C71.7252 15.0313 71.8937 14.9906 72.0304 14.9076C72.167 14.8264 72.272 14.7046 72.3451 14.5422C72.4162 14.3817 72.4537 14.1824 72.4556 13.9462V9.22754Z" fill="#3A3A3C"/>
<path d="M78.7192 11.073C78.6894 10.787 78.5582 10.5637 78.3298 10.405C78.0993 10.2444 77.8017 10.1651 77.4364 10.1651C77.1799 10.1651 76.959 10.2038 76.7755 10.2795C76.5919 10.357 76.4496 10.4603 76.3521 10.5914C76.2549 10.7224 76.2061 10.8719 76.2023 11.0398C76.2023 11.18 76.236 11.3018 76.3016 11.4033C76.3671 11.5067 76.4551 11.5934 76.5694 11.6635C76.6817 11.7355 76.8071 11.7945 76.944 11.8425C77.0825 11.8905 77.2212 11.9311 77.3596 11.9643L77.9982 12.1212C78.2549 12.1802 78.504 12.2596 78.7418 12.3611C78.9795 12.4607 79.195 12.5881 79.384 12.7412C79.5732 12.8944 79.7231 13.0789 79.8335 13.2949C79.944 13.5108 80.0002 13.7636 80.0002 14.0551C80.0002 14.4482 79.8991 14.7933 79.6949 15.0922C79.4908 15.3893 79.1968 15.6219 78.811 15.7898C78.427 15.9559 77.9627 16.0408 77.4159 16.0408C76.8878 16.0408 76.427 15.9596 76.0394 15.7972C75.65 15.6366 75.3464 15.4004 75.1273 15.0904C74.9083 14.7804 74.7903 14.4021 74.7734 13.9573H75.987C76.0039 14.1898 76.0788 14.3836 76.2061 14.5405C76.3353 14.6955 76.5038 14.8099 76.7099 14.8874C76.9178 14.9631 77.1499 15.0018 77.4065 15.0018C77.6744 15.0018 77.9103 14.9612 78.1144 14.8819C78.3166 14.8025 78.4758 14.6918 78.5901 14.5479C78.7062 14.4058 78.7643 14.2378 78.7661 14.0459C78.7643 13.8706 78.7117 13.7248 78.6106 13.6104C78.5077 13.496 78.3653 13.4 78.1836 13.3225C78.0002 13.245 77.7866 13.1749 77.5432 13.114L76.768 12.9184C76.208 12.7763 75.7641 12.5604 75.44 12.2707C75.1143 11.9809 74.9531 11.5971 74.9531 11.1155C74.9531 10.7206 75.0618 10.3736 75.2811 10.0765C75.4981 9.77942 75.796 9.54874 76.1724 9.3845C76.5507 9.21843 76.9777 9.13721 77.4532 9.13721C77.9365 9.13721 78.3596 9.21843 78.7249 9.3845C79.09 9.54874 79.3767 9.77757 79.5844 10.0691C79.7923 10.3607 79.901 10.6947 79.9066 11.073H78.7192Z" fill="#3A3A3C"/>
</g>
<defs>
<clipPath id="clip0_2442_1319">
<rect width="80" height="16.2437" fill="white"/>
</clipPath>
</defs>
</svg>
