<svg width="40" height="40" viewBox="0 0 40 40" fill="none" xmlns="http://www.w3.org/2000/svg">
<g id="nodejs">
<g id="nodejs_2">
<path id="Vector" d="M18.5114 0.426744C19.5032 -0.140965 20.7951 -0.143529 21.786 0.426744C26.7715 3.24378 31.7585 6.05639 36.743 8.87513C37.6806 9.40324 38.3077 10.4466 38.2981 11.5269V28.4753C38.3051 29.6003 37.616 30.6686 36.6269 31.1847C31.6579 33.9862 26.6914 36.7912 21.7232 39.5927C20.7109 40.1715 19.3931 40.1269 18.4124 39.5006C16.9227 38.637 15.4304 37.7777 13.9405 36.915C13.6361 36.7335 13.2929 36.589 13.0779 36.2938C13.268 36.0377 13.6077 36.0058 13.8838 35.8939C14.5057 35.6962 15.0768 35.3788 15.6481 35.0708C15.7925 34.9719 15.9689 35.0098 16.1074 35.0983C17.3813 35.8287 18.6439 36.5803 19.9221 37.3037C20.1947 37.4612 20.4708 37.2522 20.7039 37.1222C25.58 34.3663 30.4622 31.6208 35.3375 28.864C35.5182 28.7771 35.618 28.5854 35.6033 28.3875C35.6068 22.7966 35.6042 17.2047 35.6051 11.6138C35.6257 11.3893 35.4958 11.1829 35.2928 11.091C30.341 8.30229 25.3917 5.50934 20.4408 2.71994C20.355 2.66097 20.2534 2.62933 20.1493 2.62918C20.0452 2.62903 19.9435 2.66037 19.8575 2.71909C14.9066 5.50934 9.95816 8.30486 5.0072 11.0934C4.8049 11.1854 4.66914 11.3884 4.69321 11.6138C4.69407 17.2047 4.69321 22.7966 4.69321 28.3884C4.68463 28.4849 4.70583 28.5818 4.75397 28.6659C4.80211 28.75 4.87488 28.8174 4.96247 28.8589C6.28365 29.6081 7.60655 30.352 8.92859 31.0987C9.67338 31.4996 10.5878 31.7378 11.4084 31.4306C12.1325 31.1709 12.6401 30.432 12.6263 29.6631C12.6332 24.1048 12.6229 18.5457 12.6314 12.9883C12.6134 12.7415 12.8474 12.5377 13.0873 12.5609C13.7221 12.5566 14.3578 12.5523 14.9926 12.5626C15.2576 12.5566 15.4399 12.8223 15.4072 13.0709C15.4046 18.6644 15.414 24.258 15.4029 29.8514C15.4046 31.3421 14.7922 32.9642 13.4133 33.6936C11.7146 34.5736 9.61497 34.387 7.93677 33.5432C6.48395 32.8181 5.09752 31.9623 3.67048 31.1854C2.67881 30.6722 1.99314 29.5996 2.00012 28.4754V11.5269C1.98972 10.4243 2.64177 9.36192 3.60851 8.84151C8.57671 6.03773 13.5441 3.23181 18.5114 0.426744Z" fill="#3A3A3C"/>
<path id="Vector_2" d="M22.8464 12.1671C25.0133 12.0276 27.333 12.0844 29.2828 13.1519C30.7925 13.9699 31.6295 15.6867 31.6561 17.3639C31.6139 17.5901 31.3774 17.7149 31.1615 17.6994C30.5328 17.6986 29.904 17.708 29.2753 17.6951C29.0086 17.7054 28.8536 17.4595 28.8201 17.2237C28.6395 16.4212 28.2018 15.6265 27.4465 15.2394C26.287 14.6589 24.9426 14.6881 23.6783 14.7002C22.7552 14.7492 21.7627 14.8291 20.9807 15.3719C20.3804 15.783 20.1981 16.613 20.4123 17.2814C20.6143 17.7614 21.1684 17.9162 21.6217 18.059C24.233 18.7419 27.0002 18.674 29.5616 19.5728C30.6221 19.9392 31.6595 20.6515 32.0225 21.7618C32.4973 23.25 32.2892 25.0288 31.2304 26.2234C30.3718 27.2066 29.1213 27.7417 27.874 28.0323C26.2148 28.4022 24.4928 28.4117 22.8078 28.2474C21.2234 28.0668 19.5745 27.6505 18.3513 26.5709C17.3054 25.6627 16.7945 24.2476 16.8452 22.8819C16.8573 22.6512 17.087 22.4904 17.3079 22.5093C17.941 22.5042 18.5741 22.5025 19.2072 22.5102C19.4601 22.4921 19.6476 22.7106 19.6606 22.949C19.7774 23.7136 20.0647 24.516 20.7314 24.9694C22.0182 25.7995 23.6327 25.7426 25.106 25.7659C26.3266 25.7117 27.6968 25.6953 28.6929 24.8886C29.2184 24.4284 29.3741 23.6586 29.2321 22.9963C29.0783 22.4371 28.4933 22.1765 27.991 22.0062C25.4131 21.1907 22.6151 21.4866 20.0622 20.5644C19.0257 20.1982 18.0235 19.5057 17.6254 18.4409C17.0698 16.934 17.3243 15.07 18.4941 13.9156C19.6346 12.7674 21.2811 12.3252 22.8464 12.1669V12.1671Z" fill="#3A3A3C"/>
</g>
</g>
</svg>
