<svg width="29" height="29" viewBox="0 0 29 29" fill="none" xmlns="http://www.w3.org/2000/svg">
<path d="M16.1996 8.39995C16.531 8.39995 16.7996 8.13132 16.7996 7.79995C16.7996 7.46858 16.531 7.19995 16.1996 7.19995C15.8682 7.19995 15.5996 7.46858 15.5996 7.79995C15.5996 8.13132 15.8682 8.39995 16.1996 8.39995Z" stroke="#0052DE" stroke-width="2.4" stroke-linecap="round" stroke-linejoin="round"/>
<path d="M21.0004 13.2C21.3318 13.2 21.6004 12.9314 21.6004 12.6C21.6004 12.2686 21.3318 12 21.0004 12C20.669 12 20.4004 12.2686 20.4004 12.6C20.4004 12.9314 20.669 13.2 21.0004 13.2Z" stroke="#0052DE" stroke-width="2.4" stroke-linecap="round" stroke-linejoin="round"/>
<path d="M10.1996 9.5999C10.531 9.5999 10.7996 9.33127 10.7996 8.9999C10.7996 8.66853 10.531 8.3999 10.1996 8.3999C9.86824 8.3999 9.59961 8.66853 9.59961 8.9999C9.59961 9.33127 9.86824 9.5999 10.1996 9.5999Z" stroke="#0052DE" stroke-width="2.4" stroke-linecap="round" stroke-linejoin="round"/>
<path d="M7.79922 15.5999C8.13059 15.5999 8.39922 15.3313 8.39922 14.9999C8.39922 14.6685 8.13059 14.3999 7.79922 14.3999C7.46785 14.3999 7.19922 14.6685 7.19922 14.9999C7.19922 15.3313 7.46785 15.5999 7.79922 15.5999Z" stroke="#0052DE" stroke-width="2.4" stroke-linecap="round" stroke-linejoin="round"/>
<path d="M14.4004 2.3999C7.80039 2.3999 2.40039 7.7999 2.40039 14.3999C2.40039 20.9999 7.80039 26.3999 14.4004 26.3999C15.5116 26.3999 16.378 25.5047 16.378 24.3743C16.378 23.8499 16.162 23.3723 15.8536 23.0243C15.5056 22.6775 15.328 22.2419 15.328 21.6743C15.3234 21.4102 15.3721 21.1479 15.4711 20.903C15.5701 20.6581 15.7173 20.4356 15.9041 20.2488C16.0909 20.062 16.3134 19.9148 16.5583 19.8158C16.8032 19.7168 17.0655 19.6682 17.3296 19.6727H19.7248C23.386 19.6727 26.3908 16.6691 26.3908 13.0079C26.3584 7.2143 20.9536 2.3999 14.4004 2.3999Z" stroke="#0052DE" stroke-width="2.4" stroke-linecap="round" stroke-linejoin="round"/>
</svg>
