<svg width="14" height="14" viewBox="0 0 14 14" fill="none" xmlns="http://www.w3.org/2000/svg">
<path d="M12.5325 9.55206V11.3521C12.5332 11.5192 12.4989 11.6846 12.432 11.8377C12.365 11.9908 12.2669 12.1282 12.1437 12.2412C12.0206 12.3541 11.8752 12.4401 11.7169 12.4937C11.5586 12.5472 11.3909 12.5671 11.2245 12.5521C9.37818 12.3514 7.60468 11.7205 6.04648 10.7101C4.59678 9.78886 3.36768 8.55976 2.44648 7.11006C1.43247 5.54478 0.801425 3.76265 0.604479 1.90806C0.589486 1.74214 0.609204 1.57491 0.66238 1.41703C0.715555 1.25915 0.801022 1.11407 0.913339 0.991029C1.02566 0.867988 1.16236 0.769682 1.31475 0.70237C1.46715 0.635057 1.63188 0.600214 1.79848 0.600057H3.59848C3.88966 0.597191 4.17195 0.700304 4.39274 0.890176C4.61352 1.08005 4.75773 1.34372 4.79848 1.63206C4.87445 2.2081 5.01535 2.77369 5.21848 3.31806C5.29921 3.53281 5.31668 3.76621 5.26882 3.99058C5.22097 4.21496 5.1098 4.42092 4.94848 4.58406L4.18648 5.34606C5.04061 6.84818 6.28435 8.09192 7.78648 8.94606L8.54848 8.18406C8.71161 8.02274 8.91757 7.91157 9.14195 7.86371C9.36633 7.81586 9.59973 7.83333 9.81448 7.91406C10.3588 8.11719 10.9244 8.25808 11.5005 8.33406C11.7919 8.37518 12.0581 8.52198 12.2484 8.74655C12.4387 8.97113 12.5398 9.2578 12.5325 9.55206Z" stroke="black" stroke-width="1.2" stroke-linecap="round" stroke-linejoin="round"/>
</svg>
