<svg width="40" height="40" viewBox="0 0 40 40" fill="none" xmlns="http://www.w3.org/2000/svg">
<g id="postgresql">
<g id="postgresql_2">
<path id="Vector" d="M39.3894 23.9609C39.1569 23.2546 38.5477 22.7627 37.7599 22.6446C37.3884 22.589 36.963 22.6127 36.4596 22.7168C35.5821 22.8983 34.9311 22.9675 34.456 22.9808C36.2493 19.9447 37.7075 16.4825 38.5469 13.2234C39.9044 7.95349 39.179 5.55271 38.3313 4.4668C36.0881 1.59249 32.8152 0.0483907 28.8668 0.0011439C26.7605 -0.0246823 24.9115 0.392335 23.9469 0.692223C23.0488 0.533315 22.0831 0.444595 21.0699 0.428188C19.1706 0.397804 17.4924 0.812998 16.0584 1.66633C15.2646 1.39713 13.9905 1.01763 12.5191 0.775474C9.05855 0.205778 6.26943 0.649685 4.22934 2.09489C1.75898 3.84469 0.613792 6.88489 0.825589 11.131C0.892855 12.4791 1.6449 16.581 2.82902 20.471C3.50956 22.7069 4.23524 24.5637 4.98593 25.9902C6.05052 28.013 7.18964 29.2042 8.46845 29.632C9.1852 29.8714 10.4875 30.0391 11.8572 28.8952C12.0308 29.1061 12.2625 29.3155 12.5699 29.5102C12.9603 29.757 13.4376 29.9588 13.9144 30.0783C15.6326 30.509 17.242 30.4013 18.615 29.7976C18.6235 30.0425 18.63 30.2764 18.6355 30.4785C18.6445 30.8062 18.6536 31.1275 18.6656 31.428C18.747 33.4597 18.8848 35.0395 19.2933 36.1449C19.3157 36.2057 19.3458 36.2983 19.3777 36.3966C19.5814 37.0222 19.9221 38.0696 20.789 38.8898C21.6867 39.7395 22.7725 40 23.7669 40C24.2656 40 24.7415 39.9344 25.1589 39.8447C26.6466 39.5249 28.3363 39.0379 29.5586 37.2927C30.7142 35.6428 31.276 33.1579 31.3777 29.2425C31.3908 29.1317 31.403 29.026 31.4146 28.9253L31.4389 28.7184L31.7111 28.7424L31.7812 28.7471C33.2965 28.8163 35.1494 28.4941 36.2873 27.9641C37.1865 27.5457 40.0678 26.0203 39.3894 23.9609Z" fill="black"/>
<path id="Vector_2" d="M36.798 24.3612C32.2924 25.2932 31.9826 23.7636 31.9826 23.7636C36.7397 16.6852 38.7284 7.70026 37.0124 5.50123C32.3304 -0.497288 24.2259 2.33965 24.0907 2.41318L24.0472 2.42108C23.157 2.23573 22.1609 2.12544 21.0411 2.10706C19.0025 2.07364 17.456 2.64303 16.2825 3.5354C16.2825 3.5354 1.82486 -2.43714 2.49736 11.0469C2.64038 13.9154 6.59756 32.752 11.3174 27.0625C13.0425 24.982 14.7095 23.2229 14.7095 23.2229C15.5373 23.7744 16.5284 24.0557 17.5674 23.9547L17.6481 23.886C17.623 24.1443 17.6345 24.3969 17.6804 24.696C16.4645 26.0583 16.8218 26.2974 14.3912 26.7992C11.9316 27.3075 13.3764 28.2124 14.3198 28.4491C15.4635 28.7357 18.1093 29.142 19.897 26.6324L19.8258 26.9188C20.3021 27.3015 20.6366 29.4077 20.5806 31.3171C20.5245 33.2264 20.4871 34.5374 20.8623 35.5613C21.2379 36.5852 21.612 38.8891 24.8074 38.2026C27.4773 37.6288 28.8609 36.1419 29.0535 33.6617C29.19 31.8985 29.4992 32.1592 29.5186 30.5828L29.7666 29.8365C30.0525 27.4464 29.8121 26.6752 31.4569 27.0339L31.8568 27.0692C33.0673 27.1243 34.652 26.8738 35.5821 26.4404C37.5846 25.5085 38.7724 23.9524 36.7977 24.3612H36.798Z" fill="#3A3A3C"/>
<path id="Vector_3" d="M17.128 12.3298C16.722 12.2731 16.3543 12.3255 16.1683 12.4668C16.0638 12.5463 16.0313 12.6383 16.0226 12.7017C15.9992 12.8695 16.1165 13.0552 16.1886 13.1509C16.3925 13.4219 16.6904 13.6082 16.9852 13.6492C17.0279 13.6553 17.0705 13.658 17.1127 13.658C17.6044 13.658 18.0514 13.2741 18.0908 12.9908C18.1401 12.6359 17.6263 12.3994 17.128 12.3299V12.3298ZM30.5788 12.341C30.54 12.0629 30.0465 11.9836 29.578 12.0489C29.1102 12.1142 28.6566 12.326 28.6945 12.6048C28.7248 12.8215 29.1152 13.1916 29.5773 13.1916C29.6163 13.1916 29.6557 13.189 29.6954 13.1834C30.0039 13.1406 30.2302 12.9441 30.3378 12.831C30.5014 12.6584 30.5962 12.4661 30.5788 12.341Z" fill="white"/>
<path id="Vector_4" d="M38.2977 24.2556C38.1259 23.7347 37.5729 23.5671 36.6542 23.7573C33.9264 24.3219 32.9495 23.9308 32.6288 23.694C34.7491 20.4551 36.4933 16.5398 37.4343 12.8869C37.88 11.1565 38.1262 9.54954 38.1463 8.2397C38.1686 6.80208 37.9244 5.74564 37.4208 5.10029C35.3904 2.49867 32.4104 1.10314 28.8031 1.06486C26.3232 1.0369 24.228 1.67329 23.8218 1.85225C22.9664 1.63896 22.034 1.50801 21.0188 1.49129C19.1571 1.46106 17.5479 1.90801 16.2156 2.81907C15.6369 2.60304 14.1413 2.08819 12.3122 1.7927C9.15008 1.28225 6.6373 1.66904 4.84414 2.94288C2.7045 4.46299 1.71672 7.18021 1.90807 11.0189C1.97246 12.3104 2.70632 16.2834 3.86439 20.0882C5.38879 25.096 7.04589 27.931 8.78936 28.5142C8.99343 28.5824 9.22871 28.6301 9.48823 28.6301C10.1242 28.6301 10.904 28.3427 11.7153 27.3646C12.7048 26.1743 13.7284 25.0128 14.7848 23.8817C15.4702 24.2506 16.2232 24.4566 16.9932 24.4773C16.9948 24.4975 16.9967 24.5177 16.9985 24.5377C16.866 24.6962 16.7362 24.857 16.6092 25.0201C16.0756 25.6993 15.9646 25.8407 14.247 26.1953C13.7584 26.2965 12.4608 26.5646 12.4417 27.4768C12.4211 28.4734 13.9757 28.8919 14.1528 28.9363C14.77 29.0912 15.3646 29.1676 15.9317 29.1676C17.3108 29.1676 18.5245 28.7131 19.4944 27.8336C19.4645 31.3864 19.6122 34.8872 20.0376 35.9538C20.3861 36.8271 21.2372 38.9611 23.9257 38.9609C24.3202 38.9609 24.7544 38.9149 25.2321 38.8122C28.0381 38.2091 29.2566 36.9655 29.7279 34.2238C29.9801 32.7585 30.413 29.2597 30.6166 27.3829C31.0463 27.5173 31.5994 27.5789 32.1973 27.5787C33.4445 27.5787 34.8836 27.313 35.7861 26.8929C36.7999 26.4208 38.6294 25.2622 38.2977 24.2556ZM31.6156 11.5734C31.6063 12.1275 31.5303 12.6305 31.4497 13.1555C31.3629 13.7202 31.2732 14.304 31.2506 15.0127C31.2284 15.7024 31.3143 16.4195 31.3973 17.113C31.5651 18.5137 31.7374 19.9557 31.0706 21.3786C30.9599 21.1818 30.8612 20.9784 30.7752 20.7695C30.6923 20.5681 30.5124 20.2445 30.2631 19.7966C29.2937 18.0532 27.0235 13.9705 28.1856 12.3046C28.5318 11.8087 29.4104 11.2989 31.6156 11.5734ZM28.9425 2.18678C32.1746 2.25833 34.7313 3.4708 36.5415 5.7903C37.9298 7.56943 36.401 15.6647 31.9753 22.6486C31.9307 22.5919 31.886 22.5353 31.841 22.4789L31.785 22.4087C32.9286 20.5148 32.705 18.6408 32.506 16.9795C32.4241 16.2976 32.3469 15.6537 32.3666 15.0487C32.3869 14.4076 32.4714 13.8577 32.5532 13.3259C32.6537 12.6707 32.7559 11.9927 32.7278 11.1935C32.7488 11.1096 32.7573 11.0105 32.7462 10.893C32.6743 10.1265 31.8016 7.8327 30.023 5.75658C29.0501 4.62098 27.6313 3.35018 25.6941 2.49305C26.5273 2.31986 27.6667 2.15837 28.9425 2.18678ZM10.8567 26.6488C9.96288 27.7265 9.34567 27.5199 9.14266 27.4522C7.82006 27.0098 6.28536 24.2066 4.93232 19.7614C3.76152 15.9151 3.07735 12.0474 3.02311 10.9628C2.85222 7.53282 3.68138 5.14237 5.48771 3.85774C8.42742 1.76733 13.2606 3.01854 15.2027 3.6531C15.1748 3.68075 15.1457 3.70658 15.1181 3.73468C11.9312 6.96206 12.0068 12.4761 12.0146 12.8132C12.0143 12.9433 12.0253 13.1274 12.0401 13.3806C12.0949 14.3081 12.1971 16.0342 11.9244 17.989C11.671 19.8055 12.2295 21.5834 13.4562 22.8669C13.5821 22.9984 13.7144 23.1235 13.8526 23.2419C13.3066 23.8283 12.1199 25.1251 10.8567 26.6488ZM14.2623 22.0923C13.2736 21.0577 12.8246 19.6187 13.0302 18.1439C13.318 16.079 13.2118 14.2806 13.1547 13.3144C13.1467 13.1792 13.1395 13.0607 13.1354 12.9673C13.601 12.5533 15.7585 11.3941 17.2972 11.7477C17.9992 11.9088 18.427 12.3883 18.6049 13.2129C19.5254 17.4823 18.7267 19.2617 18.085 20.6917C17.9527 20.9863 17.8277 21.2648 17.7211 21.5528L17.6383 21.7755C17.429 22.3386 17.2341 22.8621 17.1134 23.3591C16.0623 23.3561 15.0398 22.9058 14.2623 22.0921V22.0923ZM14.4236 27.85C14.1167 27.7732 13.8407 27.6396 13.6787 27.5289C13.814 27.4651 14.0547 27.3782 14.4723 27.2919C16.4928 26.8749 16.8049 26.5804 17.4864 25.7128C17.6426 25.5138 17.8197 25.2884 18.065 25.0137L18.0653 25.0134C18.4305 24.6032 18.5976 24.6728 18.9006 24.7989C19.1462 24.9007 19.3854 25.2094 19.4824 25.5491C19.5283 25.7095 19.5798 26.0139 19.4112 26.2509C17.9877 28.2496 15.9134 28.2239 14.4236 27.85ZM24.9982 37.7175C22.5263 38.2486 21.6511 36.9839 21.0744 35.538C20.7021 34.6047 20.5191 30.3956 20.6489 25.7473C20.6506 25.6855 20.6418 25.6258 20.6249 25.5696C20.6097 25.4586 20.5866 25.3488 20.5558 25.2411C20.3628 24.5648 19.8924 23.999 19.328 23.7645C19.1038 23.6713 18.6923 23.5004 18.1978 23.6273C18.3033 23.1916 18.4861 22.6995 18.6844 22.1667L18.7676 21.9427C18.8612 21.69 18.9788 21.4283 19.103 21.1512C19.7746 19.6551 20.6944 17.6058 19.6962 12.9764C19.3223 11.2424 18.0736 10.3956 16.1807 10.5923C15.046 10.7101 14.0078 11.1692 13.49 11.4324C13.3786 11.4889 13.2768 11.5436 13.1817 11.5968C13.3262 9.84973 13.8722 6.58469 15.9147 4.51889C17.2008 3.21846 18.9135 2.57615 21.0003 2.61079C25.112 2.67824 27.7487 4.79417 29.2367 6.55749C30.519 8.07684 31.2134 9.60742 31.4904 10.433C29.4066 10.2204 27.9893 10.6329 27.2709 11.6629C25.7078 13.9034 28.1259 18.2519 29.2881 20.3419C29.5012 20.7249 29.6852 21.0559 29.743 21.1966C30.1215 22.1163 30.6114 22.7304 30.9691 23.1785C31.0788 23.3158 31.1852 23.4491 31.2661 23.5655C30.6349 23.7479 29.5013 24.1695 29.6046 26.2768C29.5212 27.3341 28.9287 32.2845 28.6277 34.0336C28.2303 36.3443 27.3824 37.2049 24.9982 37.7176V37.7175ZM35.316 25.8775C34.6706 26.1779 33.5905 26.4031 32.5646 26.4516C31.4314 26.5048 30.8545 26.3243 30.7187 26.2132C30.6551 24.9001 31.1425 24.7629 31.6583 24.6176C31.7394 24.5949 31.8184 24.5725 31.8948 24.5458C31.9422 24.5845 31.9942 24.623 32.0511 24.6606C32.962 25.2635 34.5865 25.3285 36.8801 24.8537L36.9052 24.8487C36.5959 25.1387 36.0665 25.5279 35.316 25.8775Z" fill="white"/>
</g>
</g>
</svg>
