<svg width="14" height="14" viewBox="0 0 14 14" fill="none" xmlns="http://www.w3.org/2000/svg">
<path d="M9.9 11.55C10.8113 11.55 11.55 10.8113 11.55 9.9C11.55 8.98873 10.8113 8.25 9.9 8.25C8.98873 8.25 8.25 8.98873 8.25 9.9C8.25 10.8113 8.98873 11.55 9.9 11.55Z" stroke="#0052DE" stroke-opacity="0.75" stroke-width="1.1" stroke-linecap="round" stroke-linejoin="round"/>
<path d="M3.30039 4.9499C4.21166 4.9499 4.95039 4.21117 4.95039 3.2999C4.95039 2.38863 4.21166 1.6499 3.30039 1.6499C2.38912 1.6499 1.65039 2.38863 1.65039 3.2999C1.65039 4.21117 2.38912 4.9499 3.30039 4.9499Z" stroke="#0052DE" stroke-opacity="0.75" stroke-width="1.1" stroke-linecap="round" stroke-linejoin="round"/>
<path d="M7.15039 3.30005H8.80039C9.09213 3.30005 9.37192 3.41594 9.57821 3.62223C9.7845 3.82852 9.90039 4.10831 9.90039 4.40005V8.25005" stroke="#0052DE" stroke-opacity="0.75" stroke-width="1.1" stroke-linecap="round" stroke-linejoin="round"/>
<path d="M3.30078 4.94995V11.55" stroke="#0052DE" stroke-opacity="0.75" stroke-width="1.1" stroke-linecap="round" stroke-linejoin="round"/>
</svg>
