<svg width="40" height="40" viewBox="0 0 40 40" fill="none" xmlns="http://www.w3.org/2000/svg">
<g id="prisma">
<g id="prisma_2">
<path id="Vector" fill-rule="evenodd" clip-rule="evenodd" d="M3.90915 27.4558C3.50222 26.8139 3.49607 25.9963 3.89331 25.3482L18.85 0.95089C19.6819 -0.406082 21.6906 -0.287431 22.357 1.15802L36.0206 30.7977C36.5275 31.8975 35.944 33.1914 34.784 33.5394L13.5292 39.9159C12.674 40.1723 11.7526 39.8286 11.2746 39.0745L3.90915 27.4558ZM20.5757 8.08448C20.7198 7.36676 21.7032 7.26327 21.9936 7.93524L31.4186 29.7442C31.5959 30.1548 31.3752 30.6283 30.9465 30.7562L16.2611 35.14C15.7213 35.3011 15.2043 34.8295 15.3152 34.2771L20.5757 8.08448Z" fill="#3A3A3C"/>
</g>
</g>
</svg>
