<svg width="14" height="14" viewBox="0 0 14 14" fill="none" xmlns="http://www.w3.org/2000/svg">
<path d="M1.64961 11.5501C3.29961 11.5501 5.49961 11.0001 5.49961 7.15005V2.75005C5.49961 2.06255 5.08381 1.6407 4.39961 1.65005H2.19961C1.51211 1.65005 1.09961 2.06255 1.09961 2.73465V6.05005C1.09961 6.73755 1.51211 7.15005 2.19961 7.15005C2.74961 7.15005 2.74961 7.15005 2.74961 7.70005V8.25005C2.74961 8.80005 2.19961 9.35005 1.64961 9.35005C1.09961 9.35005 1.09961 9.35445 1.09961 9.9171V11.0001C1.09961 11.5501 1.09961 11.5501 1.64961 11.5501Z" stroke="#0052DE" stroke-opacity="0.75" stroke-width="1.1" stroke-linecap="round" stroke-linejoin="round"/>
<path d="M8.24922 11.5501C9.89922 11.5501 12.0992 11.0001 12.0992 7.15005V2.75005C12.0992 2.06255 11.6829 1.6407 10.9992 1.65005H8.79922C8.11172 1.65005 7.69922 2.06255 7.69922 2.73465V6.05005C7.69922 6.73755 8.11172 7.15005 8.79922 7.15005H9.21172C9.21172 8.38755 9.34922 9.35005 7.69922 9.35005V11.0001C7.69922 11.5501 7.69922 11.5501 8.24922 11.5501Z" stroke="#0052DE" stroke-opacity="0.75" stroke-width="1.1" stroke-linecap="round" stroke-linejoin="round"/>
</svg>
