<svg width="40" height="40" viewBox="0 0 40 40" fill="none" xmlns="http://www.w3.org/2000/svg">
<path d="M19.921 23.5266C21.8687 23.5266 23.4475 21.9478 23.4475 20.0001C23.4475 18.0525 21.8687 16.4736 19.921 16.4736C17.9734 16.4736 16.3945 18.0525 16.3945 20.0001C16.3945 21.9478 17.9734 23.5266 19.921 23.5266Z" fill="#3A3A3C"/>
<path d="M19.9226 27.2249C30.3733 27.2249 38.8453 23.9902 38.8453 19.9999C38.8453 16.0096 30.3733 12.7749 19.9226 12.7749C9.47196 12.7749 1 16.0096 1 19.9999C1 23.9902 9.47196 27.2249 19.9226 27.2249Z" stroke="#3A3A3C" stroke-width="2"/>
<path d="M13.664 23.6125C18.8894 32.6631 25.9267 38.3826 29.3824 36.3875C32.8381 34.3924 31.4035 25.4381 26.1781 16.3875C20.9528 7.33693 13.9154 1.61737 10.4598 3.61251C7.00408 5.60764 8.43869 14.5619 13.664 23.6125Z" stroke="#3A3A3C" stroke-width="2"/>
<path d="M13.6652 16.3876C8.43987 25.4381 7.00527 34.3924 10.4609 36.3876C13.9166 38.3827 20.954 32.6632 26.1793 23.6126C31.4046 14.562 32.8393 5.60772 29.3836 3.61259C25.9279 1.61746 18.8906 7.33702 13.6652 16.3876Z" stroke="#3A3A3C" stroke-width="2"/>
</svg>
