<svg width="40" height="40" viewBox="0 0 40 40" fill="none" xmlns="http://www.w3.org/2000/svg">
<g id="redux">
<g id="redux_2">
<path id="Vector" d="M27.7158 27.721C29.1919 27.5682 30.3118 26.2957 30.2608 24.7685C30.21 23.2414 28.9374 22.0197 27.4103 22.0197H27.3086C25.7305 22.0707 24.5089 23.3941 24.5599 24.9721C24.6108 25.7357 24.9161 26.3974 25.3742 26.8555C23.6436 30.2661 20.9967 32.7603 17.0264 34.8474C14.3286 36.2727 11.5291 36.7818 8.72954 36.4255C6.43891 36.12 4.65735 35.1021 3.53735 33.4221C1.90859 30.9278 1.75594 28.2299 3.13031 25.5321C4.0975 23.5977 5.62438 22.1724 6.59157 21.4597C6.38797 20.798 6.08251 19.6782 5.92985 18.8638C-1.45094 24.2086 -0.687346 31.4369 1.55234 34.8474C3.23203 37.3927 6.64251 38.9707 10.4092 38.9707C11.4272 38.9707 12.4452 38.8688 13.4633 38.6144C19.9788 37.3418 24.9163 33.473 27.7158 27.721ZM36.6746 21.4089C32.806 16.8785 27.105 14.3843 20.5896 14.3843H19.7752C19.3171 13.468 18.3499 12.8571 17.281 12.8571H17.1791C15.6013 12.908 14.3797 14.2314 14.4305 15.8096C14.4814 17.3366 15.7539 18.5583 17.281 18.5583H17.3827C18.5025 18.5074 19.4697 17.7947 19.8769 16.8275H20.7931C24.6617 16.8275 28.3266 17.9474 31.6353 20.1363C34.1804 21.8161 36.0129 24.005 37.0308 26.6519C37.8961 28.7899 37.8452 30.8769 36.9289 32.6586C35.5038 35.3564 33.1114 36.8327 29.9555 36.8327C27.9194 36.8327 25.9852 36.2218 24.9671 35.7636C24.4072 36.2727 23.3891 37.0871 22.6764 37.5963C24.8653 38.6143 27.105 39.1743 29.2428 39.1743C34.1294 39.1743 37.7435 36.4763 39.1179 33.7785C40.594 30.826 40.4921 25.7357 36.6746 21.4089ZM10.8164 28.5861C10.8674 30.1133 12.1399 31.3349 13.6669 31.3349H13.7688C15.3467 31.2841 16.5683 29.9605 16.5174 28.3825C16.4666 26.8553 15.1939 25.6338 13.6669 25.6338H13.5652C13.4633 25.6338 13.3105 25.6338 13.2089 25.6846C11.1219 22.2232 10.2566 18.4564 10.562 14.3841C10.7655 11.3299 11.7836 8.68285 13.5652 6.49395C15.0413 4.61051 17.8917 3.69426 19.8261 3.64348C25.2216 3.5416 27.5121 10.2608 27.6649 12.9588C28.3266 13.1114 29.4464 13.4678 30.21 13.7224C29.5991 5.47613 24.5089 1.2002 19.6225 1.2002C15.0413 1.2002 10.8164 4.50894 9.13657 9.39566C6.79516 15.9113 8.32219 22.1724 11.1727 27.11C10.9183 27.4663 10.7655 28.0263 10.8164 28.5863V28.5861Z" fill="#3A3A3C"/>
</g>
</g>
</svg>
