<svg width="31" height="26" viewBox="0 0 31 26" fill="none" xmlns="http://www.w3.org/2000/svg">
<path d="M8.93528 0.000101464C8.57932 -0.00244802 8.26333 0.227479 8.15625 0.566958L0.0492554 24.8879C-0.292758 25.914 1.2463 26.427 1.58832 25.401L9.69531 1.07998C9.8802 0.554506 9.49232 0.00338966 8.93528 0.000101464ZM11.3705 0.000101464C10.9854 -0.00401446 10.6506 0.26334 10.5693 0.639794L4.89445 24.9608C4.57737 26.0557 6.27211 26.4505 6.47151 25.3281L12.1464 1.00714C12.273 0.49981 11.8934 0.00705743 11.3705 0.000101464ZM15.3987 0.000101464C14.951 0.00708758 14.5937 0.375727 14.6007 0.823468V2.44487C14.5852 3.54119 16.2376 3.54119 16.2221 2.44487V0.823468C16.2292 0.365802 15.8564 -0.00705993 15.3987 0.000101464ZM19.4269 0.000101464C18.904 0.00705743 18.5244 0.49981 18.651 1.00714L24.3259 25.3281C24.5253 26.4505 26.22 26.0557 25.903 24.9608L20.2281 0.639794C20.1468 0.26334 19.812 -0.00401689 19.4269 0.000101464ZM21.8621 0.000101464C21.3051 0.00338966 20.9172 0.554506 21.1021 1.07998L29.2091 25.401C29.5511 26.427 31.0902 25.914 30.7482 24.8879L22.6412 0.566958C22.5341 0.227479 22.2181 -0.00244413 21.8621 0.000101464ZM15.3987 8.10709C14.951 8.11407 14.5937 8.48272 14.6007 8.93046V13.7947C14.5852 14.891 16.2376 14.891 16.2221 13.7947V8.93046C16.2292 8.47279 15.8564 8.09993 15.3987 8.10709ZM15.3987 19.4569C14.951 19.4639 14.5937 19.8325 14.6007 20.2803V25.1444C14.5852 26.2408 16.2376 26.2408 16.2221 25.1444V20.2803C16.2292 19.8226 15.8564 19.4497 15.3987 19.4569Z" fill="#222222" fill-opacity="0.8"/>
</svg>
