<svg width="17" height="17" viewBox="0 0 17 17" fill="none" xmlns="http://www.w3.org/2000/svg">
<g clip-path="url(#clip0_2451_3313)">
<path d="M12.6008 2.7998H4.20078C3.42758 2.7998 2.80078 3.42661 2.80078 4.1998V12.5998C2.80078 13.373 3.42758 13.9998 4.20078 13.9998H12.6008C13.374 13.9998 14.0008 13.373 14.0008 12.5998V4.1998C14.0008 3.42661 13.374 2.7998 12.6008 2.7998Z" stroke="#7F7F7F" stroke-width="1.4" stroke-linecap="round" stroke-linejoin="round"/>
<path d="M10.5008 6.2998H6.30078V10.4998H10.5008V6.2998Z" stroke="#7F7F7F" stroke-width="1.4" stroke-linecap="round" stroke-linejoin="round"/>
<path d="M6.30078 0.700195V2.8002" stroke="#7F7F7F" stroke-width="1.4" stroke-linecap="round" stroke-linejoin="round"/>
<path d="M10.5 0.700195V2.8002" stroke="#7F7F7F" stroke-width="1.4" stroke-linecap="round" stroke-linejoin="round"/>
<path d="M6.30078 14V16.1" stroke="#7F7F7F" stroke-width="1.4" stroke-linecap="round" stroke-linejoin="round"/>
<path d="M10.5 14V16.1" stroke="#7F7F7F" stroke-width="1.4" stroke-linecap="round" stroke-linejoin="round"/>
<path d="M14 6.2998H16.1" stroke="#7F7F7F" stroke-width="1.4" stroke-linecap="round" stroke-linejoin="round"/>
<path d="M14 9.7998H16.1" stroke="#7F7F7F" stroke-width="1.4" stroke-linecap="round" stroke-linejoin="round"/>
<path d="M0.699219 6.2998H2.79922" stroke="#7F7F7F" stroke-width="1.4" stroke-linecap="round" stroke-linejoin="round"/>
<path d="M0.699219 9.7998H2.79922" stroke="#7F7F7F" stroke-width="1.4" stroke-linecap="round" stroke-linejoin="round"/>
</g>
<defs>
<clipPath id="clip0_2451_3313">
<rect width="16.8" height="16.8" fill="white"/>
</clipPath>
</defs>
</svg>
