<svg width="48" height="26" viewBox="0 0 48 26" fill="none" xmlns="http://www.w3.org/2000/svg">
<path d="M12.4275 18.8756C10.9998 18.3428 9.30922 18.806 8.34669 19.9843C7.37549 21.1731 7.22128 22.8778 8.01151 24.2056C8.80524 25.5393 10.3699 26.2208 11.8878 25.9359C13.6024 25.6139 14.8308 24.0528 14.8498 22.3307C14.833 20.7876 13.8739 19.4156 12.4275 18.8756ZM12.1859 25.0393C11.0308 25.4535 9.73723 25.1162 8.94639 24.1733C8.17029 23.2478 8.07578 21.8858 8.69068 20.8526C9.30147 19.8264 10.5355 19.2561 11.7137 19.4904C13.0723 19.7607 14.0482 20.9488 14.0634 22.3306C14.0503 23.5139 13.3163 24.6338 12.1859 25.0393Z" fill="#272525"/>
<path d="M11.8555 20.6576C11.203 20.4098 10.4326 20.6101 9.98273 21.1435C9.5216 21.6902 9.44639 22.4944 9.82016 23.1098C10.1882 23.7155 10.8982 24.0211 11.5913 23.8939C12.373 23.7505 12.9138 23.0563 12.9527 22.2824C12.9542 22.2683 12.9551 22.2537 12.9547 22.2384C12.9551 22.2194 12.9537 22.2018 12.9515 22.1846C12.9142 21.503 12.5026 20.9034 11.8555 20.6576ZM11.2665 23.3366C10.668 23.338 10.1666 22.8367 10.1681 22.2382C10.1696 21.6388 10.666 21.1399 11.2665 21.1399C11.8773 21.1399 12.3496 21.6393 12.3648 22.2382C12.3496 22.8384 11.8773 23.3352 11.2665 23.3366Z" fill="#272525"/>
<path d="M36.6325 18.8756C35.2048 18.3428 33.5142 18.806 32.5517 19.9843C31.5805 21.1731 31.4264 22.8778 32.2167 24.2056C33.0104 25.5393 34.575 26.2208 36.0931 25.9359C37.8077 25.6139 39.0363 24.0528 39.0551 22.3307C39.0379 20.7876 38.0789 19.4156 36.6325 18.8756ZM36.3909 25.0393C35.2358 25.4535 33.9422 25.1162 33.1514 24.1733C32.3753 23.2478 32.2809 21.8858 32.8958 20.8526C33.5066 19.8264 34.7407 19.2561 35.9188 19.4904C37.2774 19.7607 38.2533 20.9488 38.2685 22.3306C38.2555 23.5139 37.5214 24.6338 36.3909 25.0393Z" fill="#272525"/>
<path d="M36.0606 20.6576C35.408 20.4098 34.6377 20.6101 34.1878 21.1435C33.7267 21.6902 33.6515 22.4944 34.0252 23.1098C34.3932 23.7155 35.1032 24.0211 35.7964 23.8939C36.5781 23.7505 37.1189 23.0563 37.1578 22.2824C37.1593 22.2683 37.1602 22.2537 37.1597 22.2384C37.1602 22.2194 37.1588 22.2018 37.1564 22.1846C37.1193 21.503 36.7077 20.9034 36.0606 20.6576ZM35.4714 23.3366C34.8729 23.338 34.3717 22.8367 34.373 22.2382C34.3745 21.6388 34.8709 21.1399 35.4714 21.1399C36.0822 21.1399 36.5546 21.6393 36.5698 22.2382C36.5546 22.8384 36.0822 23.3352 35.4714 23.3366Z" fill="#272525"/>
<path d="M47.6237 16.2081H46.0723C46.0721 16.0709 46.0721 15.9337 46.0718 15.7966C46.4618 15.7966 46.8519 15.7966 47.2421 15.7966C47.2805 15.7966 47.3098 15.7827 47.3306 15.7615C47.3322 15.7602 47.3337 15.7586 47.335 15.7573C47.3358 15.7564 47.3367 15.7556 47.3375 15.7547C47.3589 15.7337 47.373 15.7043 47.373 15.6654C47.373 15.1602 47.373 14.655 47.373 14.1498C47.373 14.079 47.313 14.0186 47.2419 14.0186C46.835 14.0186 46.4283 14.0186 46.0214 14.0186C45.8889 13.5245 45.508 13.0572 45.1316 12.7592C44.7387 12.4482 44.3315 12.2917 43.8476 12.1867C42.9077 11.9828 41.9459 11.8731 40.9892 11.7857C39.4953 11.6493 37.9946 11.5821 36.4944 11.5502C35.5566 11.5259 34.6184 11.518 33.6812 11.5268C33.2726 8.94981 32.5198 6.30242 30.9317 4.19625C30.915 4.15051 30.889 4.11055 30.8562 4.07682C30.5639 3.55947 30.0912 3.15607 29.5497 2.91647C29.2145 2.76817 28.8705 2.67959 28.5069 2.63568C28.2883 2.6094 27.9159 2.54027 27.6463 2.60499C26.752 2.60499 25.8576 2.60499 24.9633 2.60499V2.03507H26.6226C26.9146 2.03507 27.168 1.87021 27.2893 1.63289C27.4389 1.51787 27.5506 1.35529 27.5982 1.15474C27.7354 0.575544 27.352 0.032363 26.7554 0C26.0557 0 25.356 0 24.6565 0C23.019 0 21.3818 0 19.7443 0C17.8615 0 15.9787 0 14.0958 0C12.6643 0 11.2328 0 9.80127 0C9.46427 0 9.12712 0 8.79012 0C8.66416 0 8.5414 0.00258228 8.41878 0.0413267C7.85524 0.219247 7.64739 0.940806 7.95385 1.42443C7.95795 1.43096 7.96251 1.43658 7.96676 1.44281C8.02799 1.77814 8.33309 2.03522 8.69805 2.03522H10.4937V2.60514C10.0704 2.60514 9.6469 2.60514 9.22345 2.60514C8.67814 2.60514 8.13283 2.60514 7.58752 2.60514C6.84014 2.60514 6.36153 3.20211 5.9832 3.78343C5.18871 5.00426 4.67546 6.43446 4.22618 7.81148C4.04872 8.35542 3.88538 8.90438 3.74241 9.45865C3.64532 9.43404 3.54397 9.42021 3.43944 9.42021H1.25076C0.562782 9.42021 0 9.98299 0 10.671V17.2999C0 17.9879 0.562782 18.5507 1.25076 18.5507H2.45275C2.45321 18.6115 2.45321 18.6722 2.45381 18.733C2.46597 19.84 3.05124 20.8568 3.99083 21.4402C4.83865 21.9667 5.76775 21.9377 6.72299 21.9377C6.87888 21.9377 7.0764 21.8168 7.10223 21.649C7.12593 21.4953 7.1428 21.3365 7.16513 21.1783C7.20069 21.137 7.22621 21.0887 7.23487 21.0356C7.31768 20.5306 7.4877 20.0486 7.73065 19.6108C8.51921 18.6614 9.69431 18.0821 10.944 18.0599C12.2653 18.0364 13.5347 18.6285 14.3652 19.6568C14.8295 20.2317 15.1138 20.9235 15.2342 21.6492C15.262 21.8169 15.454 21.9378 15.6134 21.9378C17.3224 21.9378 19.0316 21.9378 20.7406 21.9378C23.4612 21.9378 26.182 21.9378 28.9026 21.9378C29.5225 21.9378 30.1424 21.9378 30.7623 21.9378C30.9199 21.9378 31.1137 21.8169 31.1415 21.6492C31.4006 20.0868 32.4924 18.7634 34.01 18.2717C35.5385 17.7764 37.2521 18.1777 38.3857 19.3204C39.0173 19.9572 39.4113 20.7672 39.5574 21.6492C39.5852 21.8169 39.7773 21.9378 39.9367 21.9378C40.791 21.9378 41.6454 21.9378 42.4997 21.9378C42.9709 21.9378 43.4369 21.9263 43.8892 21.7712C44.6427 21.5126 45.2954 20.9876 45.6868 20.2904C46.0515 19.6405 46.0949 18.9595 46.0949 18.2346C46.0949 18.1935 46.0893 18.1555 46.079 18.1205C46.0939 17.7931 46.0838 17.461 46.0773 17.1345H47.6239V16.2081H47.6237ZM30.9316 5.60305C31.2184 6.09184 31.4706 6.60235 31.6875 7.12578C32.0555 8.01462 32.3381 8.93628 32.5593 9.87299C32.4699 9.87496 32.3806 9.87512 32.2932 9.86782C32.1463 9.85552 32.1044 9.75144 32.0356 9.58461C31.9205 9.30535 31.8382 9.00542 31.7382 8.71962C31.464 7.93607 31.1897 7.15252 30.9156 6.36897C30.8203 6.09746 30.6759 5.78264 30.9316 5.60305ZM24.5591 0.393521C25.2471 0.393521 25.9352 0.393521 26.6232 0.393521C26.6673 0.393521 26.7112 0.393521 26.7552 0.393521C27.3899 0.428011 27.3745 1.39328 26.7491 1.43187C26.6876 1.43567 26.6246 1.43187 26.5629 1.43187C26.2031 1.43187 25.8433 1.43187 25.4836 1.43187C25.1755 1.43187 24.8674 1.43187 24.5593 1.43187V0.393521H24.5591ZM21.3037 0.393521C22.1598 0.393521 23.016 0.393521 23.8722 0.393521C24.0082 0.393521 24.144 0.393521 24.2798 0.393521V1.43187C23.2878 1.43187 22.2957 1.43187 21.3035 1.43187V0.393521H21.3037ZM23.9292 2.03537V2.6053C21.3524 2.6053 18.7757 2.6053 16.199 2.6053C14.6419 2.6053 13.0847 2.6053 11.5276 2.6053V2.03537H23.9292ZM17.7955 0.393521C18.1701 0.393521 18.5446 0.393521 18.9191 0.393521C19.6208 0.393521 20.3226 0.393521 21.0244 0.393521V1.43187C19.9481 1.43187 18.8719 1.43187 17.7955 1.43187V0.393521ZM14.5399 0.393521C15.5321 0.393521 16.5241 0.393521 17.5163 0.393521V1.43187C16.9682 1.43187 16.4203 1.43187 15.8723 1.43187C15.4282 1.43187 14.9841 1.43187 14.5399 1.43187V0.393521ZM11.2843 0.393521C12.0384 0.393521 12.7926 0.393521 13.5467 0.393521C13.7847 0.393521 14.0226 0.393521 14.2605 0.393521V1.43187C13.2684 1.43187 12.2764 1.43187 11.2842 1.43187V0.393521H11.2843ZM8.71537 1.43187C8.34813 1.42032 8.1301 1.0935 8.22764 0.741006C8.29632 0.492434 8.51952 0.397624 8.75305 0.393521C9.04188 0.388507 9.33118 0.393521 9.61986 0.393521C10.0816 0.393521 10.5435 0.393521 11.0052 0.393521V1.43202C10.243 1.43324 9.47704 1.45573 8.71537 1.43187ZM4.65206 9.11132C4.99697 7.89459 5.40447 6.67695 5.9396 5.52617C6.14213 5.51842 6.36199 5.50611 6.54097 5.58482C6.84546 5.71868 6.99618 6.03228 7.0021 6.35059C7.01122 6.83315 7.0021 7.31662 7.0021 7.79917C7.0021 8.26715 7.01168 8.73618 7.0021 9.20415C6.99542 9.53143 6.82783 9.85202 6.50921 9.97403C6.33388 10.0412 6.12177 10.0167 5.93732 10.0167C5.42893 10.0167 4.92039 10.0167 4.412 10.0167C4.48539 9.713 4.56698 9.41125 4.65206 9.11132ZM4.15887 11.4609C4.16464 11.3787 4.16951 11.2968 4.17817 11.2148C4.1809 11.1892 4.18424 11.1637 4.18744 11.1383C4.18789 11.1347 4.18865 11.1306 4.18926 11.1259C4.19914 11.0604 4.20947 10.9949 4.22071 10.9296C4.228 10.8872 4.23606 10.8451 4.2438 10.8029C4.24654 10.8029 4.24912 10.8033 4.25186 10.8033C4.81358 10.8033 5.37529 10.8033 5.93701 10.8033C6.19941 10.8033 6.46485 10.8161 6.71813 10.7327C7.23244 10.5631 7.6366 10.1082 7.74752 9.57762C7.85555 9.06042 7.78854 8.4788 7.78854 7.95537C7.78854 7.41629 7.80161 6.87539 7.78854 6.33631C7.77486 5.76973 7.50061 5.22366 6.9977 4.93756C6.78134 4.81433 6.55571 4.76875 6.32415 4.75204C6.55312 4.31977 6.80033 3.90939 7.12669 3.597C7.15723 3.56768 7.18899 3.53972 7.22105 3.51207C7.22454 3.50903 7.22728 3.50675 7.22986 3.50432C7.23168 3.5031 7.23305 3.50219 7.23518 3.50082C7.25068 3.49034 7.26572 3.47879 7.28167 3.46922C7.30872 3.45311 7.33546 3.43777 7.36281 3.42288C7.34807 3.43291 7.40915 3.40814 7.43938 3.39492C7.44394 3.39295 7.44744 3.39128 7.45078 3.3896C7.45625 3.39067 7.46309 3.39143 7.47311 3.39219C7.48481 3.39295 7.49682 3.39188 7.50867 3.39219C7.9654 3.40434 8.4241 3.39219 8.88098 3.39219C11.1048 3.39219 13.3284 3.39219 15.5522 3.39219C18.1766 3.39219 20.801 3.39219 23.4256 3.39219C24.3839 3.39219 25.3423 3.39219 26.3008 3.39219C26.7537 3.39219 27.2113 3.41118 27.664 3.39219C27.6779 3.39158 27.6918 3.39067 27.7054 3.3896C27.7033 3.39052 27.7012 3.39128 27.6992 3.39219C28.6721 3.33445 29.7361 3.62617 30.2162 4.5454C30.22 4.55254 30.224 4.55908 30.2281 4.56576C30.3009 4.69841 30.4224 4.82452 30.5154 4.95184C30.0804 5.25146 29.8733 5.75879 30.0637 6.3123C30.189 6.67665 30.3183 7.03978 30.4457 7.40352C30.7357 8.2322 30.9834 9.09719 31.3233 9.90702C31.4705 10.2575 31.6986 10.5698 32.0956 10.6383C32.3013 10.6737 32.519 10.6596 32.7292 10.6556C32.7969 10.9937 32.8578 11.333 32.9125 11.6729C32.39 11.6729 31.8675 11.6729 31.345 11.6729C31.3486 11.5009 31.3714 11.3096 31.3394 11.1429C31.3066 10.9721 31.2174 10.7963 31.1598 10.6328C30.5084 8.78222 29.8571 6.9316 29.2057 5.08084C29.1522 4.9289 29.0987 4.77711 29.0452 4.62517C28.8476 4.12043 28.4111 3.82309 27.8702 3.81746C27.6403 3.81503 27.4102 3.81746 27.1805 3.81746C26.1953 3.81746 25.2102 3.81746 24.2248 3.81746C23.1657 3.81746 22.1063 3.81746 21.0472 3.81746C20.7248 3.81746 20.4022 3.81746 20.0798 3.81746C19.8654 3.81746 19.6358 3.79741 19.4274 3.84557C18.996 3.94509 18.7026 4.28452 18.613 4.6937C18.6019 4.66939 18.5899 4.64507 18.577 4.62092C18.3126 4.12575 17.796 3.83008 17.2402 3.81807C17.1221 3.81549 17.0039 3.81807 16.8859 3.81807C15.2825 3.81807 13.6792 3.81807 12.0758 3.81807C11.4225 3.81807 10.7693 3.81807 10.1159 3.81807C9.95625 3.81807 9.79641 3.81291 9.63809 3.83752C9.07622 3.92488 8.60202 4.33603 8.42744 4.87618C8.30923 5.24174 8.35618 5.67993 8.35618 6.05917C8.35618 6.77298 8.35618 7.48664 8.35618 8.20045C8.35618 9.35792 8.35618 10.5154 8.35618 11.673C8.25879 11.673 8.1614 11.673 8.064 11.673C7.86831 11.673 7.67276 11.673 7.47706 11.673C6.4729 11.673 5.46266 11.6438 4.45682 11.659C4.35031 11.6566 4.24381 11.6554 4.1376 11.656C4.14687 11.591 4.15431 11.5261 4.15887 11.4609ZM18.846 14.4567C18.846 13.9598 18.846 13.463 18.846 12.9663C18.976 12.9346 19.0733 12.8173 19.0733 12.6779V12.4591C20.2056 12.4591 21.3378 12.4591 22.4699 12.4591C23.6595 12.4591 24.849 12.4591 26.0387 12.4591C27.3218 12.4591 28.6049 12.4591 29.888 12.4591C30.2854 12.4591 30.6836 12.4639 31.0821 12.4686C31.0821 12.577 31.0821 12.6855 31.0821 12.7942C31.0821 13.8374 31.0821 14.8806 31.0821 15.9238C31.0821 16.2236 31.0838 16.5235 31.0821 16.8234C31.0791 17.3742 30.7135 17.8113 30.145 17.8312C28.743 17.8802 27.3305 17.8312 25.9279 17.8312C24.0498 17.8312 22.1718 17.8312 20.2937 17.8312C20.1302 17.8312 19.9658 17.8357 19.8023 17.8312C19.2655 17.8168 18.8635 17.428 18.8462 16.888C18.8389 16.6607 18.8397 16.4326 18.8418 16.2046C18.974 16.1745 19.0735 16.056 19.0735 15.915V14.7455C19.0732 14.6059 18.976 14.4884 18.846 14.4567ZM31.0821 11.2391C31.0818 11.3473 31.0821 11.4554 31.0821 11.5635C31.0821 11.5998 31.0821 11.6362 31.0821 11.6726C30.9193 11.6726 30.7562 11.6726 30.5933 11.6726C29.4783 11.6726 28.3632 11.6726 27.2481 11.6726C25.9913 11.6726 24.7346 11.6726 23.4779 11.6726C22.0097 11.6726 20.5415 11.6726 19.0733 11.6726V11.5083C19.0733 11.369 18.9761 11.2515 18.846 11.2199C18.846 10.6799 18.846 10.1401 18.846 9.60011C18.846 8.07297 18.846 6.54568 18.846 5.01839C18.846 4.63611 18.9974 4.27799 19.3827 4.13304C19.5928 4.05403 19.8377 4.0791 20.0616 4.0791C20.8328 4.0791 21.604 4.0791 22.3753 4.0791C24.1753 4.0791 25.9753 4.0791 27.7752 4.0791C28.2198 4.0791 28.6183 4.24912 28.7927 4.6943C29.3356 6.23679 29.8785 7.77942 30.4215 9.32191C30.6388 9.93939 30.9024 10.5579 31.0785 11.1888C31.0806 11.1965 31.0821 11.2 31.0832 11.2012C31.0826 11.2079 31.0821 11.2193 31.0821 11.2391ZM8.61858 5.33412C8.63378 4.64234 9.18076 4.0949 9.87253 4.07986C10.2332 4.07211 10.595 4.07986 10.9559 4.07986C12.5962 4.07986 14.2364 4.07986 15.8767 4.07986C16.3233 4.07986 16.7706 4.07257 17.2171 4.07986C17.9952 4.09262 18.4949 4.69977 18.4949 5.44595C18.4949 6.59324 18.4949 7.74068 18.4949 8.88797C18.4949 9.66286 18.4949 10.4377 18.4949 11.2125C18.3453 11.2274 18.2273 11.3547 18.2273 11.5082V11.6724C17.8048 11.6724 17.3821 11.6724 16.9596 11.6724C16.2714 11.6724 15.5835 11.6724 14.8955 11.6724C12.8031 11.6724 10.7109 11.6724 8.61858 11.6724C8.61858 10.9859 8.61858 10.2993 8.61858 9.61287C8.61858 8.26623 8.61858 6.9196 8.61858 5.57297C8.61858 5.4935 8.61691 5.41373 8.61858 5.33412ZM8.61858 14.8222C8.61858 14.631 8.61858 14.4397 8.61858 14.2482C8.61858 13.6519 8.61858 13.0553 8.61858 12.459C10.375 12.459 12.1313 12.459 13.8877 12.459C14.5085 12.459 15.1293 12.459 15.7501 12.459C16.5759 12.459 17.4017 12.459 18.2273 12.459V12.6778C18.2273 12.8312 18.3453 12.9584 18.4949 12.9735C18.4949 13.3264 18.4949 13.6794 18.4949 14.0323C18.4949 14.1709 18.4964 14.3099 18.4984 14.4492C18.3471 14.4625 18.2272 14.5904 18.2272 14.7451V15.9145C18.2272 16.0742 18.3548 16.205 18.5131 16.2111C18.5093 16.3804 18.5036 16.5495 18.4929 16.7175C18.4518 17.3692 17.8958 17.8982 17.2408 17.8982C17.0968 17.8797 16.94 17.5344 16.8622 17.4222C16.7662 17.2837 16.665 17.1484 16.5597 17.0167C16.3673 16.776 16.1581 16.5486 15.9325 16.3387C15.5227 15.9572 15.0594 15.6319 14.558 15.3824C13.645 14.9281 12.6289 14.7258 11.613 14.7159C10.7193 14.7071 9.82406 14.8405 8.96075 15.0667C8.82339 15.1027 8.671 15.1237 8.61858 14.9578C8.60688 14.921 8.61858 14.8607 8.61858 14.8222ZM45.2863 18.1166C45.2858 18.1657 45.2834 18.2144 45.2801 18.2631C44.9441 19.2432 44.0378 19.9119 42.99 19.926C42.1328 19.926 41.2756 19.926 40.4183 19.926C40.0339 18.2365 38.7601 16.8394 37.1076 16.2927C35.3308 15.705 33.3087 16.2072 32.0018 17.5418C31.3584 18.1989 30.9056 19.031 30.7024 19.926C29.1123 19.926 27.5221 19.926 25.9319 19.926C23.2503 19.926 20.5687 19.926 17.887 19.926C17.3803 19.926 16.8736 19.926 16.3669 19.926C15.9983 18.3041 14.815 16.9637 13.2579 16.3649C11.5662 15.7143 9.6115 16.095 8.24527 17.2665C7.4918 17.9125 6.95531 18.7901 6.69321 19.7446C6.67528 19.8099 6.67376 19.8709 6.6844 19.926C6.55859 19.926 6.43294 19.926 6.30714 19.926C4.94941 19.9092 3.83372 18.8387 3.82795 17.4705C3.8243 16.589 3.82795 15.7073 3.82795 14.8257C3.82795 14.4024 3.90118 13.9996 3.97791 13.5844C3.9884 13.5274 3.98748 13.4674 3.97609 13.4097C4.03322 13.0929 4.09019 12.7761 4.14732 12.4593C5.02219 12.4593 5.89705 12.4593 6.77207 12.4593C6.92705 12.4593 7.08202 12.4593 7.237 12.4593C7.61016 12.4593 7.98333 12.4593 8.35633 12.4593C8.35633 12.7829 8.35633 13.1066 8.35633 13.4302C8.35633 13.9146 8.35238 14.3989 8.35633 14.8833C8.35801 15.0827 8.40298 15.2747 8.61554 15.3548C8.81033 15.4282 9.06437 15.3091 9.25779 15.2626C9.46777 15.2121 9.67912 15.1674 9.89183 15.1292C12.0981 14.7324 14.4365 15.1152 16.0292 16.8047C16.2594 17.0489 16.469 17.3115 16.6586 17.5881C16.8155 17.8173 16.9114 18.0894 17.1931 18.152C17.2072 18.1573 17.2229 18.1608 17.2408 18.1608C17.2549 18.1626 17.2676 18.1617 17.2793 18.1597C17.913 18.1441 18.41 17.7462 18.6314 17.2043C18.7629 17.6752 19.1571 18.0379 19.6712 18.0871C20.1191 18.1301 20.5856 18.0932 21.0346 18.0932C22.0317 18.0932 23.0289 18.0932 24.0259 18.0932C25.934 18.0932 27.8419 18.0932 29.7498 18.0932C29.8818 18.0932 30.0145 18.0968 30.1463 18.0932C30.8124 18.075 31.3251 17.5619 31.3439 16.8964C31.3637 16.2032 31.3439 15.5067 31.3439 14.8134C31.3439 14.0328 31.3439 13.2521 31.3439 12.4716C32.0614 12.4797 32.7793 12.4847 33.4939 12.4593C33.5107 12.4587 33.5279 12.4593 33.5448 12.4593C34.0077 12.4593 34.4705 12.4593 34.9333 12.4593C36.3769 12.4593 37.8285 12.504 39.2716 12.4593C39.2909 12.4587 39.3105 12.4593 39.3298 12.4593C39.3741 12.462 39.4142 12.4581 39.4505 12.4493C40.6124 12.5154 41.7729 12.6197 42.9171 12.8092C43.3157 12.8751 43.7657 12.9236 44.1449 13.0663C44.4008 13.1625 44.6475 13.3535 44.8363 13.5481C45.0254 13.7432 45.2796 14.0738 45.2836 14.357C45.284 14.974 45.2877 15.5911 45.2896 16.2082H44.2384V17.1345H45.2907C45.291 17.4617 45.2896 17.7892 45.2863 18.1166ZM46.0706 14.3569C46.0706 14.3392 46.0694 14.3225 46.0676 14.3061C46.0671 14.2978 46.0667 14.2894 46.066 14.281C46.4144 14.281 46.7627 14.281 47.1111 14.281C47.1111 14.6989 47.1111 15.1166 47.1111 15.5344C46.7647 15.5344 46.4182 15.5344 46.0717 15.5344C46.0712 15.1419 46.0709 14.7493 46.0706 14.3569Z" fill="#272525"/>
<path d="M43.1782 13.2256C43.1692 13.2218 43.1595 13.2188 43.1486 13.2168C42.7885 13.1509 42.4284 13.0849 42.0683 13.019C41.9075 12.9895 41.7503 12.955 41.5879 13.0001C41.3217 13.0741 41.1217 13.3144 41.1118 13.593C41.0941 14.1028 41.5547 14.234 41.9546 14.3073C42.1862 14.3497 42.4177 14.3921 42.6493 14.4345C42.7917 14.4604 42.943 14.5016 43.0882 14.4888C43.8329 14.4234 43.8438 13.4224 43.1782 13.2256ZM42.9808 14.228C42.8649 14.2195 42.7465 14.1866 42.6326 14.1657C42.3299 14.1102 42.0136 14.0757 41.7158 13.9978C41.2524 13.8764 41.294 13.2236 41.7943 13.2373C41.9084 13.2405 42.028 13.277 42.1397 13.2975C42.4528 13.3548 42.766 13.4122 43.079 13.4695C43.5559 13.5895 43.4907 14.2652 42.9808 14.228Z" fill="#272525"/>
<path d="M20.633 13.7312H21.828C22.0011 13.7312 22.1427 13.5896 22.1427 13.4165V13.3722C22.1427 13.1991 22.0011 13.0575 21.828 13.0575H20.633C20.46 13.0575 20.3184 13.1991 20.3184 13.3722V13.4165C20.3184 13.5896 20.46 13.7312 20.633 13.7312Z" fill="#272525"/>
<path d="M9.12423 9.44817C9.12954 10.1106 9.52717 10.7137 10.1837 10.8952C10.4383 10.9657 10.7135 10.9469 10.9751 10.9469C12.8013 10.9469 14.6275 10.9469 16.4538 10.9469C16.5022 10.9469 16.5505 10.9469 16.599 10.9469C16.6163 10.9469 16.6329 10.9458 16.6488 10.944C17.4268 10.8934 18.0202 10.286 18.0411 9.49816C18.0497 9.17043 18.0411 8.84133 18.0411 8.51344C18.0411 7.67261 18.0945 6.81325 18.0386 5.97393C17.9871 5.20117 17.361 4.62365 16.5937 4.60345C16.3766 4.59767 16.1584 4.60345 15.9411 4.60345C14.9215 4.60345 13.9018 4.60345 12.8823 4.60345C12.1229 4.60345 11.363 4.59509 10.6038 4.60345C9.95898 4.61059 9.37827 5.00183 9.18622 5.6301C9.08609 5.95783 9.12438 6.33844 9.12438 6.67696C9.12423 7.60074 9.11663 8.52468 9.12423 9.44817ZM10.1659 5.52663C10.3709 5.36983 10.6059 5.39019 10.8458 5.39019C11.1958 5.39019 11.5458 5.39019 11.8957 5.39019C13.4603 5.39019 15.0353 5.33503 16.5989 5.39019C17.0591 5.40644 17.2543 5.77565 17.2543 6.18574C17.2543 6.58564 17.2543 6.98539 17.2543 7.38514C17.2543 7.88123 17.2543 8.37731 17.2543 8.87339C17.2543 9.12454 17.2991 9.43206 17.2308 9.67836C17.1509 9.96613 16.8916 10.1504 16.5989 10.1605C15.0384 10.1605 13.4782 10.1605 11.9178 10.1605C11.5604 10.1605 11.2031 10.1605 10.8457 10.1605C10.6058 10.1605 10.3707 10.1807 10.1658 10.024C9.87876 9.80447 9.91051 9.47248 9.91051 9.15508C9.91051 8.69516 9.91051 8.23524 9.91051 7.77532C9.91051 7.3154 9.91051 6.85549 9.91051 6.39557C9.91066 6.07817 9.87891 5.74618 10.1659 5.52663Z" fill="#272525"/>
<path d="M29.5677 8.30661C29.3596 7.74975 29.1514 7.1929 28.9433 6.63604C28.7798 6.19876 28.6503 5.72334 28.4335 5.31204C28.1979 4.86519 27.8195 4.68894 27.3371 4.68894C26.9669 4.68894 26.5966 4.68894 26.2263 4.68894C25.0176 4.68894 23.809 4.68894 22.6003 4.68894C22.1037 4.68894 21.6074 4.68894 21.1108 4.68894C20.8694 4.68894 20.6105 4.66539 20.3713 4.71006C19.6224 4.84985 19.3032 5.62139 19.3014 6.30724C19.3 6.81639 19.3014 7.32539 19.3014 7.83453C19.3014 8.35052 19.3014 8.8665 19.3014 9.38249C19.3014 10.0477 19.5703 10.7981 20.2811 10.9935C20.5108 11.0565 20.7738 11.0324 21.0096 11.0324C21.4399 11.0324 21.8701 11.0324 22.3004 11.0324C24.3971 11.0324 26.4937 11.0324 28.5905 11.0324C28.6362 11.0324 28.6821 11.0324 28.7278 11.0324C28.7464 11.0324 28.764 11.031 28.7812 11.029C29.5895 10.9695 30.2703 10.2271 29.9778 9.40361C29.8472 9.03591 29.7043 8.67217 29.5677 8.30661ZM28.7278 10.2458C27.0143 10.2458 25.3005 10.2458 23.587 10.2458C22.6883 10.2458 21.7897 10.2458 20.8911 10.2458C20.705 10.2458 20.4923 10.2806 20.341 10.1525C20.0205 9.88115 20.088 9.38522 20.088 9.00872C20.088 8.07779 20.072 7.14534 20.088 6.21456C20.0945 5.83502 20.2723 5.47553 20.6746 5.47553C20.9932 5.47553 21.3118 5.47553 21.6305 5.47553C23.559 5.47553 25.488 5.46292 27.4166 5.47553C27.4986 5.47599 27.5699 5.47097 27.6282 5.51929C27.8256 5.68262 27.9014 6.07858 27.9859 6.31317C28.1021 6.63619 28.2264 6.95663 28.3466 7.27813C28.5473 7.81524 28.7482 8.35219 28.9489 8.88929C29.0189 9.07648 29.0888 9.26382 29.1589 9.45101C29.196 9.55023 29.2668 9.68819 29.2692 9.79135C29.2757 10.058 28.9646 10.2373 28.7278 10.2458Z" fill="#272525"/>
</svg>
