<svg width="14" height="14" viewBox="0 0 14 14" fill="none" xmlns="http://www.w3.org/2000/svg">
<path d="M11.5504 8.79995V4.39995C11.5502 4.20705 11.4993 4.01759 11.4027 3.85059C11.3062 3.68358 11.1674 3.5449 11.0004 3.44845L7.15039 1.24845C6.98317 1.1519 6.79348 1.10107 6.60039 1.10107C6.4073 1.10107 6.21761 1.1519 6.05039 1.24845L2.20039 3.44845C2.03334 3.5449 1.89458 3.68358 1.79804 3.85059C1.70151 4.01759 1.65059 4.20705 1.65039 4.39995V8.79995C1.65059 8.99285 1.70151 9.1823 1.79804 9.34931C1.89458 9.51631 2.03334 9.655 2.20039 9.75145L6.05039 11.9514C6.21761 12.048 6.4073 12.0988 6.60039 12.0988C6.79348 12.0988 6.98317 12.048 7.15039 11.9514L11.0004 9.75145C11.1674 9.655 11.3062 9.51631 11.4027 9.34931C11.4993 9.1823 11.5502 8.99285 11.5504 8.79995Z" stroke="#0052DE" stroke-opacity="0.75" stroke-width="1.1" stroke-linecap="round" stroke-linejoin="round"/>
<path d="M4.125 2.31543L6.6 3.74543L9.075 2.31543" stroke="#0052DE" stroke-opacity="0.75" stroke-width="1.1" stroke-linecap="round" stroke-linejoin="round"/>
<path d="M4.12539 10.8846V8.0301L1.65039 6.6001" stroke="#0052DE" stroke-opacity="0.75" stroke-width="1.1" stroke-linecap="round" stroke-linejoin="round"/>
<path d="M11.5492 6.6001L9.07422 8.0301V10.8846" stroke="#0052DE" stroke-opacity="0.75" stroke-width="1.1" stroke-linecap="round" stroke-linejoin="round"/>
<path d="M1.79883 3.82812L6.60033 6.60563L11.4018 3.82812" stroke="#0052DE" stroke-opacity="0.75" stroke-width="1.1" stroke-linecap="round" stroke-linejoin="round"/>
<path d="M6.59961 12.1441V6.6001" stroke="#0052DE" stroke-opacity="0.75" stroke-width="1.1" stroke-linecap="round" stroke-linejoin="round"/>
</svg>
