<svg width="42" height="28" viewBox="0 0 42 28" fill="none" xmlns="http://www.w3.org/2000/svg">
<path d="M33.9149 24.6024C31.1973 25.0426 28.6431 23.2283 28.2087 20.5498C27.7749 17.8719 29.6264 15.3434 32.3442 14.9037C35.0617 14.4635 37.6157 16.2779 38.0501 18.9564C38.4839 21.6342 36.6324 24.1627 33.9149 24.6024ZM37.3633 27.1249L35.9238 27.1121C35.8282 27.1116 35.8253 27.0952 35.916 27.064L36.7427 26.7788C36.7526 26.7758 36.7632 26.7763 36.7726 26.7812L37.3704 27.0972C37.3837 27.1046 37.3788 27.1249 37.3633 27.1249ZM27.6691 27.1145L10.0617 27.1175C10.0508 27.1175 10.0443 27.1121 10.0428 27.1006C10.0246 26.9832 10.0592 26.8976 10.1459 26.8446C10.3415 26.7258 10.5455 26.6243 10.7575 26.5397C11.056 26.4207 11.3472 26.4965 11.6304 26.601C11.6602 26.6119 11.6938 26.6065 11.719 26.5866L12.1831 26.2192C12.1944 26.2103 12.1984 26.1989 12.1944 26.1851L12.0127 25.5106C12.0073 25.4908 12.0118 25.473 12.0251 25.4576C12.197 25.2615 12.3608 25.0625 12.5179 24.8604C12.6208 24.7272 13.2428 24.6143 13.4146 24.5782C13.4433 24.5722 13.4676 24.5539 13.4815 24.5281L13.74 24.0558C13.7444 24.0473 13.7434 24.037 13.7374 24.0295L13.3096 23.5046C13.2913 23.4818 13.2853 23.4517 13.2942 23.4234C13.369 23.1882 13.4443 22.9475 13.5201 22.7019C13.582 22.5028 14.1237 22.1968 14.3045 22.0943C14.3342 22.0775 14.3535 22.0472 14.357 22.0136L14.4064 21.4927C14.4109 21.4491 14.3931 21.4179 14.3535 21.3991L13.7776 21.1248C13.7459 21.1094 13.7236 21.0792 13.7191 21.0445L13.6256 20.3305C13.6167 20.2621 13.6691 20.2013 13.7379 20.2002L14.9665 20.1804C15.0016 20.1799 15.0353 20.1676 15.0625 20.1453L15.638 19.6723C15.6593 19.655 15.6855 19.6456 15.7123 19.6456L18.7666 19.6293C18.7745 19.6287 18.7814 19.6357 18.7814 19.6441L18.7794 22.0824C18.7789 22.1983 18.8368 22.2563 18.9528 22.2563C20.314 22.2577 21.6758 22.2582 23.0385 22.2577C23.3071 22.2577 23.2809 22.0829 23.2797 21.8635C23.2769 21.1881 23.2782 20.5122 23.2837 19.8363C23.2842 19.8229 23.29 19.8105 23.2999 19.8016L23.4416 19.6778C23.4535 19.6674 23.4683 19.6615 23.4839 19.6605L23.7243 19.6476C23.7358 19.6471 23.7429 19.6526 23.7447 19.6639L23.9284 20.9014C23.9312 20.9207 23.9205 20.939 23.9022 20.946L23.5551 21.0742C23.5351 21.0817 23.5299 21.0946 23.5388 21.1138C23.9543 22.0106 24.415 22.8831 24.9222 23.7319C24.9306 23.7462 24.9272 23.7641 24.9144 23.7745L24.5979 24.0265C24.5841 24.0379 24.5824 24.0582 24.595 24.0711C25.2976 24.8173 26.0415 25.5195 26.8264 26.1781C26.8437 26.193 26.846 26.2099 26.8337 26.2286L26.6307 26.5346C26.6163 26.5564 26.6242 26.5861 26.648 26.5976L27.673 27.0972C27.6819 27.1011 27.679 27.1145 27.6691 27.1145ZM3.65888 21.2713C3.45842 17.9699 7.30006 15.8832 9.92943 17.9466C12.0355 19.5996 11.9112 22.8584 9.64374 24.3326C7.10052 25.9875 3.8401 24.2484 3.65888 21.2713ZM4.86623 27.0704L4.35562 27.1037C4.34027 27.1046 4.33689 27.0987 4.3462 27.0863C4.50522 26.8744 4.66812 26.9862 4.86919 27.0378C4.93796 27.0551 4.93693 27.066 4.86623 27.0704ZM4.69636 10.5734C4.71366 10.5 4.80381 10.4806 4.87861 10.4659C5.57525 10.3287 6.27649 10.2213 6.98213 10.143C9.62399 9.85034 12.2732 9.67168 14.9299 9.60568C14.9413 9.60517 14.9521 9.60619 14.962 9.60855C14.9769 9.61172 14.9769 9.61356 14.9615 9.6151C12.6386 9.78588 10.3211 10.0088 8.00815 10.2836C7.01631 10.4015 6.27004 10.5049 5.76844 10.5935C5.38666 10.6609 4.90081 10.9532 4.579 11.1892C4.56457 11.1997 4.54482 11.1863 4.54922 11.169C4.59823 10.9744 4.64735 10.7759 4.69636 10.5734ZM18.309 11.081C18.3095 11.1012 18.2991 11.1119 18.2788 11.1129C14.5971 11.2859 10.8386 11.6301 7.18023 12.2946C7.07821 12.3127 7.07617 12.3059 7.17419 12.2729C8.30377 11.8921 9.44717 11.5918 10.6282 11.4229C13.1645 11.06 15.7142 10.8411 18.2773 10.7664C18.2972 10.7659 18.3071 10.7759 18.3071 10.7952L18.309 11.081ZM18.2749 10.0963C18.2961 10.095 18.3066 10.1052 18.3066 10.1267L18.3071 10.5306C18.3075 10.5506 18.2976 10.5608 18.2778 10.5613C16.3386 10.6223 14.4055 10.7625 12.4787 10.9818C11.9047 11.0473 10.8792 11.1868 9.40306 11.4009C9.40112 11.4011 9.39918 11.3993 9.39866 11.3967V11.3954C9.39815 11.3938 9.39866 11.3932 9.4001 11.3927C9.40306 11.3922 9.40603 11.3915 9.40849 11.3909C12.2702 10.6713 15.2695 10.292 18.2749 10.0963ZM19.0979 21.5907C19.0979 21.5823 19.1048 21.5754 19.1132 21.5754H22.9361C22.9444 21.5754 22.9513 21.5823 22.9513 21.5907V21.7343C22.9513 21.7427 22.9444 21.7497 22.9361 21.7497H19.1132C19.1048 21.7497 19.0979 21.7427 19.0979 21.7343V21.5907ZM19.6441 4.38888C19.6455 4.37497 19.6584 4.36504 19.6727 4.3676L20.0233 4.42552C20.0372 4.42756 20.0461 4.44046 20.0442 4.45437L19.3549 8.4979C19.3529 8.50997 19.3425 8.51887 19.33 8.51887L19.18 8.51724C19.1652 8.51673 19.1538 8.50393 19.1558 8.48951L19.6441 4.38888ZM19.1875 2.95048C18.9448 2.82657 18.6982 2.71022 18.4472 2.60125C18.4313 2.59418 18.4205 2.57955 18.4179 2.56277C18.3858 2.3398 18.2942 2.29713 18.0847 2.2607C18.0654 2.25702 18.056 2.24525 18.057 2.22591L18.098 1.41876C18.1001 1.38315 18.1367 1.35982 18.1694 1.37374L18.774 1.62812C18.7914 1.63569 18.8022 1.65299 18.8003 1.67182C18.7735 1.94953 18.6884 2.366 19.0494 2.41266C19.0756 2.41603 19.0984 2.43282 19.1092 2.45717C19.3286 2.94782 19.6851 3.30433 20.1793 3.52566C20.1977 3.53385 20.2051 3.54746 20.2021 3.5668L20.1308 4.03074C20.1279 4.05121 20.1159 4.06011 20.0956 4.05776L19.7213 4.01846C19.7045 4.01713 19.6926 4.00219 19.6945 3.98521C19.7312 3.66032 19.8317 3.35652 19.5371 3.1357C19.5198 3.12229 19.4029 3.06069 19.1875 2.95048ZM24.1175 10.0233L24.1259 10.0191C24.1741 9.99677 24.227 10.0094 24.2437 10.0463L24.2488 10.0562C24.2657 10.094 24.2409 10.1419 24.1927 10.1639L24.1843 10.1679C24.1769 10.1712 24.168 10.1684 24.1646 10.1608L24.1101 10.0429C24.1065 10.035 24.1101 10.0267 24.1175 10.0233ZM24.139 10.1993C24.1547 10.2092 24.1646 10.2273 24.1641 10.2459C24.1625 10.3271 24.1319 10.3939 24.0711 10.4471C24.0538 10.4623 24.0295 10.4673 24.0072 10.4604L23.3796 10.2587C23.3544 10.2503 23.3487 10.2352 23.3625 10.2124L23.5373 9.92269C23.5462 9.90775 23.5655 9.90376 23.5796 9.91317C23.7976 10.0572 23.9577 10.0856 24.139 10.1993ZM22.6658 9.9101C22.573 9.87807 22.4878 9.82466 22.409 9.75078C22.2917 9.63924 22.3572 9.2591 22.5479 9.23291C22.7177 9.20958 22.9212 9.36808 23.055 9.47706C23.0697 9.48934 23.0713 9.51164 23.0584 9.52607L22.7315 9.89281C22.7152 9.91164 22.689 9.91819 22.6658 9.9101ZM20.7854 13.7519L23.2326 10.4743C23.2441 10.4589 23.2643 10.4523 23.2821 10.4589C23.4115 10.5039 23.5446 10.5472 23.6808 10.588C24.034 10.6931 24.2424 10.7564 24.3781 10.3326C24.4156 10.2152 24.4612 10.1029 24.5141 9.99493C24.5225 9.97794 24.5222 9.96167 24.5136 9.9454L24.4345 9.79273C24.4245 9.7736 24.43 9.76705 24.451 9.7736C24.7242 9.85925 24.9932 9.95431 25.2575 10.0579C25.3332 10.0874 25.4189 10.1096 25.5134 10.1246C25.5446 10.1296 25.575 10.1123 25.5863 10.0824L25.7348 9.69133C25.7414 9.67455 25.7398 9.65807 25.7314 9.64293C25.7041 9.5934 25.6652 9.55564 25.614 9.53047C24.5552 9.0084 23.6196 8.57413 22.8059 8.22806C22.584 8.13351 22.4789 8.47037 22.4497 8.62468C22.4438 8.6564 22.4596 8.68802 22.4884 8.70296C22.6146 8.76742 22.8895 8.9204 22.9138 9.08024C22.9162 9.09671 22.9012 9.11063 22.8855 9.10643C22.7014 9.06345 22.5588 9.04278 22.4577 9.0435C22.1929 9.04616 22.1419 9.50121 22.1503 9.69235C22.1592 9.90775 22.3645 9.99892 22.5217 10.0974C22.5324 10.1042 22.5345 10.1194 22.5266 10.1291L20.8573 12.2069C20.8503 12.2153 20.8468 12.2142 20.8473 12.2029C20.8885 10.7858 21.0068 9.37494 21.2014 7.97C21.204 7.95168 21.2148 7.94124 21.2331 7.93889C21.6279 7.89223 21.6232 7.63529 21.6719 7.26875C21.802 6.2809 21.9372 5.2915 22.0769 4.3014C22.0794 4.28195 22.0902 4.27489 22.1091 4.2796C22.4801 4.37108 22.8562 4.46062 23.2376 4.54841C23.5702 4.62464 23.8343 4.66025 24.029 4.65575C25.5619 4.61861 27.0935 4.58238 28.6239 4.54677C28.6352 4.54626 28.6449 4.55517 28.6459 4.56673L28.8725 6.99605C28.8743 7.01836 28.8641 7.03115 28.8416 7.03381L28.7426 7.04558C28.7054 7.05008 28.6782 7.08283 28.6802 7.12028L28.7302 8.00387C28.7311 8.02218 28.747 8.0363 28.7653 8.03548L28.9349 8.02689C28.9495 8.02607 28.9576 8.03293 28.9589 8.04838L29.0056 8.55336C29.0076 8.57515 28.9982 8.58958 28.9773 8.59664C28.1346 8.8853 27.3414 9.27404 26.5975 9.76367C26.5817 9.77411 26.5668 9.77309 26.5528 9.76081C26.4356 9.65705 26.3292 9.54388 26.2331 9.41996C25.9365 9.03879 25.6167 8.68229 25.3015 8.31637C25.1782 8.1725 25.0422 8.04336 24.8921 7.92886C24.7317 7.80627 24.6173 7.7107 24.5495 7.64235C24.3878 7.47934 24.231 7.31255 24.078 7.14177C24.0635 7.1257 24.0407 7.11997 24.0206 7.12785C23.9496 7.15538 23.8967 7.20357 23.8621 7.27244C23.855 7.28687 23.8577 7.30416 23.8686 7.31593L24.7003 8.22622C24.7069 8.23359 24.7097 8.243 24.7092 8.25242C24.703 8.3221 24.7192 8.38155 24.7579 8.43005C25.0941 8.85307 25.4807 9.29655 25.9349 9.59391C26.0808 9.68928 26.2064 9.8087 26.3103 9.95175C26.3216 9.96822 26.3197 9.98214 26.3043 9.99391C25.0501 10.972 24.1596 12.214 23.6334 13.7189C23.6258 13.7404 23.6056 13.7553 23.5823 13.7558L20.8102 13.7998C20.7849 13.8003 20.7706 13.7716 20.7854 13.7519ZM21.5912 4.71919C21.5941 4.69402 21.618 4.67622 21.643 4.67959L21.648 4.68011C21.6737 4.68358 21.6915 4.70681 21.6881 4.73198L21.3198 7.52999C21.3167 7.55506 21.2931 7.57287 21.2677 7.56949L21.2627 7.56898C21.237 7.5656 21.2192 7.54227 21.2227 7.5171L21.5912 4.71919ZM21.7903 4.27991C21.7793 4.30713 21.7463 4.31971 21.7164 4.30764C21.6868 4.29638 21.6714 4.26466 21.6821 4.23744C21.6931 4.21022 21.7263 4.19784 21.756 4.20971C21.7859 4.22097 21.801 4.25259 21.7903 4.27991ZM21.8833 1.68809C22.1439 1.68809 22.3548 1.89919 22.3548 2.15961C22.3548 2.42003 22.1439 2.63112 21.8833 2.63112C21.6229 2.63112 21.4118 2.42003 21.4118 2.15961C21.4118 1.89919 21.6229 1.68809 21.8833 1.68809ZM29.0446 8.8937C29.0389 8.9466 29.0082 8.98118 28.9532 8.99817C28.248 9.21009 27.5517 9.59964 26.9578 10.03C26.8866 10.0817 26.8164 10.0851 26.7787 9.9978C26.7716 9.98214 26.7748 9.96873 26.7881 9.95727C27.3828 9.46058 28.2515 9.08331 28.9867 8.84652C29.0174 8.8366 29.0483 8.86197 29.0446 8.8937ZM29.3332 4.57665C29.3393 4.56959 29.3427 4.57062 29.3438 4.57952L29.8642 8.64248C29.8666 8.66397 29.8577 8.67625 29.8365 8.67912L29.729 8.69406C29.7097 8.69692 29.6993 8.68853 29.6974 8.66919C29.5606 7.31695 29.4373 5.96399 29.3275 4.61022C29.326 4.59446 29.328 4.583 29.3332 4.57665ZM30.4733 4.40086L31.4331 4.29925C31.4413 4.29822 31.4494 4.30426 31.4509 4.31316L32.1168 8.37316C32.1184 8.38258 32.1118 8.39097 32.1024 8.39209L30.9422 8.49739C30.9333 8.49841 30.9254 8.49206 30.9244 8.48316L30.4589 4.41866C30.4578 4.40976 30.4644 4.40116 30.4733 4.40086ZM25.2133 11.6306C25.2075 11.6374 25.1967 11.6345 25.1952 11.6256C25.1942 11.6201 25.1967 11.6141 25.2031 11.6086C25.2091 11.6034 25.213 11.5989 25.2148 11.5962C25.5407 11.13 25.91 10.7025 26.3236 10.3138C26.3978 10.2446 26.4529 10.1815 26.538 10.2362C26.5817 10.2643 26.5846 10.3271 26.5434 10.3593C26.0568 10.7381 25.613 11.1614 25.2133 11.6306ZM32.8304 9.07287C32.8315 9.07287 32.832 9.07338 32.8315 9.0742C32.8309 9.08024 32.8304 9.08464 32.8304 9.0873C32.8309 9.08985 32.8298 9.09067 32.8275 9.09067C29.8988 9.24519 27.2646 10.4871 25.4189 12.7842C25.4126 12.7921 25.4061 12.7968 25.3997 12.797C25.3955 12.7976 25.3916 12.7982 25.3871 12.7976C25.3777 12.7968 25.3757 12.7921 25.3814 12.7848C27.0467 10.2787 29.8166 8.93432 32.8304 9.07287ZM32.5273 3.93169C32.6263 3.87777 32.7125 3.89475 32.7853 3.98224C32.8026 4.00271 32.8149 4.04885 32.8236 4.12059C32.9449 5.1768 33.0596 6.23352 33.167 7.29106C33.1754 7.37302 33.1786 7.4645 33.1769 7.5656C33.1764 7.60561 33.1217 7.61687 33.1052 7.58054C33.1007 7.57082 33.0973 7.55619 33.0939 7.53675C32.9003 6.36214 32.7017 5.17966 32.499 3.98879C32.4951 3.96556 32.5066 3.94274 32.5273 3.93169ZM33.1657 1.98176C33.3166 1.7722 33.6118 1.72687 33.8251 1.88087C34.038 2.03415 34.0886 2.32885 33.9371 2.53842C33.786 2.74798 33.4911 2.79331 33.2775 2.63952C33.0646 2.48603 33.014 2.19133 33.1657 1.98176ZM41.0199 20.2507L41.8191 19.5426C41.8325 19.5307 41.8387 19.5159 41.8374 19.4981L41.7937 18.8474C41.7929 18.8345 41.7864 18.8261 41.7743 18.8216L41.0566 18.5631C41.0218 18.5502 40.9956 18.5211 40.9872 18.4849L40.7914 17.6471C40.782 17.6079 40.7875 17.5702 40.8072 17.5351L41.318 16.6328C41.3264 16.6175 41.3277 16.6021 41.3214 16.5859L41.1039 16.0119C41.0979 15.9961 41.0866 15.9882 41.0697 15.9877L40.2408 15.9699C40.2275 15.9694 40.2154 15.9624 40.2086 15.9505L39.7352 15.1632C39.7313 15.1568 39.7298 15.1493 39.7313 15.1423L39.906 14.0936C39.9087 14.0772 39.9043 14.0629 39.8924 14.0505L39.4665 13.6102C39.4544 13.5978 39.4405 13.5945 39.4244 13.5995L38.7084 13.8166C38.6761 13.8265 38.6408 13.8203 38.6138 13.7998L37.9066 13.2626C37.8765 13.2393 37.8547 13.2062 37.8458 13.1691L37.6857 12.4966C37.6824 12.4822 37.6881 12.4749 37.703 12.4749L38.7013 12.4817C38.7252 12.4817 38.7354 12.4699 38.7325 12.4466C38.6814 12.0652 38.6101 11.684 38.5174 11.3027C38.3796 10.7326 37.9729 9.83694 37.3489 9.6591C36.1024 9.3031 34.7874 9.11134 33.4043 9.08412C33.387 9.08361 33.3766 9.07522 33.3732 9.05793L33.1613 7.87258C33.1576 7.85375 33.1646 7.83984 33.1819 7.83145C33.3705 7.73925 33.4533 7.59569 33.43 7.40106C33.2982 6.30924 33.1746 5.21691 33.059 4.12294C33.0266 3.81463 32.9032 3.77145 32.6809 3.61735C32.6614 3.60404 32.6659 3.57386 32.6886 3.56731C32.828 3.5273 32.9695 3.48667 33.1133 3.44554C33.8402 3.23751 34.4348 2.59633 34.1975 1.79573C34.1574 1.66036 34.0802 1.57338 33.9455 1.54452C33.3066 1.41037 32.6295 1.31142 31.9138 1.24747C30.3159 1.10421 28.7148 1.06175 27.1113 1.11966C25.5462 1.17676 23.9823 1.25586 22.42 1.35727C21.8403 1.39492 21.2376 1.46675 20.6122 1.57225C20.3809 1.61134 20.1655 1.67233 19.9654 1.75511C19.95 1.76145 19.9432 1.75593 19.9446 1.73915C19.9768 1.40833 20.0566 1.00936 19.8757 0.723559C19.7594 0.539372 19.3182 -0.0287437 19.0785 0.00113551C18.984 0.0123914 18.927 0.0767546 18.9077 0.1931C18.8528 0.522385 18.8186 0.906723 18.8052 1.34652C18.8047 1.36668 18.7948 1.37272 18.7765 1.36433C18.4665 1.2181 17.9089 0.871523 17.8633 1.52672C17.8465 1.76483 17.8282 2.00714 17.8079 2.25313C17.8064 2.27544 17.7886 2.29324 17.7663 2.2956C17.4925 2.32251 16.9919 2.38728 16.9611 2.74696C16.9007 3.45106 16.8383 4.27755 16.7739 5.22683C16.7551 5.50219 16.7962 5.71647 17.1299 5.67247C17.4206 5.6342 18.0451 5.48378 18.098 5.13515C18.2105 4.3894 18.3105 3.63914 18.3976 2.88418C18.3997 2.86555 18.409 2.86034 18.4259 2.8677L19.4296 3.31773C19.4866 3.34311 19.5198 3.40236 19.5123 3.46437L18.8954 8.49339C18.8929 8.5112 18.883 8.52041 18.8651 8.52061C18.0277 8.54446 17.1904 8.57229 16.3535 8.6034C14.0307 8.69017 11.7156 8.87691 9.409 9.1624C8.17106 9.316 6.9455 9.53733 5.73273 9.8265C5.3445 9.919 4.97367 10.04 4.60325 10.1712C4.46357 10.2203 4.37547 10.3321 4.33884 10.506C4.12242 11.5265 4.00853 12.4827 3.99666 13.3755C3.99666 13.3918 3.98919 13.4027 3.97435 13.4093C3.88717 13.4478 3.84215 13.4865 3.82772 13.5874C3.80654 13.7352 3.7609 14.0743 3.97384 14.0565C3.99123 14.0549 4.00014 14.0633 4.00055 14.0807C4.01098 14.5675 4.06798 15.0483 4.17143 15.5241C4.17491 15.5391 4.16058 15.5524 4.14565 15.5475L3.61631 15.3771C3.60352 15.3727 3.58909 15.3751 3.57773 15.383L3.09588 15.7297C3.07756 15.743 3.06866 15.7658 3.07316 15.7881L3.2197 16.4725C3.22317 16.4898 3.21918 16.5051 3.2068 16.5175L2.57545 17.1642C2.54475 17.1959 2.50413 17.2157 2.46105 17.2217L1.68511 17.3236C1.66188 17.3266 1.64152 17.3405 1.63016 17.3613L1.34989 17.8699C1.34487 17.8788 1.3459 17.8897 1.35183 17.8976L1.78314 18.4691C1.7901 18.4785 1.79204 18.4913 1.78805 18.5022L1.46726 19.4149C1.45682 19.4451 1.43605 19.4707 1.40883 19.4876L0.678423 19.9373C0.65366 19.9526 0.638311 19.9789 0.636776 20.0081L0.611502 20.5651C0.611092 20.5815 0.617539 20.5939 0.631353 20.6023L1.1701 20.9311C1.19435 20.946 1.21021 20.9722 1.21124 21.0004C1.22311 21.2599 1.236 21.5233 1.25032 21.7912C1.25432 21.8685 1.23989 21.9368 1.20724 21.9958C1.0691 22.2444 0.845317 22.4771 0.661539 22.6965C0.654069 22.7054 0.651204 22.7173 0.65366 22.7286L0.79528 23.3244C0.798247 23.3367 0.806126 23.3441 0.818508 23.3462L1.52517 23.4576C1.54001 23.46 1.5529 23.4695 1.55935 23.4833C1.66874 23.7126 1.77915 23.9414 1.89058 24.1697C2.00795 24.4093 1.79357 24.9406 1.69053 25.1769C1.68265 25.1947 1.68409 25.2115 1.69503 25.2273L2.01092 25.6998C2.02135 25.7151 2.03517 25.7201 2.05256 25.7151L2.70018 25.5269C2.71809 25.522 2.73344 25.5259 2.74674 25.5383C2.90177 25.6849 3.0572 25.83 3.21427 25.9741C3.58756 26.3178 3.2905 26.8105 3.64854 27.1299C3.66635 27.1457 3.66338 27.1541 3.63964 27.1546L0.680879 27.2165C0.572413 27.219 0.572413 27.2254 0.680367 27.2368C2.24565 27.4018 3.81493 27.5132 5.38758 27.5711C5.48366 27.5746 5.48366 27.579 5.38758 27.584C3.86589 27.6607 2.32987 27.7494 0.779419 27.8489C0.516441 27.8657 0.257453 27.8885 0.00143257 27.9172C0.000511612 27.9172 0 27.9182 0 27.9192C0 27.9202 0.000511612 27.9206 0.00143257 27.9206C1.43062 27.9608 2.86411 27.9974 4.29576 27.9974C15.2557 28.0009 26.2163 28.0009 37.1762 27.9974C38.6578 27.9969 40.1397 27.9672 41.6203 27.9241C41.6478 27.9231 41.6745 27.9177 41.7002 27.9073C41.7031 27.9063 41.702 27.9018 41.6992 27.9018C39.9209 27.7914 38.1447 27.6785 36.3649 27.5825C36.3372 27.581 36.3372 27.58 36.3649 27.579C37.9678 27.5245 39.5611 27.4067 41.144 27.226C41.1479 27.2254 41.1479 27.2244 41.144 27.2239C41.0396 27.2002 40.8979 27.2155 40.8218 27.2145C39.7468 27.1958 38.6686 27.1779 37.5872 27.1616C37.5605 27.1611 37.5514 27.1254 37.5749 27.1126L38.0862 26.8268C38.119 26.808 38.1391 26.7729 38.1384 26.7352L38.1195 25.9152C38.119 25.8979 38.126 25.8834 38.1396 25.8721C38.3372 25.7166 38.5266 25.5508 38.7068 25.375C38.835 25.2491 38.8884 25.2407 39.0583 25.2194C39.3431 25.1833 39.6307 25.1521 39.9204 25.1249C39.9352 25.1234 39.9488 25.1159 39.9572 25.1035L40.3359 24.5673C40.3443 24.5553 40.3448 24.543 40.337 24.5306L39.9134 23.8612C39.9055 23.8488 39.9045 23.8324 39.9115 23.819L40.3333 22.9733C40.3543 22.9312 40.3894 22.8976 40.4326 22.8782L41.3254 22.479C41.3366 22.4741 41.3452 22.4642 41.3492 22.4523L41.5571 21.8339C41.5616 21.8205 41.558 21.8095 41.5472 21.8011L40.9415 21.3307C40.9117 21.3074 40.8965 21.2709 40.9004 21.2337L41.001 20.2869C41.0023 20.273 41.0094 20.2601 41.0199 20.2507Z" fill="#1E1D1D"/>
<path d="M35.6131 23.4302C33.4045 24.9242 30.3171 24.1513 29.12 21.759C28.6715 20.8622 28.5437 19.9183 28.7367 18.9265C29.034 17.4004 30.2689 16.1703 31.7283 15.7677C32.299 15.6102 33.0454 15.5924 33.6426 15.6836C34.7271 15.8494 35.6343 16.347 36.3646 17.1755C36.7638 17.6282 37.0614 18.2259 37.249 18.8056C37.8111 20.5443 37.1311 22.4037 35.6131 23.4302ZM37.5803 19.1558C37.3398 17.8787 36.6171 16.8338 35.5258 16.1367C34.3596 15.3918 33.0914 15.1764 31.7209 15.49C29.6727 15.9579 28.3074 17.8168 28.3946 19.9054C28.4481 21.1965 28.9398 22.277 29.8697 23.1474C31.0542 24.2567 32.682 24.6509 34.2556 24.2458C36.4987 23.6684 38.0196 21.4881 37.5803 19.1558Z" fill="#1E1D1D"/>
<path d="M35.2811 20.9344C34.687 22.4156 33.0576 23.1777 31.543 22.6285C30.3755 22.2051 29.6059 21.0568 29.6024 19.8283C29.5995 18.7299 30.2225 17.7321 31.2009 17.2344C33.548 16.0406 36.277 18.4545 35.2811 20.9344ZM33.6816 16.4253C31.7353 15.8454 29.6944 16.9269 29.1241 18.8419C28.553 20.7567 29.6682 22.7796 31.6147 23.3599C33.5614 23.9397 35.602 22.8583 36.1725 20.9434C36.7433 19.0285 35.6282 17.0057 33.6816 16.4253Z" fill="#1E1D1D"/>
<path d="M35.2625 19.8635C35.2625 21.3684 34.0426 22.5885 32.5377 22.5885C31.0327 22.5885 29.8125 21.3684 29.8125 19.8635C29.8125 18.3586 31.0327 17.1384 32.5377 17.1384C34.0426 17.1384 35.2625 18.3586 35.2625 19.8635Z" fill="#1E1D1D"/>
<path d="M7.29066 24.6223C5.33858 24.4752 3.87634 22.7504 4.02543 20.7692C4.17442 18.7884 5.87784 17.3014 7.83043 17.448C9.78241 17.595 11.2448 19.3197 11.0957 21.3011C10.9466 23.2818 9.24315 24.7688 7.29066 24.6223ZM11.1041 20.07C10.7515 18.7052 9.60119 17.5965 8.19738 17.3688C5.3218 16.9017 3.01619 19.7169 4.09471 22.4295C4.73353 24.0369 6.40626 25.0243 8.12401 24.7133C10.3028 24.3192 11.6602 22.2216 11.1041 20.07Z" fill="#1E1D1D"/>
<path d="M10.0059 18.6316C11.119 19.7077 11.3454 21.4725 10.4649 22.809C10.4625 22.8119 10.4594 22.813 10.456 22.8124C10.4545 22.8119 10.4536 22.8119 10.4526 22.8119C10.451 22.8119 10.4506 22.811 10.451 22.8095C10.7745 22.1484 10.9482 21.423 10.867 20.6866C10.7799 19.8997 10.4867 19.2209 9.988 18.6489C9.86029 18.5024 9.86623 18.4964 10.0059 18.6316Z" fill="#1E1D1D"/>
<path d="M9.44012 21.1738C9.38179 22.2577 8.47457 23.0902 7.41436 23.0328C6.35416 22.9753 5.54251 22.0498 5.60145 20.9658C5.65988 19.8818 6.5671 19.0494 7.6273 19.1069C8.68751 19.1643 9.49906 20.0899 9.44012 21.1738ZM8.13781 18.7102C6.83796 18.369 5.50639 19.1495 5.16472 20.4528C4.82254 21.7561 5.5995 23.0891 6.89987 23.4303C8.19972 23.7716 9.53129 22.9911 9.87296 21.6878C10.2151 20.3845 9.43817 19.0515 8.13781 18.7102Z" fill="#1E1D1D"/>
<path d="M7.50845 22.9331C6.50054 22.9277 5.68796 22.0888 5.69339 21.0592C5.69881 20.0293 6.52039 19.1989 7.52789 19.2044C8.5358 19.2098 9.34838 20.0487 9.34285 21.0783C9.33743 22.1082 8.51595 22.9386 7.50845 22.9331Z" fill="#1E1D1D"/>
</svg>
