<svg width="40" height="40" viewBox="0 0 40 40" fill="none" xmlns="http://www.w3.org/2000/svg">
<g id="typescript">
<g id="typescript_2">
<path id="Vector" d="M0 4C0 1.79086 1.79086 0 4 0H36C38.2091 0 40 1.79086 40 4V36C40 38.2091 38.2091 40 36 40H4C1.79086 40 0 38.2091 0 36V4Z" fill="#3A3A3C"/>
<path id="Vector_2" d="M19.2063 14.8126H21.125V18.1251H15.9375V32.8626L15.8 32.9001C15.6125 32.9501 13.1438 32.9501 12.6125 32.8938L12.1875 32.8563V18.1251H7V14.8126L8.64375 14.7938C9.54375 14.7813 11.8563 14.7813 13.7813 14.7938C15.7063 14.8063 18.1438 14.8126 19.2063 14.8126ZM33.85 31.3001C33.0875 32.1063 32.2688 32.5563 30.9063 32.9251C30.3125 33.0876 30.2125 33.0938 28.875 33.0876C27.5375 33.0813 27.4313 33.0813 26.7813 32.9126C25.1 32.4813 23.7438 31.6376 22.8188 30.4438C22.5563 30.1063 22.125 29.4063 22.125 29.3188C22.125 29.2938 22.1875 29.2376 22.2688 29.2001C22.35 29.1626 22.5188 29.0563 22.6563 28.9751C22.7938 28.8938 23.0438 28.7438 23.2125 28.6563C23.3813 28.5688 23.8688 28.2813 24.2938 28.0251C24.7188 27.7688 25.1063 27.5626 25.15 27.5626C25.1938 27.5626 25.275 27.6501 25.3375 27.7563C25.7125 28.3876 26.5875 29.1938 27.2063 29.4688C27.5875 29.6313 28.4313 29.8126 28.8375 29.8126C29.2125 29.8126 29.9 29.6501 30.2688 29.4813C30.6625 29.3001 30.8625 29.1188 31.1 28.7563C31.2625 28.5001 31.2813 28.4313 31.275 27.9438C31.275 27.4938 31.25 27.3688 31.125 27.1626C30.775 26.5876 30.3 26.2876 28.375 25.4376C26.3875 24.5563 25.4938 24.0313 24.7688 23.3251C24.2313 22.8001 24.125 22.6563 23.7875 22.0001C23.35 21.1563 23.2938 20.8813 23.2875 19.6251C23.2813 18.7438 23.3 18.4563 23.3938 18.1563C23.525 17.7063 23.95 16.8376 24.1438 16.6188C24.5438 16.1501 24.6875 16.0063 24.9688 15.7751C25.8188 15.0751 27.1438 14.6126 28.4125 14.5688C28.5563 14.5688 29.0313 14.5938 29.475 14.6251C30.75 14.7313 31.6188 15.0438 32.4563 15.7126C33.0875 16.2126 34.0438 17.3876 33.95 17.5438C33.8875 17.6376 31.3938 19.3001 31.2313 19.3501C31.1313 19.3813 31.0625 19.3438 30.925 19.1813C30.075 18.1626 29.7313 17.9438 28.9063 17.8938C28.3188 17.8563 28.0063 17.9251 27.6125 18.1876C27.2 18.4626 27 18.8813 27 19.4626C27.0063 20.3126 27.3313 20.7126 28.5313 21.3063C29.3063 21.6876 29.9688 22.0001 30.0188 22.0001C30.0938 22.0001 31.7 22.8001 32.1188 23.0501C34.0688 24.1938 34.8625 25.3688 35.0688 27.3938C35.2188 28.9188 34.7875 30.3126 33.85 31.3001Z" fill="white"/>
</g>
</g>
</svg>
