<svg width="28" height="26" viewBox="0 0 28 26" fill="none" xmlns="http://www.w3.org/2000/svg">
<path d="M13.5321 26C10.0724 26 1.92862 25.6855 0.385037 23.0645C-1.31823 20.0766 3.09961 12.2661 4.48352 9.90726C5.86742 7.60081 10.6579 0 13.9579 0C17.6838 0 23.592 9.80242 25.3485 13.2621C27.9034 18.2944 28.6486 21.6492 27.4244 23.2218C25.4017 25.8952 15.5015 26 13.5321 26ZM13.9579 2.14919C12.9998 2.14919 9.85945 5.24193 6.45292 11.0081C2.78025 17.1411 1.82217 21.125 2.35444 22.0161C2.78025 22.75 6.6126 23.8508 13.5321 23.8508C20.771 23.8508 25.0291 22.6976 25.6146 21.9113C25.9872 21.4395 25.6679 18.9234 23.3259 14.2581C19.8129 7.33871 15.1821 2.14919 13.9579 2.14919ZM14.0112 17.1935C13.3724 17.1935 12.8934 16.7218 12.8934 16.0927V7.75806C12.8934 7.12903 13.3724 6.65726 14.0112 6.65726C14.6499 6.65726 15.1289 7.12903 15.1289 7.75806V16.0403C15.1289 16.6694 14.5967 17.1935 14.0112 17.1935ZM15.1289 20.0242C15.1289 20.6323 14.6286 21.125 14.0112 21.125C13.3937 21.125 12.8934 20.6323 12.8934 20.0242C12.8934 19.4161 13.3937 18.9234 14.0112 18.9234C14.6286 18.9234 15.1289 19.4161 15.1289 20.0242Z" fill="black" fill-opacity="0.8"/>
</svg>
