<svg width="40" height="40" viewBox="0 0 40 40" fill="none" xmlns="http://www.w3.org/2000/svg">
<g id="webpack">
<g id="webpack_2">
<path id="Vector" d="M20.0772 0L2.40057 10V30L20.0772 40L37.7539 30V10L20.0772 0Z" fill="white"/>
<path id="Vector_2" d="M5.55742 29.31L19.4941 37.1933V31.0533L10.8108 26.2766L5.55742 29.31ZM4.60409 28.4466V11.96L9.70409 14.9033V25.5L4.60409 28.4466ZM34.6541 29.31L20.7174 37.1933V31.0533L29.4008 26.2766L34.6541 29.31V29.31ZM35.6074 28.4466V11.96L30.5074 14.9033V25.5L35.6074 28.4466V28.4466ZM35.0108 10.8933L20.7174 2.80664V8.74331L29.8741 13.78L29.9441 13.82L35.0108 10.8933V10.8933ZM5.20075 10.8933L19.4941 2.80664V8.74331L10.3374 13.78L10.2674 13.82L5.20075 10.8933V10.8933Z" fill="#3A3A3A" fill-opacity="0.75"/>
<path id="Vector_3" d="M20.7165 29.6566L29.2832 24.9466V15.6132L20.7165 20.5599V29.6566ZM19.4932 29.6566L10.9265 24.9466V15.6132L19.4932 20.5599V29.6566ZM28.7032 14.5332L20.1032 9.80322L11.5032 14.5332L20.1032 19.4999L28.7032 14.5332" fill="#3A3A3C"/>
</g>
</g>
</svg>
