<svg width="12" height="12" viewBox="0 0 12 12" fill="none" xmlns="http://www.w3.org/2000/svg">
<path d="M0 11.52L0.80976 8.56176C0.31008 7.69584 0.04752 6.71424 0.048 5.70768C0.04944 2.5608 2.61024 0 5.75664 0C7.28352 0.00048 8.7168 0.5952 9.79488 1.67424C10.8725 2.75328 11.4658 4.18752 11.4653 5.71296C11.4638 8.86032 8.90304 11.4211 5.75664 11.4211C4.80144 11.4206 3.86016 11.1811 3.0264 10.7261L0 11.52ZM3.16656 9.69264C3.97104 10.1702 4.73904 10.4563 5.75472 10.4568C8.36976 10.4568 10.5 8.32848 10.5014 5.712C10.5024 3.09024 8.38224 0.9648 5.75856 0.96384C3.1416 0.96384 1.0128 3.09216 1.01184 5.70816C1.01136 6.77616 1.32432 7.57584 1.84992 8.41248L1.3704 10.1635L3.16656 9.69264ZM8.63232 7.06992C8.5968 7.0104 8.50176 6.97488 8.35872 6.90336C8.21616 6.83184 7.51488 6.48672 7.38384 6.4392C7.25328 6.39168 7.15824 6.36768 7.06272 6.51072C6.96768 6.65328 6.69408 6.97488 6.61104 7.06992C6.528 7.16496 6.44448 7.17696 6.30192 7.10544C6.15936 7.03392 5.69952 6.88368 5.15472 6.39744C4.73088 6.0192 4.44432 5.55216 4.36128 5.40912C4.27824 5.26656 4.35264 5.18928 4.42368 5.11824C4.488 5.0544 4.56624 4.95168 4.63776 4.86816C4.71024 4.7856 4.73376 4.72608 4.78176 4.63056C4.82928 4.53552 4.80576 4.452 4.76976 4.38048C4.73376 4.30944 4.44864 3.6072 4.33008 3.3216C4.21392 3.04368 4.09632 3.08112 4.00896 3.0768L3.73536 3.072C3.64032 3.072 3.48576 3.10752 3.3552 3.25056C3.22464 3.3936 2.856 3.73824 2.856 4.44048C2.856 5.14272 3.3672 5.82096 3.43824 5.916C3.50976 6.01104 4.44384 7.452 5.87472 8.06976C6.21504 8.21664 6.48096 8.30448 6.68784 8.37024C7.0296 8.47872 7.34064 8.46336 7.5864 8.42688C7.86048 8.38608 8.43024 8.08176 8.54928 7.74864C8.66832 7.41504 8.66832 7.12944 8.63232 7.06992Z" fill="white"/>
</svg>
